<?xml version="1.0" encoding="utf-8"?>
<!-- Generator: Adobe Illustrator 24.1.2, SVG Export Plug-In . SVG Version: 6.00 Build 0)  -->
<svg version="1.1" xmlns="http://www.w3.org/2000/svg" xmlns:xlink="http://www.w3.org/1999/xlink" x="0px" y="0px"
	 viewBox="0 0 1801.8 1220.7" style="enable-background:new 0 0 1801.8 1220.7;" xml:space="preserve">
<style type="text/css">
	.st0{fill:#B4B6BC;}
	.st1{fill:#F0D1C5;}
	.st2{fill:#B4E6FF;}
	.st3{fill:#C9FFCF;}
	.st4{fill:#FFDFF8;}
	.st5{fill:#FFF2CD;stroke:#FFCA05;stroke-width:0.75;}
	.st6{fill:#FFB4C3;}
	.st7{fill:#FFFFFF;stroke:#939393;stroke-width:2;stroke-miterlimit:10;}
	.st8{opacity:0.82;}
	.st9{font-family:'Bauhaus93';}
	.st10{font-size:39.2815px;}
	.st11{enable-background:new    ;}
	.st12{fill:#0DE900;}
	.st13{font-family:'EuphemiaUCAS-Bold';}
	.st14{font-size:22.9646px;}
	.st15{fill:#7AA4FF;}
	.st16{font-size:24.1733px;}
	.st17{font-size:24.1735px;}
</style>
<g id="Layer_1">
	<g id="Brain_1_">
		<g id="Brain">
			<path class="st0" d="M567.4,735.1c0,0-12.1,6.6-21.2,6.6s-6.6-3.6-21.2,1.8c-14.5,5.4-50.8,3.6-61.6-4.8
				c-10.9-7.9-19.9-6-33.2-7.3c-13.3-1.2-55-15.1-70.7-39.9c-6-9.7-10.9-17.5-16.3-28.4c-5.4-10.9-7.9-13.3-7.9-23s-6.6,4.2-12.1-23
				s-10.9-42.3-5.4-56.8c5.4-15.1,2.4-10.9,4.2-27.2c1.2-16.3,4.2-23,7.9-33.8c4.2-10.9,5.4-6.6,5.4-21.8c0-15.1,4.2-31.4,13.3-42.3
				c9.7-10.9,5.4-6.6,12.1-18.7c6.6-12.1,10.9-17.5,19.9-21.8c9.7-4.2,7.9-7.9,13.3-13.3c5.4-5.4,7.9-9.7,17.5-12.1
				c9.1-2.4,7.3-10.3,13.3-21.8c19.3-36.3,62.9-46.5,82.8-53.2c28.4-9.1,21.2-3.6,33.2-21.8c13.9-21.2,50.8-26,65.9-28.4
				c15.1-2.4,7.9,1.2,21.2-5.4s14.5-2.4,26.6-4.2c12.1-1.2,13.3-4.2,24.2-7.9c10.9-4.2,18.1-7.3,32.6-4.8c14.5,3,6,4.8,16.9,0.6
				c10.9-4.2,17.5-4.2,33.2-3c16.3,1.2,18.7-4.2,25.4,3c6.6,6.6,2.4,12.1,13.3,5.4c10.9-6.6,29.6-10.9,41.7-10.9
				c10.3,0,23.6,1.8,29.6,5.4c9.1,5.4-2.4,5.4,6.6,0c9.7-5.4,14.5-6.6,24.2-3c9.7,4.2,6.6-1.2,16.3,0c9.7,1.2,12.1-1.2,21.2,3
				c9.1,4.2,9.1-1.2,25.4,2.4c16.3,4.2,18.7,6.6,29.6,10.9c10.9,4.2,9.7-2.4,24.2,0c14.5,2.4,50.8,10.9,60.4,18.7
				c9.7,7.9,14.5,9.7,26.6,13.3c12.1,4.2,12.1,2.4,14.5,10.9c2.4,7.9-2.4-7.9,10.9,0s16.3,6.6,23,17.5s5.4,1.2,18.7,12.1
				c13.3,10.9,33.2,23,38.7,42.3c5.4,18.7,12.1,5.4,23,13.3c10.9,7.9,10.9,10.9,16.3,21.8c5.4,10.9,7.9,5.4,21.2,18.7
				c13.3,13.3,29.6,32.6,29.6,47.7c0,15.1,0,12.1,10.9,20.5c10.9,7.9,36.3,28.4,38.7,43.5c2.4,15.1,10.9,16.3,14.5,29.6
				c4.2,13.3,11.5,21.8,10.9,40.5c-0.6,16.9-1.2,15.1-4.2,33.8c-2.4,18.7,0,23-10.9,32.6c-10.9,9.7-6.6,4.2-9.1,26
				c-5.4,39.9-50.8,39.3-62.9,32.6c-25.4-14.5-45.3-12.1-57.4-21.8c-12.1-9.7-13.3-6.6-26.6,2.4c-13.3,9.7-18.7,12.1-26.6,9.7
				s-4.2-1.2-23,9.7c-18.7,10.9-42.3,25.4-59.8,19.9c-17.5-5.4-6-7.3-23.6,4.8c-17.5,12.1-31.4,23-45.3,17.5
				c-6.6-2.4-6.6,1.2-16.3,5.4c-12.7,6-18.7,5.4-35.1,1.8c-10.9-2.4-12.1-10.3-32-1.8c-19.9,7.9-47.7,17.5-69.5,6.6
				c-5.4-2.4,1.2-1.2,5.4,16.3c4.2,16.9,0.6,26.6-25.4,33.8c-14.5,4.2-24.2,4.2-33.2,15.1c-9.7,10.9-28.4,12.1-48.3,18.7
				c-19.9,6.6-30.8,10.9-44.1,5.4c-13.3-5.4-13.3-4.2-25.4-2.4c-12.1,1.2-17.5,0-30.8-7.9c-9.7-6-13.3-16.3-29.6-18.7
				c-2.4-0.6-19.9-7.3-29.6-20.5c-6.6-9.7-7.9-17.5-19.9-28.4C580.7,766.5,572.8,745.9,567.4,735.1z"/>
			<path class="st1" d="M572.2,734.5c-0.6-1.2-1.2-1.8-1.2-3c0,0-12.1,6.6-21.2,6.6c-9.1,0-6.6-3.6-21.2,1.8
				c-14.5,5.4-50.8,3.6-61-4.8c-10.9-7.9-19.9-6-33.2-7.3c-13.3-1.2-54.4-15.1-70.7-39.9c-6-9.1-10.9-17.5-15.7-28.4
				c-5.4-10.9-7.9-13.3-7.9-23c0-9.7-6.6,4.2-12.1-23c-5.4-27.2-10.9-41.7-5.4-56.8s2.4-10.9,4.2-27.2c1.2-16.3,4.2-23,7.9-33.8
				c4.2-10.9,5.4-6.6,5.4-21.8c0-15.1,4.2-30.8,13.3-41.7c9.1-10.9,5.4-6.6,12.1-18.7c6.6-12.1,10.9-17.5,19.9-21.8
				c9.1-4.2,7.9-7.9,13.3-13.3c5.4-5.4,7.9-9.7,17.5-12.1c9.1-2.4,7.3-9.7,13.3-21.8c19.3-35.7,62.9-46.5,82.8-52.6
				c28.4-9.1,21.2-3.6,33.2-21.8c13.9-21.2,50.8-26,65.3-28.4c14.5-2.4,7.9,1.2,21.2-5.4c13.3-6.6,14.5-2.4,26.6-4.2
				c12.1-1.2,13.3-4.2,24.2-7.9c10.9-4.2,18.1-7.3,32.6-4.8c14.5,2.4,6,4.8,16.9,0.6c10.9-4.2,17.5-4.2,33.2-2.4
				c15.7,1.2,18.7-4.2,25.4,2.4c6.6,6.6,2.4,12.1,13.3,5.4c10.9-6.6,29.6-10.9,41.1-10.9c10.3,0,12.7-1.2,18.7,2.4
				c1.2,0.6,6,2.4,6.6,3c10.9,5.4,39.9,27.8,35.7,40.5c-4.2,12.7-78,179.5-81,196.4c-3,16.9-53.8,181.3-65.9,195.2
				c-12.1,13.9-114.8,61-131.1,69.5"/>
			<path class="st2" d="M1250.9,381.5c-5.4-3.6-0.6-3.6-4.2-10.9c-5.4-10.9-1.8,0-12.7-7.9c-10.9-7.9-17.5,5.4-23-13.3
				c-5.4-18.7-25.4-30.8-38.7-41.7s-12.1-1.2-18.7-12.1c-6.6-10.9-9.1-9.7-23-17.5c-13.3-7.9-7.9,7.9-10.9,0
				c-2.4-7.9-2.4-6.6-14.5-10.9c-12.1-4.2-17.5-5.4-26.6-13.3c-9.1-7.9-45.3-16.3-59.8-18.7s-13.3,4.2-24.2,0s-13.3-6.6-29.6-10.9
				c-15.7-4.2-15.7,1.2-25.4-2.4c-9.1-4.2-12.1-1.2-21.2-2.4c-9.1-1.2-6.6,4.2-15.7,0c-9.1-4.2-14.5-2.4-24.2,2.4
				c-7.9,4.8,0,5.4-4.2,1.8c0,0-4.8,12.1,0.6,18.7c5.4,6.6,4.2,4.2-6.6,5.4c-10.9,1.2-13.9,5.4-20.5,13.9c-6.6,8.5-6.6,5.4-16.3,8.5
				c-9.7,3-26,15.1-34.4,26.6c-8.5,10.9-6.6,26.6-8.5,45.9c-1.2,19.3,9.7,35.1,4.2,24.8c-5.4-10.3-8.5-9.7-20.5-9.7
				s-31.4,12.7-42.3,24.8c-10.9,12.7-16.3,27.8-18.1,45.9c-1.2,18.1,0,26.6-1.2,35.1c-1.2,8.5-4.2,13.9-1.2,29
				c3,15.1,3,10.9-4.2,19.3c-6.6,8.5-9.7,18.1-13.9,30.8c-4.2,12.7,4.2,19.3,18.1,22.4c13.9,3,330.6,51.4,348.7,54.4
				s168.6,32,185.5,8.5c16.3-23.6,24.8-183.7,20.5-195.2C1260.6,420.2,1250.9,381.5,1250.9,381.5z"/>
			<path class="st3" d="M1178.4,606.9c3-40.5,56.2-169.8,76.8-214.5c2.4,1.8,12.1,6,16.3,10.3c13.3,13.3,29.6,32.6,29.6,47.1
				c0,14.5,0,12.1,10.9,20.5c10.9,7.9,36.3,28.4,38.7,43.5c2.4,15.1,10.9,16.3,14.5,29.6c4.2,13.3,11.5,21.8,10.9,40.5
				c-0.6,16.9-1.2,15.1-4.2,33.8c-2.4,18.7,0,23-10.9,32.6c-10.9,9.7-6.6,4.2-9.1,26c-5.4,39.9-50.8,39.3-62.9,32.6
				c-25.4-13.9-45.3-12.1-57.4-21.8c-7.9-6-8.5-8.5-13.9-5.4"/>
			<path class="st4" d="M566.2,736.9c5.4,11.5,15.1,30.8,26.6,41.1c12.1,10.9,13.3,19.3,19.9,29c9.1,13.3,27.2,19.9,29.6,20.5
				c16.3,3,19.9,13.3,29.6,19.3c13.3,8.5,18.7,9.7,30.8,8.5c12.1-1.2,12.1-3,25.4,3c13.3,5.4,24.2,1.2,44.7-5.4
				c19.9-6.6,39.3-8.5,48.3-19.3c9.7-10.9,19.3-10.9,33.8-15.1c26-7.3,29.6-16.9,25.4-34.4s-10.9-19.3-5.4-16.3
				c21.8,10.9,50.2,1.2,70.1-6.6c19.9-8.5,21.2-0.6,32.6,1.8c16.3,3.6,22.4,3.6,35.1-1.8c9.1-4.2,9.7-7.9,16.3-5.4
				c14.5,5.4,28.4-5.4,45.9-17.5s6-10.3,23.6-4.8c17.5,5.4,41.1-9.1,59.8-19.9c18.7-10.9,15.1-12.1,23-9.7c7.9,3,13.3,0,27.2-9.7
				c3-1.8,6-4.2,10.3-6.6v-0.6c-3-18.1-119.1-225.4-203.7-291.9c-23.6,8.5-39.3,11.5-43.5,24.2s4.2,16.9-4.2,21.2
				c-8.5,4.2-9.7,3-12.7,9.7c-3,7.3-5.4,12.7-5.4,12.7s-4.2,1.2-13.9,7.3c-9.7,5.4-19.3,15.1-18.1,24.8c1.2,9.7,6.6,14.5,6.6,14.5
				s0-8.5-13.9-5.4c-13.9,3-23.6,9.7-23.6,9.7s-1.2,1.2-10.9,5.4c-3,1.2-9.1,16.3-9.1,19.9c0,0-19.3-4.2-27.8,5.4
				c0,0-9.7-13.3-15.7-15.1c-18.7-5.4-29,0-41.7,9.7c-12.7,9.7-13.9,15.7-26.6,19.9c-12.7,4.2-15.1,1.2-24.8,3
				c-9.7,1.2-20.5,5.4-26.6,13.9c-5.4,8.5-12.7,12.7-13.9,21.2c-1.2,8.5,9.7,7.3-1.2,8.5c-10.9,1.2-12.7,2.4-27.8,3.6
				c-15.1,1.2-28.4,2.4-36.9,10.9c-8.5,8.5-15.7,18.1-19.9,23.6c-4.2,5.4-9.7,8.5-10.9,18.1c-1.2,9.7,5.4,11.5-3,13.9
				c-8.5,3-13.9,5.4-18.1,13.9c-4.2,8.5-15.1,21.2-9.7,28.4c5.4,7.3,4.2,18.7,4.2,18.7"/>
			<path class="st5" d="M879.2,796.1c-1.8,8.5-9.1,13.9-26.6,19.3c-6.6,1.8-12.1,3-16.9,4.2l0.6,2.4c3.6,13.9,9.1,19.3,18.1,29.6
				c10.9,12.1,24.2,17.5,30.8,21.2c1.2,0.6,33.8,27.2,44.7,43.5c10.9,16.3,55,60.4,85.8,71.3c11.5,3,43.5-1.8,25.4-11.5
				c-52-38.1-44.1-98.5-56.8-105.8c-2.4-7.3-74.3-88.2-74.3-88.2l-29.6,10.3L879.2,796.1z"/>
			<path class="st6" d="M1269.6,700c-15.1-4.8-27.2-5.4-35.1-12.1c-12.1-9.7-13.3-6.6-27.2,3c-13.3,9.7-18.7,12.1-27.2,9.7
				c-7.9-3-4.2-1.2-23,9.7s-42.9,25.4-60.4,19.9c-17.5-5.4-6-7.3-23.6,4.8c-17.5,12.1-31.4,23-45.9,18.1c-6.6-2.4-6.6,1.2-16.3,5.4
				c-12.7,6-18.7,5.4-35.1,1.8c-11.5-2.4-12.1-10.3-32.6-1.8c-20.5,8.5-48.3,18.1-70.1,6.6c-5.4-3,1.2-1.2,5.4,16.3
				c1.2,6,1.8,10.9,1.2,15.1l2.4,2.4c7.3,4.2,1.8,0.6,1.8,0.6c9.1,8.5,10.3,6.6,15.7,10.9c5.4,4.2,2.4,18.7,7.9,27.2
				c5.4,9.1,33.2,28.4,44.7,26.6c0,0,20.5,28.4,39.3,25.4c0,0,9.7,26.6,56.8,21.2c0,0,21.2,9.1,33.8,6.6c0,0,29,6.6,41.1-18.1
				c0,0,13.9-4.2,22.4-8.5c4.8-2.4,12.1,0,17.5-6c5.4-6,9.1-5.4,12.7-9.7c4.2-4.2,4.8-1.8,10.3-6.6c5.4-4.8,10.3-3,15.1-8.5
				s9.7-6.6,12.7-10.9c3.6-4.2,5.4-1.8,7.9-6.6c2.4-4.8,5.4-4.8,7.9-9.1c3-4.2,12.1-13.3,14.5-18.1c1.8-4.8,7.3-5.4,9.1-11.5
				c1.2-6,4.2-4.2,5.4-9.7c1.2-5.4,5.4-3.6,6.6-10.3c1.2-6.6,4.8-8.5,5.4-13.3c0.6-4.8,4.8-11.5,3.6-15.1s4.2-3.6,1.8-10.9
				c-1.8-7.3,4.8-9.1,0.6-15.7s1.8-12.1-2.4-19.3c-1.2-1.8-3-5.4-4.8-9.1"/>
			<g>
				<g>
					<path class="st0" d="M363.7,571.3c-9.1-7.9-14.5-21.8-9.7-33.2c4.8-11.5,21.8-12.7,31.4-7.9c10.3,4.8,7.3,21.8,9.1,31.4
						c0,1.8,2.4,3.6,3,4.8c4.8,6,8.5,9.7,10.9,16.9c0.6,1.2,1.8,0.6,1.8-0.6c-1.2-5.4-3-9.7-6.6-13.9c-4.8-5.4-7.9-9.7-8.5-17.5
						c0-3,0-6.6-0.6-9.7c-1.8-10.9-10.9-17.5-22.4-16.3c-9.7,1.2-18.1,6-20.5,16.3C348.6,553.2,354.7,565.2,363.7,571.3L363.7,571.3
						L363.7,571.3z"/>
				</g>
			</g>
			<g>
				<g>
					<path class="st0" d="M338.4,522.9c13.3,9.7,15.7,33.8,5.4,46.5c-0.6,0.6,0.6,1.2,0.6,0.6C356.5,557.4,351.7,531.4,338.4,522.9
						C338.4,522.3,338.4,522.3,338.4,522.9L338.4,522.9z"/>
				</g>
			</g>
			<g>
				<g>
					<path class="st0" d="M365.6,489.1c-4.8,3-9.7,5.4-15.1,6c-7.9,0.6-12.1-3-15.1-9.7c-0.6-1.2-1.8,0-1.8,0.6
						c2.4,16.9,23,10.9,32,4.2C366.8,489.7,366.2,489.1,365.6,489.1L365.6,489.1z"/>
				</g>
			</g>
			<g>
				<g>
					<path class="st0" d="M342.6,579.1c-0.6,13.3-1.2,28.4,7.9,39.3c9.1,10.3,15.7,18.1,30.8,17.5c3.6,0,4.8-1.2,8.5-2.4
						c0,0,7.9,6,10.3,7.3c3.6,2.4,9.7,3.6,14.5,2.4c3.6-0.6,10.3-4.2,13.3,0c1.2,1.8,2.4,3.6,4.2,5.4c4.8,4.2,11.5,5.4,17.5,6.6
						c1.2,0,1.8-1.2,0.6-1.8c-6.6-1.8-14.5-3-18.7-9.1c-1.2-1.8-2.4-5.4-4.8-5.4c-4.8-0.6-9.7,2.4-14.5,2.4
						c-9.1,0.6-12.1-6-18.7-10.3c-1.2-1.2-4.8,0.6-6,1.2c-10.3,4.8-23-1.2-29.6-8.5C345,610,342.6,597.3,342.6,579.1L342.6,579.1
						L342.6,579.1z"/>
				</g>
			</g>
			<g>
				<g>
					<path class="st0" d="M491.3,696.4c-3.6-6.6-7.3-9.7-15.1-9.7c-8.5,0-12.1,6.6-21.8,4.2c-11.5-3-24.2-24.8-7.9-31.4
						c1.2-0.6,0.6-2.4-0.6-1.8c-11.5,4.2-11.5,17.5-3.6,26.6c4.8,6,10.3,9.7,18.1,9.1c3.6,0,7.3-2.4,10.3-3.6
						c8.5-3.6,15.1,0,19.3,7.3C490.6,697.6,491.9,697,491.3,696.4L491.3,696.4z"/>
				</g>
			</g>
			<g>
				<g>
					<path class="st0" d="M354.1,681.3c7.9,7.3,22.4,13.3,32.6,7.9c16.3-9.1,28.4-36.3,51.4-25.4c1.2,0.6,2.4-1.2,1.2-1.8
						c-10.9-4.8-23.6-0.6-32,6.6c-6.6,5.4-11.5,12.7-18.7,18.1C378.8,694,363.1,688.5,354.1,681.3
						C354.1,680.7,354.1,680.7,354.1,681.3L354.1,681.3z"/>
				</g>
			</g>
			<g>
				<g>
					<path class="st0" d="M350.4,669.2c7.9,7.3,18.7,16.3,30.2,12.7c1.2,0,0.6-1.8-0.6-1.8C369.2,683.7,358.9,675.8,350.4,669.2
						C350.4,668.6,350.4,669.2,350.4,669.2L350.4,669.2z"/>
				</g>
			</g>
			<g>
				<g>
					<path class="st0" d="M338.4,609.4c-2.4,4.8-4.8,9.1-5.4,14.5s-1.2,11.5,1.2,16.3c0.6,0.6,1.8,0,1.2-0.6
						C331.1,630.5,334.7,618.4,338.4,609.4C339,609.4,338.4,609.4,338.4,609.4L338.4,609.4z"/>
				</g>
			</g>
			<g>
				<g>
					<path class="st0" d="M345.6,469.8c7.3-6.6,13.3-8.5,22.4-11.5c6.6-2.4,15.1-1.2,21.8,1.8c1.8,0.6,3.6,3,5.4,3.6
						c3.6,1.2,6,0.6,8.5-2.4c8.5-6.6,21.2-7.3,30.2-1.2c1.2,0.6,2.4-1.2,1.2-1.8c-7.3-4.8-14.5-4.2-22.4-4.2
						c-9.1,0-10.3,11.5-21.8,4.2C376.4,449.8,355.3,460.1,345.6,469.8C345,469.8,345,470.4,345.6,469.8L345.6,469.8z"/>
				</g>
			</g>
			<g>
				<g>
					<path class="st0" d="M462.2,367c0,10.9-13.9,19.9-20.5,27.8c-6,6.6-8.5,15.7-11.5,23.6c-1.8,4.8-1.2,10.3-1.2,14.5
						c0,4.2-1.2,9.7,0,13.3c3,10.9,7.9,21.8,13.3,32c0.6,1.2,2.4,0,1.8-1.2c-5.4-12.1-12.7-24.2-12.7-38.1c0-13.3,1.2-24.8,7.3-36.3
						c4.2-8.5,12.1-15.7,18.7-22.4C460.4,376.7,462.8,372.5,462.2,367C462.2,366.4,462.2,366.4,462.2,367L462.2,367z"/>
				</g>
			</g>
			<g>
				<g>
					<path class="st0" d="M445.3,349.5c-2.4,2.4-7.3,5.4-7.9,9.7c-0.6,3.6-0.6,1.8,0,5.4c1.8,7.3,0,7.3-3.6,11.5
						c-1.8,2.4-1.2,6.6-1.2,9.7c0,6.6,1.2,7.3,5.4,12.7c0.6,0.6,1.8,0,1.2-1.2c-2.4-3.6-4.8-7.3-4.8-11.5c0-6,3-9.1,5.4-13.9
						c1.2-2.4,0.6-2.4,0-4.8C437.5,357.4,440.5,355.5,445.3,349.5C445.9,349.5,445.3,348.9,445.3,349.5L445.3,349.5z"/>
				</g>
			</g>
			<g>
				<g>
					<path class="st0" d="M404.2,422c-4.8-3.6-8.5-7.9-13.3-12.1c-6-5.4-6-14.5-1.8-21.2c0.6-1.2-0.6-1.8-1.8-0.6
						c-3.6,6-4.2,12.7-1.2,19.3c1.2,3,5.4,5.4,7.9,7.9c3,3,6,5.4,9.7,7.9C404.2,422.6,404.2,422,404.2,422L404.2,422z"/>
				</g>
			</g>
			<g>
				<g>
					<path class="st0" d="M366.2,454.7c-6-7.3-15.7-18.1-11.5-28.4c0.6-0.6-0.6-1.8-1.2-0.6C348,436.5,359.5,448,366.2,454.7
						C366.2,455.9,366.8,455.3,366.2,454.7L366.2,454.7z"/>
				</g>
			</g>
			<g>
				<g>
					<path class="st0" d="M410.3,476.4c-0.6,15.7,5.4,29,16.9,39.3c6.6,5.4,15.1,8.5,23,12.7c9.7,5.4,13.9,17.5,15.7,27.8
						c0.6,1.8,2.4,0.6,2.4-0.6c-2.4-14.5-9.7-26-23-31.4C424.8,515.1,409.7,500,410.3,476.4L410.3,476.4L410.3,476.4z"/>
				</g>
			</g>
			<g>
				<g>
					<path class="st0" d="M490,606.9c0-4.2,0-8.5-2.4-12.1c-3.6-5.4-9.1-7.9-12.1-13.9c-5.4-9.7-7.3-21.2-6-32
						c1.2-9.7,0-18.1,6-26.6c4.2-6,7.9-12.1,10.9-19.3c2.4-7.3,1.8-15.7,3.6-23.6c1.8-10.9,10.3-18.1,18.1-24.2
						c11.5-8.5,34.4-8.5,30.2,11.5c-0.6,1.2,1.8,1.8,2.4,0.6c3.6-15.7-10.3-23-24.2-18.7c-17.5,5.4-27.8,22.4-29.6,39.3
						c-0.6,6-1.2,11.5-3,17.5c-2.4,6.6-7.3,12.7-10.9,18.1c-5.4,7.9-4.2,19.3-5.4,28.4c-1.2,9.7,1.8,18.7,5.4,27.2
						c1.2,2.4,3.6,8.5,6.6,9.7c7.9,3.6,10.3,9.7,10.3,17.5C489.4,607.5,490,607.5,490,606.9L490,606.9z"/>
				</g>
			</g>
			<g>
				<g>
					<path class="st0" d="M529.3,504.2c-0.6-3.6-2.4-6.6-2.4-10.3c0-5.4,3-7.3,5.4-11.5c3.6-6,6.6-10.9,6.6-17.5
						c0-1.2-1.8-1.2-1.8,0c-0.6,9.1-5.4,15.1-10.3,22.4C523.3,493.3,527.5,498.8,529.3,504.2C528.7,504.8,529.3,504.2,529.3,504.2
						L529.3,504.2z"/>
				</g>
			</g>
			<g>
				<g>
					<path class="st0" d="M565,477.6c-5.4,1.8-10.9,0-15.1-2.4s-9.7-4.2-10.9-9.1c0-1.2-1.8-0.6-1.8,0c0,4.8,6,8.5,9.7,9.7
						C552.9,477.6,558.3,481.2,565,477.6C565.6,477.6,565.6,477,565,477.6L565,477.6z"/>
				</g>
			</g>
			<g>
				<g>
					<path class="st0" d="M507.6,338c3.6,9.7-4.2,19.3-9.7,27.2c-3,4.8-3,11.5-4.8,16.9c-1.8,7.9-10.3,9.1-14.5,15.1
						c-3.6,6-6,10.9-7.9,18.1c-2.4,9.7,0.6,22.4,6.6,30.2c5.4,6.6,16.9,13.3,26,10.9c1.2,0,0.6-1.8,0-1.8
						c-17.5,0.6-29-13.3-30.8-29.6c-1.2-8.5,2.4-16.9,6.6-24.2c3-4.8,7.3-7.3,11.5-10.9c3-2.4,3.6-6.6,4.8-9.7
						c1.8-6.6,3-12.7,6.6-18.7C507,353.7,511.8,347.1,507.6,338C508.2,336.8,507,337.4,507.6,338L507.6,338z"/>
				</g>
			</g>
			<g>
				<g>
					<path class="st0" d="M440.5,445c3.6-2.4,5.4-3,11.5-1.2c-0.6,0,3,3,3.6,3.6c2.4,1.8,2.4,4.8,5.4,6c0.6,0,0.6,0,0.6-0.6
						c1.2-4.8,1.8-9.1,4.8-13.3c1.8-2.4,4.8-3.6,7.9-4.8c1.2-0.6,0-1.8-0.6-1.2c-3.6,1.8-6.6,3.6-9.1,7.3c-1.2,1.8-1.8,4.2-2.4,6
						c-1.2,4.8-1.8,5.4-4.8,1.2C452.6,441.4,446.5,440.1,440.5,445C439.9,444.4,439.9,445,440.5,445L440.5,445z"/>
				</g>
			</g>
			<g>
				<g>
					<path class="st0" d="M447.7,546.5c5.4,11.5-9.7,24.8-10.9,36.3c-1.2,10.9,2.4,19.9,9.1,28.4c6.6,9.1,16.3,16.3,26,23
						c10.9,7.3,24.8,9.1,36.9,13.3c11.5,4.2,21.2,7.9,33.8,6c13.3-1.8,26-9.1,37.5-14.5c18.1-9.1,28.4-32.6,15.7-50.8
						c-0.6-1.2-2.4,0-1.8,1.2c7.3,13.9,6,26.6-4.2,38.7c-6.6,7.9-16.9,11.5-25.4,15.7c-12.1,5.4-24.8,9.7-37.5,7.3
						c-11.5-1.8-22.4-7.9-33.2-10.9c-21.2-6-44.1-20.5-53.2-42.3c-4.8-12.1,0.6-23,6-33.2c3-6.6,6-10.9,2.4-18.1
						C448.3,545.9,447.7,545.9,447.7,546.5L447.7,546.5z"/>
				</g>
			</g>
			<g>
				<g>
					<path class="st0" d="M407.2,605.7c5.4,18.7,29.6,24.2,45.3,15.1c1.2-0.6,0-2.4-1.2-1.8C436.3,626.9,413.9,623.9,407.2,605.7
						C407.9,605.1,407.2,605.1,407.2,605.7L407.2,605.7z"/>
				</g>
			</g>
			<g>
				<g>
					<path class="st0" d="M418.1,554.4c0,6,1.8,11.5,6.6,15.1c4.8,3.6,13.3-0.6,13.9,7.3c0,0.6,1.2,0.6,1.2,0
						c1.2-4.2-1.8-6.6-5.4-6.6c-3-0.6-5.4,0-8.5-1.8C419.9,565.8,418.7,559.2,418.1,554.4C418.1,553.8,418.1,553.8,418.1,554.4
						L418.1,554.4z"/>
				</g>
			</g>
			<g>
				<g>
					<path class="st0" d="M502.7,626.9c4.2-1.8,6.6-3.6,9.7-7.3c3-3.6,5.4-7.3,10.3-9.1c2.4-1.2,3.6-1.8,5.4-3.6
						c2.4-2.4,0-8.5,0-10.9c-1.2-7.9,12.7-7.9,16.9-9.7c0.6,0,0-1.2-0.6-1.2c-4.8,1.8-16.9,1.2-17.5,8.5c0,2.4,0,4.2,0.6,6.6
						c1.8,8.5-5.4,7.9-9.1,10.9c-6,4.8-8.5,11.5-15.7,14.5C502.1,626.9,502.1,627.5,502.7,626.9L502.7,626.9z"/>
				</g>
			</g>
			<g>
				<g>
					<path class="st0" d="M468.9,723.6c10.9,0.6,12.1-8.5,16.3-16.3c3.6-7.9,7.3-14.5,14.5-19.3c9.1-6,17.5-0.6,23,7.3
						c0.6,1.2,2.4,0,1.8-1.2c-5.4-7.9-13.9-14.5-23.6-9.1c-6,3-9.1,7.9-13.3,13.3C482.2,705.4,481.6,723.6,468.9,723.6
						C468.9,723,468.9,723.6,468.9,723.6L468.9,723.6z"/>
				</g>
			</g>
			<g>
				<g>
					<path class="st0" d="M516.6,672.8c-3.6,4.8-3.6,11.5,1.2,16.3c0.6,0.6,0.6,0,0.6-0.6C514.8,684.3,513.6,678.3,516.6,672.8
						C517.2,672.8,517.2,672.8,516.6,672.8L516.6,672.8z"/>
				</g>
			</g>
			<g>
				<g>
					<path class="st0" d="M535.4,679.5c-5.4-0.6-10.9-2.4-15.7-4.8c-4.2-1.8-10.3-7.9-7.3-13.3c0.6-0.6-0.6-1.8-1.2-1.2
						c-3.6,4.2,0,10.3,3.6,13.3C520.3,677.6,528.1,680.1,535.4,679.5C535.4,680.1,535.4,679.5,535.4,679.5L535.4,679.5z"/>
				</g>
			</g>
			<g>
				<g>
					<path class="st0" d="M540.2,661.9c-7.3,1.2-23.6,4.2-27.8-5.4c0-0.6-0.6-0.6-1.2-0.6c-5.4,2.4-8.5,0.6-11.5-3.6
						c-1.2-1.8-5.4-8.5-4.2-10.3c0.6-0.6-0.6-1.8-1.2-1.2c-4.8,4.2,6.6,19.9,12.1,19.9c1.2,0,4.8-3,5.4-1.8c0.6,1.2,1.8,2.4,3,3
						c8.5,3.6,16.9,2.4,25.4,0.6C540.8,662.5,540.8,661.9,540.2,661.9L540.2,661.9z"/>
				</g>
			</g>
			<g>
				<g>
					<path class="st0" d="M488.2,561c10.9-7.3,25.4-9.1,38.1-9.7c14.5-1.2,26,3.6,36.3,13.3c1.2,1.2,2.4-0.6,1.8-1.8
						c-8.5-9.1-19.3-13.3-31.4-13.3C518.4,549.5,500.3,551.3,488.2,561L488.2,561L488.2,561z"/>
				</g>
			</g>
			<g>
				<g>
					<path class="st0" d="M578.9,486.7c-1.8,4.2-3,7.3-3,12.1c0,1.2,0.6,1.8,1.2,2.4c3,7.3,1.2,11.5-1.8,18.1
						c-4.8,9.7-11.5,19.3-12.7,30.8c-1.8,19.3,9.1,36.9,29.6,36.9c1.8,0,1.8-2.4,0-2.4c-29.6-3-33.2-33.2-19.9-55
						c3-4.8,7.3-12.7,7.9-18.7c0.6-3,0-4.8-0.6-7.9c-2.4-6-1.8-10.3,0.6-15.7C580.1,486.7,579.5,486.1,578.9,486.7L578.9,486.7z"/>
				</g>
			</g>
			<g>
				<g>
					<path class="st0" d="M535.4,452.8c8.5-10.3,18.1-12.7,30.8-12.7c8.5,0,15.1,7.9,23.6,9.1c1.8,0.6,3.6,0,5.4,0
						c1.8-0.6,3.6-1.2,6-1.8c7.3-2.4,13.9,1.8,18.7,6c11.5,10.9,13.3,29.6,9.1,43.5c-0.6,1.2,1.8,1.8,2.4,0.6
						c7.3-19.9-3.6-58-30.8-52.6c-4.8,1.2-6.6,3-12.7,1.8c-3.6-0.6-7.3-3-10.3-4.8c-3.6-1.8-7.3-3.6-11.5-3.6
						c-12.7-0.6-23.6,3.6-31.4,13.3C534.2,452.8,535.4,453.4,535.4,452.8L535.4,452.8z"/>
				</g>
			</g>
			<g>
				<g>
					<path class="st0" d="M645.4,454c1.8,13.9-4.8,19.9-10.9,30.8c-2.4,3.6-4.8,6.6-6.6,10.9c-1.8,3.6-1.8,8.5-3,12.1
						c-2.4,9.7-16.3,17.5-22.4,24.8c-4.8,6-8.5,12.7-11.5,19.9c-5.4,14.5-3.6,32.6,6.6,44.1c2.4,2.4,4.8,4.2,7.3,5.4
						c1.8,1.2,7.9,1.2,8.5,3.6c1.8,6,4.2,8.5,10.3,11.5c1.8,0.6,3-1.2,1.2-2.4c-5.4-2.4-7.9-6-9.7-12.7c0-0.6-0.6-1.2-1.2-1.2
						c-23.6-1.8-26.6-30.2-20.5-48.3c4.8-15.7,17.5-25.4,28.4-36.3c3-3.6,4.8-6.6,5.4-10.9c0.6-2.4,3-12.1,3-11.5
						c1.8-4.2,4.8-7.3,6.6-11.5C644.1,472.2,648.4,466.7,645.4,454C646,453.4,645.4,453.4,645.4,454L645.4,454z"/>
				</g>
			</g>
			<g>
				<g>
					<path class="st0" d="M542,412.3c7.9-6,14.5-12.1,24.8-12.7c9.1-0.6,14.5,4.8,22.4,6.6c16.3,3,39.3-12.7,52.6,2.4
						c1.2,1.2,3-0.6,2.4-1.8c-10.9-15.7-37.5-3-52-3.6c-4.8,0-9.1-3-13.9-4.8c-4.8-1.8-9.7-1.2-14.5-1.2
						c-9.1,0.6-15.7,7.9-22.4,13.3C540.8,411.7,541.4,412.3,542,412.3L542,412.3z"/>
				</g>
			</g>
			<g>
				<g>
					<path class="st0" d="M625.4,582.2c12.1-16.3,10.3-38.1,9.7-57.4c0-7.3-0.6-14.5,1.2-21.8c1.2-5.4,4.2-10.3,6-15.1
						c4.2-9.7,5.4-18.1,4.2-29c-0.6-4.8-3-9.7-4.2-14.5c-1.8-6.6-1.2-13.9-1.2-20.5c0.6-12.7,6-24.2,12.7-34.4
						c4.2-6,9.7-11.5,16.3-15.7c5.4-3,11.5-2.4,17.5-3c3.6-0.6,6-2.4,9.1-4.8c7.3-7.3,13.3-11.5,24.2-11.5c1.8,0,1.8-3,0-3
						c-10.9,0-15.7,3-23.6,10.3c-6.6,6.6-12.7,6.6-21.2,7.3c-4.8,0.6-9.7,3.6-13.3,6.6c-15.1,10.9-23,33.8-24.2,52
						c-0.6,13.3,4.8,24.8,6,38.1c1.2,12.7-6,24.2-10.3,36.3c-3.6,10.9-0.6,24.8,0,36.3c0.6,15.7,0.6,30.2-8.5,43.5
						C624.2,582.2,624.8,582.8,625.4,582.2L625.4,582.2z"/>
				</g>
			</g>
			<g>
				<g>
					<path class="st0" d="M723.3,243.1c9.1,15.1-9.1,19.3-16.9,26.6c-7.3,6.6-9.1,17.5-16.9,23c-10.3,7.3-23,5.4-28.4,19.3
						c-8.5,21.8,7.3,56.8,33.8,53.8c1.8,0,1.8-2.4,0-2.4c-18.7-1.2-32-16.3-33.8-34.4c-0.6-7.3,1.2-13.9,4.8-19.9
						c4.8-7.9,12.7-8.5,20.5-12.1c3.6-1.8,7.9-3.6,9.7-7.3c5.4-9.7,9.7-18.7,19.9-24.8c9.7-5.4,15.1-12.1,7.9-22.4
						C723.9,241.9,723.3,242.5,723.3,243.1L723.3,243.1z"/>
				</g>
			</g>
			<g>
				<g>
					<path class="st0" d="M725.1,339.8c-3.6,0-6.6,1.8-9.1,4.2c-1.8,1.8-4.8,6-3.6,8.5c0.6,0.6,1.2,0.6,1.8,0c0.6-0.6,0.6-1.8,0.6-3
						c0.6-1.8,1.2-3,2.4-4.2c1.8-2.4,4.8-4.2,7.3-4.2C726.3,341,726.3,339.8,725.1,339.8L725.1,339.8z"/>
				</g>
			</g>
			<g>
				<g>
					<path class="st0" d="M445.9,345.9c4.8-3.6,9.7-7.3,15.1-9.7c6.6-2.4,14.5-1.8,21.8-1.8c7.9-0.6,15.1-5.4,21.8-9.1
						c9.7-4.8,23.6-4.8,34.4-1.8c14.5,4.2,16.3,17.5,16.3,30.2c0,1.2,2.4,1.8,2.4,0.6c1.2-9.1,0-18.1-6-25.4
						c-7.3-9.1-19.9-9.1-29.6-9.1c-14.5,0-23,9.1-36.3,12.7c-7.9,2.4-16.3,0.6-24.8,3c-6,1.8-10.9,6-15.7,10.3
						C444.7,345.9,445.3,346.5,445.9,345.9L445.9,345.9z"/>
				</g>
			</g>
			<g>
				<g>
					<path class="st0" d="M518.4,385.8c9.1-9.7,15.1-18.7,27.2-24.8c16.3-7.9,29.6-7.9,45.9-0.6c1.2,0.6,2.4-1.2,1.2-1.8
						c-9.7-6.6-27.8-9.7-39.3-4.2c-7.3,3.6-14.5,6.6-20.5,12.1c-6,5.4-10.3,13.3-15.7,19.3C517.2,385.2,518.4,386.4,518.4,385.8
						L518.4,385.8z"/>
				</g>
			</g>
			<g>
				<g>
					<path class="st0" d="M663.5,254.6c-6,19.3-25.4,20.5-42.9,18.7c-11.5-1.2-23,2.4-32,10.3c-10.3,8.5-13.9,22.4-23,32
						c-3.6,3.6-7.3,5.4-9.7,10.3c-2.4,4.8-1.8,11.5-1.8,16.3c0,1.8,2.4,1.8,2.4,0c0-9.7,1.2-16.3,8.5-23c4.2-3.6,6.6-7.3,9.1-11.5
						c4.8-6.6,7.3-14.5,13.3-20.5c7.3-6.6,16.3-10.9,26-11.5c7.3-0.6,15.1,0.6,23,1.2c4.2,0,9.7-2.4,13.3-4.2
						C658.7,268.5,661.7,263.7,663.5,254.6C664.1,254,664.1,254,663.5,254.6L663.5,254.6z"/>
				</g>
			</g>
			<g>
				<g>
					<path class="st0" d="M584.3,258.2c-3,4.8-4.2,10.3-4.8,15.7c-0.6,5.4,4.2,9.7,7.9,12.7c1.2,0.6,2.4-0.6,1.2-1.2
						c-3.6-4.2-7.9-6.6-7.9-12.7C581.3,267.9,582.5,263.1,584.3,258.2C584.9,258.2,584.3,258.2,584.3,258.2L584.3,258.2z"/>
				</g>
			</g>
			<g>
				<g>
					<path class="st0" d="M555.3,300.5c-1.2-5.4-3-10.3-7.9-13.3c-5.4-3.6-10.9-4.8-16.3-0.6c-1.2,0.6,0,3,1.2,1.8
						c5.4-3.6,10.3-2.4,15.7,0.6C552.3,291.5,554.1,296.3,555.3,300.5C554.7,301.1,555.3,301.1,555.3,300.5L555.3,300.5z"/>
				</g>
			</g>
			<g>
				<g>
					<path class="st0" d="M681,237.1c-5.4-1.2-7.9-3-13.9-3c-4.8,0-9.1,1.8-12.7,3.6c-3,1.2-2.4,6-8.5,3c-1.8-0.6-3.6-1.8-5.4-1.8
						c-6.6,0-12.1,0.6-18.7,2.4c-1.8,0.6-1.2,3,0.6,2.4c6.6-2.4,15.1-4.2,21.8-1.2c1.2,0.6,3.6,2.4,5.4,1.8
						c5.4-2.4,8.5-6.6,14.5-8.5C670.7,234.1,675,237.1,681,237.1C681,237.7,681,237.1,681,237.1L681,237.1z"/>
				</g>
			</g>
			<g>
				<g>
					<path class="st0" d="M722.1,224.4c1.2,2.4,0,4.2,2.4,6c4.2,3,8.5,5.4,13.9,6.6c5.4,1.2,9.1,1.2,12.7,6.6c1.8,2.4,2.4,4.2,4.2,6
						c1.2,1.2,3,1.8,4.2,2.4c5.4,2.4,10.3,7.3,7.3,13.9c-0.6,1.2,1.2,2.4,1.8,1.2c6-10.3-1.8-14.5-10.3-17.5c-3-1.2-4.8-6-7.3-8.5
						c-1.8-2.4-4.8-3.6-7.3-4.2c-4.2-1.8-8.5-1.2-12.7-3.6C727.5,230.4,725.7,228,722.1,224.4C722.7,223.8,722.1,223.8,722.1,224.4
						L722.1,224.4z"/>
				</g>
			</g>
			<g>
				<g>
					<path class="st0" d="M793.4,229.2c0,6.6,0,12.7-3.6,18.1c-4.2,6-10.9,10.9-16.9,14.5c-9.1,5.4-18.7,10.3-27.8,16.3
						c-10.3,7.3-20.5,24.8-8.5,35.1c1.2,1.2,3-0.6,1.8-1.8c-12.1-10.3,1.2-26,10.3-32c7.3-5.4,14.5-9.1,23-13.3
						c6-3,15.1-9.1,19.3-14.5c5.4-7.9,5.4-12.7,4.8-21.8C795.2,228.6,793.4,228.6,793.4,229.2L793.4,229.2z"/>
				</g>
			</g>
			<g>
				<g>
					<path class="st0" d="M685.2,312.6c1.2,6,9.1,11.5,15.1,9.7c3.6-1.2,6.6-3.6,9.7-6c7.3-6,16.3-7.3,24.8-3.6
						c1.2,0.6,1.8-1.2,1.2-2.4c-5.4-4.2-12.7-3-18.7-1.2c-2.4,0.6-5.4,2.4-7.3,3.6c-6,5.4-19.9,13.3-23.6-0.6
						C686.5,311.4,685.2,312,685.2,312.6L685.2,312.6z"/>
				</g>
			</g>
			<g>
				<g>
					<path class="st0" d="M830.3,234.1c-1.8,0.6-7.3,1.8-8.5,3c-3,3-4.8,7.3-7.9,10.9c-4.8,6-13.3,0-19.3,0c-3.6,0-6.6,1.8-9.7,4.2
						c-1.2,1.2,0.6,3,1.8,1.8c9.1-7.3,17.5,1.2,27.2-2.4c2.4-1.2,4.2-5.4,5.4-7.3c3-4.8,6-6.6,11.5-9.1
						C831.5,235.3,830.9,234.1,830.3,234.1L830.3,234.1z"/>
				</g>
			</g>
			<g>
				<g>
					<path class="st0" d="M770.5,276.4c-6,3.6-7.9,11.5-4.2,17.5c4.2,7.3,15.1,13.9,22.4,16.9c1.2,0.6,2.4-1.8,1.2-2.4
						c-4.8-2.4-9.1-4.8-13.3-7.3c-7.3-5.4-16.3-16.3-5.4-24.2C771.7,277,771.1,276.4,770.5,276.4L770.5,276.4z"/>
				</g>
			</g>
			<g>
				<g>
					<path class="st0" d="M886.5,230.4c-3.6,12.1-10.9,12.7-21.8,15.7c-3.6,1.2-9.1,4.2-12.1,6.6c-2.4,2.4-4.2,4.2-6.6,7.3
						c-4.8,6-9.7,7.3-16.9,8.5c-7.9,1.2-14.5,7.9-21.2,12.1c-13.3,9.7-15.7,21.2-18.1,36.9c-1.2,7.9-1.2,15.7-1.2,23.6
						c0,9.1-0.6,16.3,3,24.2c0.6,1.2,3,0.6,2.4-0.6c-4.8-16.3-3-36.3-0.6-53.2c1.8-10.3,4.2-18.1,11.5-25.4
						c6.6-6.6,17.5-15.1,27.8-16.3c4.8-0.6,7.9-1.2,10.9-4.2c3-2.4,5.4-7.3,8.5-10.3c3-3.6,6-2.4,9.1-5.4c4.8-4.2,13.3-4.8,19.3-7.9
						C884.7,240.7,885.9,235.3,886.5,230.4L886.5,230.4L886.5,230.4z"/>
				</g>
			</g>
			<g>
				<g>
					<path class="st0" d="M806.7,388.8c-3.6-9.7-11.5-16.9-15.7-26.6c-0.6-1.2-1.8-0.6-1.8,0.6c1.2,4.8,3.6,9.1,6.6,12.7
						c3.6,4.2,6.6,9.1,9.1,13.9C805.5,390,806.7,390,806.7,388.8L806.7,388.8z"/>
				</g>
			</g>
			<g>
				<g>
					<path class="st0" d="M716.1,522.3c-7.9-18.1-11.5-34.4-6.6-53.8c3.6-13.9,2.4-28.4,2.4-42.3c0-17.5,11.5-33.8,23-46.5
						c6-6.6,12.7-11.5,20.5-15.7c12.1-6.6,21.8-4.8,32.6,1.8c1.8,1.2,3-1.8,1.2-2.4c-7.3-4.2-13.9-7.3-22.4-6
						c-7.3,0.6-15.7,6-21.2,10.3c-13.3,9.1-25.4,24.2-31.4,39.3c-7.9,20.5-2.4,41.1-6.6,61.6C703.4,487.9,706.4,504.8,716.1,522.3
						C716.1,522.9,716.1,522.9,716.1,522.3L716.1,522.3z"/>
				</g>
			</g>
			<g>
				<g>
					<path class="st0" d="M707.6,505.4c-7.9,15.1-20.5,30.2-18.7,48.3c1.8,15.7,17.5,13.3,29,10.3c9.7-2.4,19.3-4.8,29-6
						c9.1-1.2,16.9-3.6,23.6-9.7c12.1-10.3,14.5-29.6,14.5-44.1c0-1.8-3-1.8-3,0c-0.6,12.7-2.4,24.8-9.1,35.7
						c-9.7,15.7-28.4,13.9-43.5,17.5c-13.9,3.6-37.5,15.1-38.7-8.5C690.1,533.2,701.6,518.7,707.6,505.4
						C708.8,504.8,708.2,504.8,707.6,505.4L707.6,505.4z"/>
				</g>
			</g>
			<g>
				<g>
					<path class="st0" d="M768,490.9c6.6,10.3,16.3,10.9,26.6,15.7c9.7,4.8,14.5,16.3,25.4,19.3c1.2,0,1.8-1.2,0.6-1.8
						c-8.5-4.8-15.1-12.1-23-18.1c-3-2.4-6.6-3-10.3-4.2C780.1,500,772.9,496.3,768,490.9C768,490.3,767.4,490.9,768,490.9
						L768,490.9z"/>
				</g>
			</g>
			<g>
				<g>
					<path class="st0" d="M735.4,461.9c7.9,3.6,15.1,6,24.2,3.6c9.7-2.4,18.1-9.1,23-17.5c0.6-1.2-1.2-2.4-1.8-1.2
						c-9.7,16.3-27.2,21.2-44.7,14.5C735.4,461.3,734.8,461.9,735.4,461.9L735.4,461.9z"/>
				</g>
			</g>
			<g>
				<g>
					<path class="st0" d="M764.4,422.6c3-1.8,6-4.2,10.3-4.8c4.8-0.6,9.1,2.4,12.7,4.8c0.6,0.6,1.8-0.6,1.2-1.2
						c-3.6-3.6-7.3-5.4-12.1-5.4C771.1,416,767.4,419,764.4,422.6C763.8,422,763.8,422.6,764.4,422.6L764.4,422.6z"/>
				</g>
			</g>
			<g>
				<g>
					<path class="st0" d="M764.4,385.8c9.7,0.6,15.7,6.6,19.9,14.5c3,5.4,4.8,14.5,1.2,19.9c-0.6,1.2,0.6,2.4,1.8,1.2
						c4.8-5.4,1.8-15.7-0.6-21.8C781.9,391.8,774.1,385.2,764.4,385.8C763.8,385.2,763.8,385.2,764.4,385.8L764.4,385.8z"/>
				</g>
			</g>
			<g>
				<g>
					<path class="st0" d="M786.8,421.4c16.3-2.4,32,7.9,39.9,21.2c1.8,3,4.2,4.8,7.3,6.6c7.3,4.8,11.5,10.3,16.9,16.9
						c6.6,9.1,4.8,23,6.6,33.8c1.8,10.9,6.6,16.3,15.1,22.4c1.2,0.6,2.4-1.2,1.8-1.8c-7.3-6-12.1-11.5-14.5-21.2
						c-1.8-6.6-1.8-14.5-2.4-21.8c-0.6-3-0.6-7.9-2.4-10.3c-3.6-4.2-7.3-13.3-12.1-15.7c-7.3-4.2-12.7-7.3-17.5-14.5
						c-2.4-3.6-5.4-6-9.1-8.5c-9.7-6-18.7-10.3-30.2-8.5C785.6,420.2,785.6,421.4,786.8,421.4L786.8,421.4z"/>
				</g>
			</g>
			<g>
				<g>
					<path class="st0" d="M908.8,423.8c-6-3.6-11.5-9.1-18.7-6c-0.6,0.6-6.6,4.8-6,4.2c-6.6,4.2-6.6-0.6-10.3-1.8
						c-3-0.6-5.4,0.6-7.9,1.8c-15.1,7.9-24.8,28.4-15.7,43.5c0.6,1.2,3,0,2.4-1.2c-4.8-9.7-3-15.1,0-24.2c3-8.5,13.9-21.2,24.2-15.7
						c3,1.8,6,0.6,8.5-0.6c0.6-0.6,6.6-4.8,6-4.2c4.8-3.6,12.7,3,16.9,5.4C908.8,426.2,910.1,424.4,908.8,423.8L908.8,423.8z"/>
				</g>
			</g>
			<g>
				<g>
					<path class="st0" d="M870.2,422.6c-9.7-12.7-12.7-25.4-13.9-41.7c-1.2-14.5-3-28.4,0-42.9c3-13.9,13.3-24.2,25.4-30.2
						c15.1-7.9,29-6.6,44.7-3c10.3,2.4,21.2,4.8,32,3c13.9-2.4,27.2-6,41.7-4.8c13.9,1.2,27.2-0.6,40.5-1.2
						c17.5-1.2,24.8,7.9,27.8,24.2c0.6,1.8,3,1.2,3-0.6c-1.8-9.1-4.2-17.5-12.7-23c-11.5-7.9-31.4-1.2-44.1-0.6
						c-8.5,0.6-16.9-1.2-25.4-1.2c-7.3,0-14.5,1.8-21.2,3.6c-19.9,4.2-35.7-1.2-55-3.6c-26-3-51.4,12.7-58.6,37.5
						c-4.8,15.7-1.2,34.4,0,50.8c1.2,13.9,5.4,24.8,14.5,35.7C869.6,425,870.8,423.8,870.2,422.6L870.2,422.6z"/>
				</g>
			</g>
			<g>
				<g>
					<path class="st0" d="M875.6,243.7c-1.2-3.6-3.6-6-4.8-9.7c-1.2-3.6,2.4-6.6,3.6-9.7c0-0.6-1.2-1.8-1.8-0.6
						c-1.2,3-3.6,5.4-4.2,8.5c-0.6,4.2,3.6,8.5,5.4,12.1C874.4,244.9,876.2,244.9,875.6,243.7L875.6,243.7z"/>
				</g>
			</g>
			<g>
				<g>
					<path class="st0" d="M905.8,220.8c9.7,3.6,13.3,8.5,16.3,18.1c1.2,3.6,3.6,5.4,6.6,7.3c6,4.2,13.3,4.8,18.7,9.7
						c6.6,5.4,7.9,18.1,3,24.2c-1.2,1.2,1.2,2.4,2.4,1.2c8.5-11.5,0-26-10.9-32c-3.6-2.4-8.5-2.4-12.7-4.8c-5.4-3-5.4-8.5-6.6-13.3
						c-1.8-6-10.9-9.7-16.3-11.5C905.8,219.6,905.2,220.2,905.8,220.8L905.8,220.8z"/>
				</g>
			</g>
			<g>
				<g>
					<path class="st0" d="M1001.3,275.2c-5.4-4.8-10.9-7.3-18.1-7.3c-11.5-0.6-16.3,10.9-26.6,12.1c-7.3,1.2-15.1-0.6-21.8,4.8
						c-4.2,3.6-10.9,10.3-10.3,16.3c0,1.2,2.4,1.8,2.4,0c-1.2-7.9,10.3-15.7,16.3-17.5c6-1.8,12.7-0.6,18.7-2.4
						c4.2-1.2,7.9-6,11.5-8.5C982,266.7,992.8,270.3,1001.3,275.2C1001.3,276.4,1001.3,275.8,1001.3,275.2L1001.3,275.2z"/>
				</g>
			</g>
			<g>
				<g>
					<path class="st0" d="M1014.6,255.8c0,3,0,5.4-3.6,7.3c-2.4,1.2-5.4,2.4-7.9,3.6c-4.8,1.8-9.1-0.6-13.3,3.6
						c-0.6,0.6,0,1.8,1.2,1.2c3.6-2.4,6.6-1.2,10.3-2.4c3-0.6,5.4-2.4,7.9-3c5.4-2.4,6.6-4.2,6.6-9.7
						C1015.8,254.6,1014.6,254.6,1014.6,255.8L1014.6,255.8z"/>
				</g>
			</g>
			<g>
				<g>
					<path class="st0" d="M1000.7,278.8c2.4,0.6,4.8,0.6,7.3,0.6c4.2,0,7.9,3.6,10.3,6c4.8,4.8,5.4,11.5,8.5,16.9
						c0.6,1.2,2.4,0,1.8-0.6c-2.4-6-4.2-12.7-9.7-17.5c-1.8-1.8-4.2-3.6-6.6-4.8C1009.2,278.2,1005.5,278.8,1000.7,278.8
						C1000.7,278.2,1000.7,278.8,1000.7,278.8L1000.7,278.8z"/>
				</g>
			</g>
			<g>
				<g>
					<path class="st0" d="M1029.1,242.5c-3,2.4-6,4.2-10.3,4.2c-4.8,0.6-7.3-2.4-9.7-5.4c-2.4-3-5.4-4.8-9.7-4.8
						c-1.2,0-1.2,2.4,0,2.4c7.9,0.6,9.1,8.5,15.7,9.7C1020.6,249.2,1026.1,246.2,1029.1,242.5
						C1030.3,242.5,1029.7,241.9,1029.1,242.5L1029.1,242.5z"/>
				</g>
			</g>
			<g>
				<g>
					<path class="st0" d="M1020.6,268.5c9.1-1.2,16.9-1.2,25.4,2.4c4.8,2.4,7.3,8.5,11.5,12.1c1.2,1.2,5.4,1.2,7.3,1.2
						c10.3-1.8,18.1-3,27.8,1.8c1.2,0.6,2.4-1.2,1.2-1.8c-4.2-1.8-8.5-3.6-13.3-4.2c-9.7-1.2-19.3,6-26.6-3
						c-8.5-10.9-20.5-11.5-33.8-9.7C1019.4,267.3,1019.4,268.5,1020.6,268.5L1020.6,268.5z"/>
				</g>
			</g>
			<g>
				<g>
					<path class="st0" d="M1102.8,329.6c-1.2-3-2.4-6.6-3-9.7c-4.2-12.1,9.1-12.1,14.5-12.1c3,0,6.6-0.6,9.1-2.4
						c2.4-2.4,4.8-5.4,4.8-9.1c0-6.6-6-12.1-4.8-18.7c0-1.8-2.4-1.8-2.4,0c-0.6,6.6,4.2,9.7,5.4,15.7c1.8,13.9-12.7,11.5-20.5,13.3
						c-12.1,2.4-5.4,15.1-3,22.4C1102.2,330.2,1102.8,330.2,1102.8,329.6L1102.8,329.6z"/>
				</g>
			</g>
			<g>
				<g>
					<path class="st0" d="M1145.7,327.1c-0.6-3.6,0-7.3-1.2-10.9c-0.6-3-3.6-5.4-4.8-8.5c-2.4-4.2-7.9-8.5-12.7-8.5
						c-1.2,0-1.2,1.8,0,2.4c6.6,0.6,10.3,6.6,13.9,11.5c3,4.2,2.4,9.1,4.2,14.5C1145.1,327.7,1145.7,327.7,1145.7,327.1
						L1145.7,327.1z"/>
				</g>
			</g>
			<g>
				<g>
					<path class="st0" d="M1128.8,391.8c3.6-8.5,3.6-19.9-0.6-28.4c-1.8-4.2-4.2-7.3-7.3-10.3c-5.4-5.4-9.7-11.5-13.3-18.7
						c-8.5-15.7-27.2-21.2-40.5-8.5c-12.7,12.1-10.3,36.9-11.5,52.6c-1.8,15.1-1.2,30.2-3,45.9c-1.8,16.3,6,32.6,1.8,48.3
						c-0.6,1.8,2.4,2.4,3,0.6c2.4-7.9,1.2-15.1,0-23c-2.4-13.3-1.8-24.8-0.6-38.1c1.2-20.5,2.4-40.5,4.2-60.4
						c0.6-8.5,2.4-17.5,8.5-24.2c10.3-12.1,26.6-6,35.1,4.8c5.4,7.3,7.9,15.7,15.1,21.8C1130,363.4,1131.8,379.1,1128.8,391.8
						C1128.2,392.4,1128.8,392.4,1128.8,391.8L1128.8,391.8z"/>
				</g>
			</g>
			<g>
				<g>
					<path class="st0" d="M903.4,376.1c21.8,0.6,36.9,17.5,43.5,36.3c3,8.5,3,18.1,3,26.6c0,4.2-2.4,7.9-2.4,12.1
						c0,4.8-0.6,8.5-2.4,12.7c-0.6,1.2,1.2,1.8,1.8,0.6c4.2-6.6,4.8-17.5,5.4-25.4c0.6-9.1-1.2-22.4-4.8-30.8
						C939.7,390.6,924.6,375.5,903.4,376.1C902.8,375.5,902.8,376.1,903.4,376.1L903.4,376.1z"/>
				</g>
			</g>
			<g>
				<g>
					<path class="st0" d="M959.6,328.9c7.9-4.2,15.1-2.4,18.7,5.4c1.2,2.4,2.4,4.8,4.8,6c2.4,1.2,4.8,2.4,7.9,2.4
						c3,0,8.5,0,10.9,1.2c4.2,1.8,6.6,6.6,9.1,10.3c0.6,1.2,2.4,0,1.8-1.2c-2.4-6-6-9.7-12.1-12.1c-7.9-3-15.1,1.8-20.5-7.9
						C974.7,324.7,968.7,322.9,959.6,328.9C959,328.3,959,328.9,959.6,328.9L959.6,328.9z"/>
				</g>
			</g>
			<g>
				<g>
					<path class="st0" d="M1032.7,359.8c-1.2,6.6-1.2,13.3-3.6,19.9c-3.6,8.5-11.5,12.7-19.9,15.1c-10.9,3-23,5.4-32,13.3
						c-7.9,6.6-11.5,18.1-13.3,28.4c-0.6,3.6-12.7,13.3-15.7,16.9c-2.4,3-4.2,6-4.8,9.7c0,1.2,2.4,1.8,2.4,0.6
						c2.4-12.1,16.3-15.1,20.5-26.6c2.4-6,3-12.1,6-18.1c4.8-9.7,12.7-13.9,23-17.5c9.7-3,20.5-5.4,28.4-12.1
						c9.1-7.3,9.1-18.7,10.3-29C1034.5,359.2,1032.7,359.2,1032.7,359.8L1032.7,359.8z"/>
				</g>
			</g>
			<g>
				<g>
					<path class="st0" d="M1049.7,386.4c-2.4-9.1-15.7-8.5-20.5-1.8c-0.6,0.6,0.6,1.8,1.2,1.2
						C1035.8,382.1,1045.4,377.3,1049.7,386.4C1049,387,1049.7,387,1049.7,386.4L1049.7,386.4z"/>
				</g>
			</g>
			<g>
				<g>
					<path class="st0" d="M907,456.5c-6,6.6-6.6,16.9-6,25.4c0.6,7.3,6.6,12.1,13.3,14.5c1.2,0.6,1.8-1.8,0.6-2.4
						c-7.9-3-11.5-7.9-12.7-16.3C901.6,470.4,902.8,462.5,907,456.5C907.6,456.5,907,456.5,907,456.5L907,456.5z"/>
				</g>
			</g>
			<g>
				<g>
					<path class="st0" d="M953,465.5c-12.7-0.6-30.8,2.4-36.3,16.3c-4.2,10.3-6,23,5.4,29c1.8,0.6,3-1.8,1.2-2.4
						c-10.9-6-8.5-18.7-4.2-28.4c5.4-10.9,23-13.9,33.2-13.9C953.6,466.1,953.6,465.5,953,465.5L953,465.5z"/>
				</g>
			</g>
			<g>
				<g>
					<path class="st0" d="M916.7,506c-7.9-3.6-10.9-3.6-19.3-2.4c-7.3,1.2-10.3,10.3-16.9,12.7c-10.3,3.6-22.4,13.9-13.9,25.4
						c0.6-0.6,1.2-1.2,1.8-1.8c-4.8-5.4-12.7-7.9-19.9-4.8c-4.8,1.8-12.7,5.4-13.9,11.5c0,1.2,1.8,1.2,2.4,0.6
						c4.8-10.9,21.8-12.1,29-4.8c1.2,1.2,3-0.6,1.8-1.8c-10.3-14.5,9.1-19.3,17.5-23.6c0.6-0.6,1.8-0.6,2.4-1.8
						c4.8-11.5,17.5-12.7,27.2-7.9C916.7,507.8,917.3,506.6,916.7,506L916.7,506z"/>
				</g>
			</g>
			<g>
				<g>
					<path class="st0" d="M771.1,545.9c9.1-6.6,18.1-12.7,29-16.3c15.1-4.8,33.2,0,35.7,17.5c0,1.2,2.4,1.2,2.4-0.6
						c0-14.5-12.1-18.7-24.2-20.5c-15.7-2.4-32,9.7-43.5,18.7C769.2,544.7,770.5,545.9,771.1,545.9L771.1,545.9z"/>
				</g>
			</g>
			<g>
				<g>
					<path class="st0" d="M933.6,495.1c6.6-1.2,12.7-3,19.3-1.2c6,1.8,12.7,6,17.5,9.7c6,4.2,13.3,8.5,15.7,15.7
						c1.8,4.2,0,10.3,0,15.1c0,1.8,2.4,1.8,3,0c0-6,1.2-12.1-1.2-18.1c-1.8-6-9.1-9.1-13.9-12.7c-6.6-4.8-13.9-9.1-21.2-11.5
						c-6.6-2.4-13.3,0-19.9,1.8C933,494.5,933,495.1,933.6,495.1L933.6,495.1z"/>
				</g>
			</g>
			<g>
				<g>
					<path class="st0" d="M977.7,484.9c11.5,1.8,15.7-6,23.6-12.1c4.8-4.2,9.1-10.9,11.5-16.9c4.2-12.7,17.5-18.1,30.2-17.5
						c1.8,0,1.8-2.4,0-2.4c-12.7-0.6-22.4,3.6-30.2,14.5c-2.4,3-3,7.3-4.8,10.9c-2.4,4.8-6,9.1-9.7,12.7
						C991.6,480,988,486.1,977.7,484.9C977.1,483.7,977.1,484.3,977.7,484.9L977.7,484.9z"/>
				</g>
			</g>
			<g>
				<g>
					<path class="st0" d="M982,512.7c12.7-8.5,21.8-22.4,36.3-27.8c5.4-2.4,10.9-2.4,16.3-4.8c6-2.4,12.7-6.6,19.9-5.4
						c10.9,1.8,5.4,23.6,4.2,29c-1.8,7.9-6,15.1-10.3,22.4c-9.7,15.7-24.2,29.6-42.3,35.1c-14.5,4.2-32,2.4-47.1,3
						c-14.5,0.6-27.8,0.6-41.7,6c-12.1,4.8-21.8,15.1-33.2,21.2c-6,3.6-13.3,3.6-19.9,6.6c-5.4,2.4-9.7,6-13.9,10.3
						c-1.2,1.2,0.6,3.6,2.4,2.4c11.5-12.7,29.6-13.9,43.5-23.6c8.5-6,15.7-11.5,25.4-15.7c9.7-3.6,19.9-4.2,30.2-4.2
						c16.9,0,35.7,0,52.6-3c15.7-3,29-13.3,38.7-25.4c10.3-11.5,17.5-26,20.5-41.1c1.8-8.5,2.4-21.8-7.3-25.4
						c-4.2-1.8-9.7,0.6-13.3,1.8c-7.3,2.4-13.9,4.8-21.2,7.3c-16.3,5.4-25.4,20.5-39.3,29.6C980.2,512.1,981.4,513.3,982,512.7
						L982,512.7z"/>
				</g>
			</g>
			<g>
				<g>
					<path class="st0" d="M812.2,550.1c-6,5.4-9.7,7.3-9.1,15.7c0.6,7.3,6.6,12.7,11.5,16.9c6,4.8,13.9,7.9,20.5,12.1
						c7.9,4.8,12.7,9.1,21.8,8.5c1.8,0,1.8-3,0-3c-12.1-0.6-20.5-9.1-30.8-14.5c-4.8-3-9.7-4.8-13.9-8.5s-6.6-8.5-7.3-13.9
						c-0.6-4.2,5.4-9.7,8.5-12.7C812.8,550.1,812.2,549.5,812.2,550.1L812.2,550.1z"/>
				</g>
			</g>
			<g>
				<g>
					<path class="st0" d="M761.4,584.6c4.2-1.2,7.9-2.4,12.1-4.2c5.4-1.8,12.1-0.6,17.5-0.6c8.5,0,22.4-1.8,29,5.4
						c1.2,1.2,2.4-0.6,1.8-1.8c-4.2-4.8-14.5-6-21.2-6c-7.3,0-14.5,0.6-21.8,1.2C773.5,578.5,767.4,582.8,761.4,584.6L761.4,584.6
						L761.4,584.6z"/>
				</g>
			</g>
			<g>
				<g>
					<path class="st0" d="M842.4,634.1c4.2,1.8,9.7-0.6,10.9-4.8c0.6-2.4,1.2-6.6,0.6-9.1c-0.6-1.8-4.2-9.1-1.8-10.9
						c1.2-1.2-0.6-2.4-1.8-1.8c-3,2.4-0.6,4.8,0,7.9c0,1.2,1.2,3,1.8,4.2c0.6,1.8,0,2.4,0,4.8c0,5.4-3.6,10.9-9.1,9.1
						C841.8,632.9,841.8,633.5,842.4,634.1L842.4,634.1z"/>
				</g>
			</g>
			<g>
				<g>
					<path class="st0" d="M859.3,638.4c-2.4-4.8-4.8-9.7-4.8-15.7c0-1.2-1.2-1.2-1.2,0c0,6,3,10.9,5.4,16.3
						C859.3,639.6,859.9,639,859.3,638.4L859.3,638.4z"/>
				</g>
			</g>
			<g>
				<g>
					<path class="st0" d="M896.8,521.1c-4.2,10.9-0.6,19.3,6.6,27.8c4.8,5.4,10.3,8.5,15.7,13.9c3.6,3.6,7.9,5.4,12.7,6
						c1.2,0,1.8-2.4,0.6-2.4c-5.4-0.6-9.1-3.6-13.3-7.3c-3-3-7.3-4.8-10.9-7.3C899.2,544.1,893.7,532.6,896.8,521.1
						C897.4,521.1,896.8,520.5,896.8,521.1L896.8,521.1z"/>
				</g>
			</g>
			<g>
				<g>
					<path class="st0" d="M755.9,558.6c-14.5,8.5-21.8,22.4-17.5,39.3c0,1.2,1.8,0.6,1.8,0c0-4.8,0-1.8-1.2-7.9
						c-0.6-4.8,1.8-10.9,3.6-15.1c3-6.6,7.9-10.9,13.9-14.5C757.8,559.8,757.2,558.6,755.9,558.6L755.9,558.6z"/>
				</g>
			</g>
			<g>
				<g>
					<path class="st0" d="M757.8,585.8c-15.7,5.4-23.6,23-23,38.7c0,1.2,1.8,1.2,1.8,0c0.6-7.3,0.6-16.3,4.8-22.4
						c3.6-5.4,9.7-12.7,16.3-15.1C758.4,586.4,758.4,585.2,757.8,585.8L757.8,585.8z"/>
				</g>
			</g>
			<g>
				<g>
					<path class="st0" d="M757.8,611.8c-6.6,1.8-12.7,3.6-18.7,7.9c-6.6,4.2-7.9,12.7-11.5,19.3c-8.5,18.7-29.6,24.8-38.1,42.9
						c-5.4,11.5-1.8,24.2,6,33.2c10.9,13.3,29,7.3,42.9,3c1.8-0.6,1.2-3.6-0.6-3c-16.3,4.8-31.4,10.9-42.9-6
						c-9.1-13.3-3-30.2,8.5-39.9c9.7-7.9,18.7-14.5,25.4-25.4c3.6-6.6,4.8-14.5,9.7-20.5c4.8-6,12.7-8.5,19.3-10.3
						C758.4,612.4,758.4,611.8,757.8,611.8L757.8,611.8z"/>
				</g>
			</g>
			<g>
				<g>
					<path class="st0" d="M676.2,643.2c11.5-9.1,12.7-21.8,13.9-35.7c1.2-12.1,5.4-21.8,13.9-31.4c8.5-9.7,26-18.7,36.3-6.6
						c1.2,1.2,3-0.6,1.8-1.8c-12.1-14.5-33.2-2.4-42.3,9.7c-6.6,8.5-10.3,16.9-11.5,27.8C687.1,619.6,687.7,632.9,676.2,643.2
						C675,642.6,675.6,643.2,676.2,643.2L676.2,643.2z"/>
				</g>
			</g>
			<g>
				<g>
					<path class="st0" d="M567.4,735.1c0-9.7-1.2-19.3-1.2-29.6c0-12.7,7.9-20.5,18.7-26c4.2-2.4,6.6-10.3,8.5-14.5
						c1.8-4.8,3-9.1,5.4-13.9s7.3-7.3,10.9-10.9c1.8-1.8,3-6,3.6-7.3c1.8-4.2,4.2-7.3,7.9-10.3c9.1-7.9,18.7-10.3,30.2-12.1
						c9.1-1.8,18.7,0,27.8-3.6c6-2.4,10.9-6.6,14.5-12.1c1.2-1.8-1.8-3-2.4-1.8c-8.5,12.1-19.9,12.7-33.8,12.7
						c-3.6,0-7.9,2.4-11.5,2.4c-4.2,0.6-8.5,2.4-12.1,4.2c-16.3,6-20.5,21.8-32.6,32.6c-4.8,4.8-6.6,12.7-9.1,19.3
						c-3.6,10.3-9.7,13.3-16.9,19.3C560.1,696.4,566.8,718.7,567.4,735.1C565.6,736.3,567.4,736.3,567.4,735.1L567.4,735.1z"/>
				</g>
			</g>
			<g>
				<g>
					<path class="st0" d="M625.4,735.1c-5.4-8.5-1.2-16.9,6.6-22.4c1.2-0.6,2.4-2.4,3.6-3.6c1.2-2.4,1.2-3,1.2-6
						c0-7.3,0.6-12.7,7.9-16.9c14.5-8.5,39.3,1.8,46.5,15.1c0.6,1.2,1.8,0,1.8-0.6c-3-16.9-33.2-23-47.1-17.5
						c-4.2,1.8-7.3,4.2-9.7,7.9c-4.8,7.3,3,14.5-6.6,21.2C620.6,718.1,618.8,726.6,625.4,735.1C624.8,735.7,625.4,735.1,625.4,735.1
						L625.4,735.1z"/>
				</g>
			</g>
			<g>
				<g>
					<path class="st0" d="M594.6,719.3c-6,11.5,0,23,7.9,32c9.1,10.9,23,12.7,36.3,13.3c1.8,0,1.8-3,0-3c-10.3,0-19.9-1.2-29-6.6
						C599.4,747.8,590.4,732,594.6,719.3C595.2,719.3,595.2,718.7,594.6,719.3L594.6,719.3z"/>
				</g>
			</g>
			<g>
				<g>
					<path class="st0" d="M695.5,829.9c-10.3-0.6-20.5-0.6-29.6-6c-6.6-3.6-11.5-10.9-17.5-15.7c-13.3-10.3-15.1-30.2-7.9-44.7
						c0.6-1.2-1.2-2.4-1.8-1.2c-9.7,13.3-5.4,32,4.2,44.1c2.4,3.6,6.6,5.4,9.7,7.9c3.6,3,5.4,6.6,9.7,9.7
						c10.3,7.3,21.8,7.3,33.2,6.6C695.5,830.5,695.5,829.9,695.5,829.9L695.5,829.9z"/>
				</g>
			</g>
			<g>
				<g>
					<path class="st0" d="M632.7,793.1c-2.4,3.6-10.3,2.4-13.3,1.8c-6.6-0.6-12.1-4.8-16.3-9.1c-1.2-1.2-3,0.6-1.8,1.8
						c6,5.4,11.5,9.1,19.9,9.7c3.6,0,10.9,0.6,12.7-3.6C633.3,793.1,632.7,792.5,632.7,793.1L632.7,793.1z"/>
				</g>
			</g>
			<g>
				<g>
					<path class="st0" d="M649,815.4c0,3.6,0,6.6,1.2,9.7c1.2,3,5.4,6,7.9,7.9c1.2,0.6,1.8-0.6,1.2-1.2c-1.8-2.4-4.2-3.6-6.6-6
						c-2.4-3-2.4-6.6-2.4-10.3C650.2,814.8,649,814.8,649,815.4L649,815.4z"/>
				</g>
			</g>
			<g>
				<g>
					<path class="st0" d="M646.6,745.3c-4.8,5.4-1.8,13.9,1.8,18.7c4.8,7.3,13.9,7.9,22.4,7.9c1.2,0,1.2-2.4,0-2.4
						c-7.3,0-13.3-0.6-19.3-4.8c-4.8-3.6-8.5-13.3-4.2-18.7C647.8,745.3,647.2,744.7,646.6,745.3L646.6,745.3z"/>
				</g>
			</g>
			<g>
				<g>
					<path class="st0" d="M817,775.5c-8.5,9.1-12.7,1.2-20.5,2.4c-5.4,0.6-9.7,3-14.5,6c-7.9,4.8-15.1,3-23.6,2.4
						c-5.4-0.6-9.7,1.8-14.5,4.2c-13.9,7.3-35.7,10.9-51.4,6c-13.3-4.2-30.2-9.7-31.4-26c0-2.4-3.6-2.4-3.6,0
						c1.2,29.6,45.3,33.2,66.5,29c10.3-1.8,18.7-7.3,29-10.3c7.9-2.4,16.3,3,24.2-0.6c3.6-1.8,7.3-4.2,10.9-6.6
						c7.3-4.2,11.5-1.2,18.1,0c5.4,0.6,7.9-1.8,10.9-5.4C818.8,776.2,817.6,774.9,817,775.5L817,775.5z"/>
				</g>
			</g>
			<g>
				<g>
					<path class="st0" d="M639.3,732.6c14.5-6.6,18.7,10.9,31.4,11.5c9.7,0.6,18.1-6,23.6-13.3c1.2-1.2-1.2-3-2.4-1.8
						c-4.2,5.4-8.5,9.1-15.1,11.5c-9.7,3-13.3-2.4-19.9-6.6C651.4,730.2,644.8,729.6,639.3,732.6L639.3,732.6L639.3,732.6z"/>
				</g>
			</g>
			<g>
				<g>
					<path class="st0" d="M701,762.3c-3-2.4-6.6-4.8-9.1-7.9c-5.4-6-3.6-13.3-1.2-19.9c0.6-1.2-1.2-1.8-1.8-0.6
						c-3,4.8-4.8,10.9-1.8,16.3c3,6,7.9,9.1,13.9,13.3C700.3,763.5,701,762.9,701,762.3L701,762.3z"/>
				</g>
			</g>
			<g>
				<g>
					<path class="st0" d="M725.7,753.2c-3-9.7-6-19.3,1.8-28.4c6.6-7.9,19.3-9.1,28.4-6c8.5,3,19.3,1.8,27.8,5.4
						c7.3,3,13.9,7.9,21.2,12.1c3.6,2.4,7.9,2.4,11.5,2.4c9.1-0.6,14.5,2.4,21.2,9.1c3.6,3.6,7.3,7.3,12.1,9.7
						c6.6,3.6,15.1,4.8,22.4,7.9c1.8,0.6,3-1.2,1.2-2.4c-8.5-5.4-19.3-5.4-27.8-12.1c-5.4-4.2-9.7-9.7-15.7-13.3
						c-7.3-4.2-15.7,0-23-3.6c-7.9-3.6-15.7-12.7-24.8-13.9c-10.3-1.2-20.5-3.6-30.8-5.4c-5.4-0.6-13.3,0-18.1,3
						c-14.5,8.5-12.7,21.8-7.9,35.7C724.5,754.4,725.7,754.4,725.7,753.2L725.7,753.2z"/>
				</g>
			</g>
			<g>
				<g>
					<path class="st0" d="M799.5,831.8c4.2-5.4,14.5-8.5,20.5-8.5c6.6,0,12.7,0,18.7-3c1.2-0.6,0-2.4-0.6-1.8
						c-8.5,1.8-16.9,1.2-25.4,3.6C807.9,823.3,801.9,827.5,799.5,831.8C798.9,831.8,799.5,831.8,799.5,831.8L799.5,831.8z"/>
				</g>
			</g>
			<g>
				<g>
					<path class="st0" d="M790.4,824.5c4.2-1.8,7.9-3.6,12.7-3.6s9.1,2.4,13.3,3c7.3,0.6,13.9,1.8,20.5-1.2c1.2-0.6,0.6-2.4-0.6-1.8
						c-7.9,2.4-15.7,0.6-23.6,0c-5.4,0-9.1-1.8-14.5-0.6C795.2,820.9,792.8,823.3,790.4,824.5C789.8,823.9,789.8,825.1,790.4,824.5
						L790.4,824.5z"/>
				</g>
			</g>
			<g>
				<g>
					<path class="st0" d="M771.1,687.9c6.6-6,12.1-13.3,19.3-18.1c9.1-6,26.6-7.9,35.7-1.8c7.3,4.2,9.7,10.3,18.7,11.5
						c11.5,2.4,20.5-1.8,30.2,6.6c1.2,1.2,3.6-0.6,2.4-2.4c-7.9-7.3-15.7-7.3-26-7.3c-9.1,0-14.5-3.6-21.2-9.7
						c-2.4-1.8-6-4.2-9.1-4.8c-10.3-1.2-19.9,0.6-29,4.2C783.1,670.4,777.7,680.7,771.1,687.9C770.5,687.9,770.5,687.9,771.1,687.9
						L771.1,687.9z"/>
				</g>
			</g>
			<g>
				<g>
					<path class="st0" d="M813.4,637.2c-1.2,10.3,3.6,24.2,13.3,29.6c1.2,0.6,1.8-0.6,1.2-1.2c-7.9-7.3-13.9-17.5-13.3-28.4
						C814,636.6,813.4,636.6,813.4,637.2L813.4,637.2z"/>
				</g>
			</g>
			<g>
				<g>
					<path class="st0" d="M810.3,616.6c12.7,19.3-13.9,35.7-30.2,23.6c-1.2-0.6-1.8,0.6-1.2,1.8c6.6,7.3,19.3,6,27.2,1.2
						c4.8-2.4,7.3-7.3,9.1-12.7c1.8-6,0-9.7-3.6-15.1C810.9,615.4,809.7,616,810.3,616.6L810.3,616.6z"/>
				</g>
			</g>
			<g>
				<g>
					<path class="st0" d="M766.8,647.4c4.2,1.2,9.1,3.6,13.3,2.4c4.8-1.2,9.7,0,13.9-3c1.2-0.6,0-2.4-1.2-1.8
						c-7.9,3.6-18.1,3-25.4,0.6C765.6,645.6,765.6,646.8,766.8,647.4L766.8,647.4z"/>
				</g>
			</g>
			<g>
				<g>
					<path class="st0" d="M761.4,670.4c5.4,1.8,10.3,3,16.3,3c3.6,0,7.3-2.4,10.3-3.6c1.2-0.6,0-1.8-0.6-1.8c-3,1.2-5.4,2.4-8.5,3.6
						C773.5,673.4,766.8,671,761.4,670.4C761.4,669.8,761.4,670.4,761.4,670.4L761.4,670.4z"/>
				</g>
			</g>
			<g>
				<g>
					<path class="st0" d="M882.9,744.1c1.2-7.3,7.9-12.1,7.3-19.3c0-2.4-1.8-4.8-3-7.3c-3-4.8-5.4-9.1-7.3-15.1
						c-9.1-31.4,24.8-52,48.3-62.9c13.3-6,26.6-12.7,41.7-14.5c13.9-1.8,27.8,0.6,41.7-1.2c9.7-1.2,18.7-6,28.4-7.9
						c13.3-2.4,26.6-1.2,39.9-4.8c1.8-0.6,1.2-3-0.6-3c-13.3,3-26.6,3-39.9,4.8c-4.8,0.6-10.3,2.4-15.1,4.8
						c-8.5,3.6-18.1,4.2-27.2,4.2c-13.3-0.6-26.6,0-39.3,2.4c-12.7,2.4-25.4,10.9-37.5,16.3c-17.5,7.9-41.1,24.8-43.5,45.9
						c-1.2,10.9,0.6,21.8,7.3,30.8c2.4,3,5.4,7.3,4.2,11.5c-1.8,6-1.2,1.2-3.6,5.4c-1.8,3-2.4,7.3-2.4,10.9
						C882.3,744.7,882.9,744.7,882.9,744.1L882.9,744.1z"/>
				</g>
			</g>
			<g>
				<g>
					<path class="st0" d="M904,744.1c-2.4-3.6-3-7.9-5.4-11.5c-1.2-1.8-3-2.4-4.2-4.2c-1.2-1.8-1.8-3.6-3.6-4.8
						c-0.6-0.6-2.4,0-1.8,1.2c1.2,1.8,1.8,3,3,4.8c1.2,1.8,2.4,2.4,3.6,3.6c3,3,4.2,7.9,6.6,11.5C903.4,745.9,904.6,744.7,904,744.1
						L904,744.1z"/>
				</g>
			</g>
			<g>
				<g>
					<path class="st0" d="M942.1,661.9c-4.8,8.5-1.2,15.1,4.2,22.4c6,9.1,14.5,18.1,23,24.8c6,4.2,13.9,6,19.3,10.9
						c3.6,3,6,7.9,9.1,11.5c3.6,4.2,8.5,7.3,12.7,10.9c4.2,3.6,7.9,7.9,12.1,10.9c1.2,1.2,3-1.2,1.8-2.4
						c-7.3-5.4-13.3-12.1-19.9-17.5c-6-4.8-9.1-11.5-15.1-16.9c-1.8-1.8-4.2-3-6.6-3.6c-7.9-3-13.3-7.3-19.3-12.7
						c-8.5-7.9-27.2-24.2-19.9-37.5C943.3,661.9,942.1,661.3,942.1,661.9L942.1,661.9z"/>
				</g>
			</g>
			<g>
				<g>
					<path class="st0" d="M988.6,716.9c9.1,11.5-6,23-15.1,27.2c-6,3-11.5,4.8-16.3,9.7c-1.2,1.2,0.6,3,1.8,1.8
						c4.8-4.2,10.3-6.6,15.7-9.1c5.4-2.4,9.7-6,13.3-10.3c6-6.6,7.3-13.3,1.2-19.9C989.2,715.1,988,716.3,988.6,716.9L988.6,716.9z"
						/>
				</g>
			</g>
			<g>
				<g>
					<path class="st0" d="M902.8,693.4c6.6,6.6,13.9,8.5,23.6,8.5c7.3,0.6,14.5-0.6,21.8,0c7.3,1.2,13.9,4.8,19.9,9.1
						c1.2,0.6,2.4-1.2,1.2-1.8c-6-4.8-15.7-9.7-24.2-9.7C931.2,699.4,915.5,702.4,902.8,693.4C903.4,692.2,902.8,692.8,902.8,693.4
						L902.8,693.4z"/>
				</g>
			</g>
			<g>
				<g>
					<path class="st0" d="M1134.9,609.4c-4.8,7.3-13.3,8.5-21.8,8.5c-4.8,0-6.6-2.4-10.3-4.8c-7.9-4.8-15.7-6-24.2-3.6
						c-1.8,0.6-1.2,3.6,0.6,3c8.5-2.4,19.9-1.8,26,6c1.8,1.8,6,1.2,7.9,1.2C1121.6,619.6,1130.6,617.2,1134.9,609.4
						C1135.5,609.4,1134.9,609.4,1134.9,609.4L1134.9,609.4z"/>
				</g>
			</g>
			<g>
				<g>
					<path class="st0" d="M1055.7,575.5c6.6,1.8,11.5,4.2,15.1,10.9c3.6,7.3,6.6,13.3,3.6,21.8c-0.6,1.2,1.2,1.8,1.8,0.6
						c4.2-7.3,1.2-15.7-3-22.4C1069,579.1,1064.2,576.1,1055.7,575.5C1055.1,574.9,1055.1,575.5,1055.7,575.5L1055.7,575.5z"/>
				</g>
			</g>
			<g>
				<g>
					<path class="st0" d="M1150.6,503.6c-6.6-0.6-9.1,5.4-9.1,11.5c-1.2,16.3,10.3,36.3-7.3,47.7c-10.3,7.3-25.4,3-35.7,10.9
						c-9.7,7.9-20.5,19.9-21.8,33.2c0,1.2,1.8,1.8,2.4,0.6c3.6-13.9,14.5-29.6,27.8-34.4c10.3-3.6,21.2-3,30.8-9.1
						c7.9-5.4,9.7-16.9,8.5-25.4C1145.7,531.4,1136.1,504.8,1150.6,503.6C1151.2,504.2,1151.2,503.6,1150.6,503.6L1150.6,503.6z"/>
				</g>
			</g>
			<g>
				<g>
					<path class="st0" d="M1104,546.5c11.5-4.2,12.7,16.9,6.6,22.4c-1.2,1.2,0.6,2.4,1.2,1.2c7.9-6.6,3.6-30.2-9.1-24.8
						C1102.8,545.9,1103.4,547.1,1104,546.5L1104,546.5z"/>
				</g>
			</g>
			<g>
				<g>
					<path class="st0" d="M1113.1,508.4c11.5,0,22.4,3,27.8,14.5c0.6,1.2,2.4,0,1.8-1.2c-2.4-5.4-6-8.5-10.9-11.5
						c-5.4-3.6-12.1-3-18.7-3C1111.9,507.2,1111.9,508.4,1113.1,508.4L1113.1,508.4z"/>
				</g>
			</g>
			<g>
				<g>
					<path class="st0" d="M1047.2,632.9c-3.6,3.6-4.2,7.3-4.8,12.1c-0.6,7.3,6,11.5,7.3,18.1c3,11.5-3.6,23-9.7,32
						c-3,4.8-3.6,10.3-1.2,15.1c0.6,1.2,1.8,0,1.8-0.6c-2.4-10.3,3.6-12.7,6.6-20.5c2.4-6,4.8-12.1,5.4-18.7
						c0.6-12.7-15.7-24.8-4.8-36.3C1049,633.5,1047.8,632.3,1047.2,632.9L1047.2,632.9z"/>
				</g>
			</g>
			<g>
				<g>
					<path class="st0" d="M948.1,639.6c6.6,8.5,12.7,18.1,23.6,20.5c1.2,0,4.2-0.6,5.4-0.6c7.3-0.6,7.9,3.6,9.7,7.9
						c1.2,3,4.2,6.6,7.9,7.9c5.4,1.8,13.9,0.6,17.5,6c1.8,3,4.2,4.8,7.9,4.8c4.2,0,7.9-3,10.9-4.8c4.2-2.4,9.1-3.6,12.7-6.6
						c1.2-1.2-0.6-3-1.8-2.4c-6.6,4.8-23.6,14.5-29,6c-3.6-6-14.5-3-19.9-7.3c-4.8-3.6-5.4-13.9-12.7-13.9c-8.5,0-13.3,0.6-19.9-5.4
						c-4.2-3.6-7.9-9.1-11.5-13.3C948.7,637.2,947.5,638.4,948.1,639.6L948.1,639.6z"/>
				</g>
			</g>
			<g>
				<g>
					<path class="st0" d="M1095.6,528.4c-4.2-7.9-6.6-18.1-15.7-21.8c-6.6-2.4-15.7-4.8-22.4,0c-1.2,1.2,0.6,3,1.8,1.8
						c6-4.8,15.7-1.2,21.8,1.2c6.6,3,9.7,13.3,12.7,19.3C1094.4,530.8,1096.2,529.6,1095.6,528.4L1095.6,528.4z"/>
				</g>
			</g>
			<g>
				<g>
					<path class="st0" d="M1086.5,486.1c-3.6,1.2-6.6,3.6-7.9,7.3c-1.8,4.2-2.4,6.6-0.6,10.9c0.6,1.2,1.8,0,1.8-1.2
						c-0.6-1.2-1.2-2.4-1.2-4.2c0-1.8,0.6-3,1.2-4.2c1.2-3.6,3.6-6,7.3-7.3C1087.7,487.3,1087.7,486.1,1086.5,486.1L1086.5,486.1z"
						/>
				</g>
			</g>
			<g>
				<g>
					<path class="st0" d="M1096.2,498.8c-7.9-16.9-12.7-32.6-6.6-51.4c6-16.9,19.9-27.8,36.3-34.4c10.3-4.2,21.2-6.6,30.2-13.9
						c8.5-6.6,8.5-18.1,10.9-28.4c1.8-7.9,4.8-14.5,12.7-17.5c12.7-4.8,24.2,7.3,30.2,16.3c10.3,15.1,6,35.7-0.6,51.4
						c-5.4,12.1-12.7,21.8-14.5,35.7c-0.6,6.6,0.6,13.9,1.8,20.5c2.4,12.1-1.2,21.2-6,32c-0.6,1.2,1.2,2.4,1.8,1.2
						c12.1-16.3,5.4-32,5.4-50.2c0-11.5,5.4-21.2,10.9-30.8c4.2-8.5,7.9-16.9,9.1-26.6c2.4-13.3,0-28.4-9.1-39.3
						c-7.9-9.1-23-19.3-35.1-9.7c-10.3,7.9-9.1,22.4-12.7,34.4c-5.4,18.1-33.2,20.5-47.7,28.4c-13.3,7.3-21.8,19.3-26,33.2
						C1081.7,467.3,1087.7,483.7,1096.2,498.8C1095.6,499.4,1096.8,499.4,1096.2,498.8L1096.2,498.8z"/>
				</g>
			</g>
			<g>
				<g>
					<path class="st0" d="M1167.5,457.7c-6.6,5.4-10.9,5.4-12.1,14.5c-1.2,7.9,0.6,15.7,3.6,22.4c4.2,9.1,12.1,16.3,18.7,23.6
						c3.6,4.2,7.9,6.6,10.9,11.5c2.4,3.6,3.6,6.6,7.3,9.1c1.2,0.6,2.4,0,1.8-1.2c-6.6-10.9-15.1-18.7-24.2-28.4
						c-7.3-7.3-12.7-15.1-15.7-25.4C1154.8,473.4,1159.6,464.9,1167.5,457.7C1168.1,457.7,1167.5,457.1,1167.5,457.7L1167.5,457.7z"
						/>
				</g>
			</g>
			<g>
				<g>
					<path class="st0" d="M1117.9,479.4c11.5-6.6,27.2-7.3,35.1,5.4c0.6,1.2,3,0,2.4-1.2c-3.6-6-9.7-9.1-16.3-10.9
						C1131.2,471,1124.6,474.6,1117.9,479.4C1117.3,478.8,1117.9,479.4,1117.9,479.4L1117.9,479.4z"/>
				</g>
			</g>
			<g>
				<g>
					<path class="st0" d="M1136.7,655.9c-3,10.3-6.6,18.1-16.9,23.6c-7.3,3.6-14.5,6-19.9,12.1c-7.9,8.5-13.3,23-14.5,34.4
						c0,1.8,2.4,1.8,3,0c1.2-8.5,4.8-14.5,7.9-22.4c4.2-9.7,9.7-15.1,19.3-19.9c6-3,12.1-4.8,16.3-10.9c4.2-5.4,5.4-10.9,7.3-16.9
						C1138.5,655.3,1137.3,654.7,1136.7,655.9L1136.7,655.9z"/>
				</g>
			</g>
			<g>
				<g>
					<path class="st0" d="M1115.5,723.6c10.9-12.7,23.6-26,41.7-24.2c1.8,0,1.8-2.4,0-2.4C1138.5,694.6,1125.2,709.7,1115.5,723.6
						C1114.9,723.6,1115.5,723.6,1115.5,723.6L1115.5,723.6z"/>
				</g>
			</g>
			<g>
				<g>
					<path class="st0" d="M1142.1,701.8c-2.4-11.5-2.4-21.2-1.2-32.6c0.6-6.6,4.2-11.5,9.7-14.5c0.6-0.6,1.8-1.8,2.4-2.4
						c1.8-6.6-4.2-10.3,0-18.1c3.6-7.3,13.3-13.3,19.3-18.1c3.6-3,6-6.6,7.9-10.9c1.2-3,0.6-7.3,1.2-10.3c1.2-4.8,4.8-9.7,7.9-13.9
						c3.6-4.8,3.6-10.9,3.6-16.3c0-3.6-0.6-7.3-0.6-10.9c0-7.9,2.4-10.9,7.3-16.3c1.2-1.2-0.6-3-1.8-1.8c-5.4,5.4-7.9,7.3-8.5,15.1
						c-0.6,9.7,3,19.9-2.4,28.4c-4.2,6.6-9.1,12.1-9.1,20.5c0,10.9-12.1,16.9-19.3,23.6c-4.2,3.6-9.7,8.5-10.3,14.5
						c-0.6,7.3,3.6,9.7-3,16.3c-11.5,12.1-8.5,32-5.4,47.1C1140.9,703,1142.7,703,1142.1,701.8L1142.1,701.8z"/>
				</g>
			</g>
			<g>
				<g>
					<path class="st0" d="M1216.4,480c14.5,2.4,24.2,14.5,24.2,29.6c0,0.6-1.8,7.3-1.2,8.5c3,6,7.3,17.5-1.2,22.4
						c-1.2,0.6,0,2.4,1.2,1.8c4.8-2.4,5.4-6.6,5.4-11.5c0.6-3.6-0.6-6-1.8-9.1c-1.8-3.6-1.2-7.9-0.6-11.5
						c1.8-15.1-10.9-29-25.4-31.4C1215.8,477.6,1215.2,479.4,1216.4,480L1216.4,480z"/>
				</g>
			</g>
			<g>
				<g>
					<path class="st0" d="M1154.2,306.6c4.8,3.6,9.1,3.6,13.3,9.1c1.8,1.8,3,10.9,4.8,13.9c1.8,3.6,2.4,4.2,6.6,5.4
						c13.3,5.4,9.7,10.3,9.1,18.7c0,1.2,1.2,1.2,1.8,0c2.4-9.7,0-17.5-10.3-21.2c-9.1-3.6-6-12.7-10.3-18.7
						c-4.2-5.4-8.5-4.8-13.9-8.5C1154.2,305.4,1154.2,306,1154.2,306.6L1154.2,306.6z"/>
				</g>
			</g>
			<g>
				<g>
					<path class="st0" d="M1214,357.4c0,3,0.6,6,0.6,9.1c0,4.8-1.8,9.7-2.4,14.5c0,1.2,1.2,1.8,1.8,0.6c1.2-3.6,1.8-7.3,2.4-11.5
						c0.6-4.2-1.2-8.5-1.8-12.7C1214.6,356.7,1214,356.7,1214,357.4L1214,357.4z"/>
				</g>
			</g>
			<g>
				<g>
					<path class="st0" d="M1215.2,382.1c4.2-4.2,12.1,3,14.5,6c4.2,4.2,2.4,13.3,3,18.7c1.2,7.9,9.7,9.1,13.9,15.1
						c9.1,12.7,12.7,25.4,5.4,39.9c-5.4,10.9-11.5,19.9-15.1,31.4c-0.6,1.8,1.8,2.4,2.4,0.6c3-9.1,7.3-17.5,11.5-26
						c3.6-6.6,6.6-11.5,7.9-19.9c1.8-10.9-5.4-24.8-13.9-32c-1.2-1.2-3-1.8-4.2-2.4c-6-3.6-6-10.9-6-16.9c0-4.8-1.2-8.5-4.8-11.5
						c-4.2-3.6-10.9-9.1-16.3-4.8C1212.8,381.5,1214,382.7,1215.2,382.1L1215.2,382.1z"/>
				</g>
			</g>
			<g>
				<g>
					<path class="st0" d="M1125.2,419.6c1.8-4.2,3.6-8.5,4.2-12.7c0.6-5.4-1.8-10.3-2.4-15.1c0-1.2-1.8-1.2-1.8,0
						c0,3.6,1.2,6.6,2.4,9.7c1.8,6-0.6,12.1-3,17.5C1124,419.6,1125.2,420.2,1125.2,419.6L1125.2,419.6z"/>
				</g>
			</g>
			<g>
				<g>
					<path class="st0" d="M1128.2,472.8c3,4.2,4.8,9.1,6,13.9c1.2,4.8-1.8,9.1-3.6,13.3c-0.6,1.2,1.2,1.8,1.8,0.6
						c1.2-3.6,4.8-8.5,4.2-12.7c-1.2-6-3-10.9-6.6-16.3C1128.8,471,1127.6,471.6,1128.2,472.8L1128.2,472.8z"/>
				</g>
			</g>
			<g>
				<g>
					<path class="st0" d="M1142.7,557.4c5.4-12.1,14.5-18.1,27.2-21.8c1.2-0.6,0.6-3-0.6-2.4c-12.7,4.2-22.4,10.9-27.8,23.6
						C1140.9,557.4,1142.1,558,1142.7,557.4L1142.7,557.4z"/>
				</g>
			</g>
			<g>
				<g>
					<path class="st0" d="M1164.5,481.8c0.6-4.2,3.6-8.5,7.9-10.3c3.6-1.2,6.6-1.2,9.7-0.6c1.2,0,1.2-1.2,0.6-1.8
						c-3.6-1.8-9.1-0.6-12.7,1.2c-4.2,1.8-6.6,7.3-6.6,11.5C1163.3,482.4,1164.5,482.4,1164.5,481.8L1164.5,481.8z"/>
				</g>
			</g>
			<g>
				<g>
					<path class="st0" d="M1152.4,591.2c16.3-6,30.2,2.4,39.3,16.3c0.6,1.2,3,0,2.4-1.2C1183.8,591.8,1168.7,583.4,1152.4,591.2
						C1151.8,591.2,1151.8,591.8,1152.4,591.2L1152.4,591.2z"/>
				</g>
			</g>
			<g>
				<g>
					<path class="st0" d="M1182,668.6c-4.2,1.8-9.1,1.2-13.3,1.2c-6.6-0.6-10.9-1.2-14.5-7.9c-0.6-0.6-1.2,0-1.2,0.6
						c0.6,5.4,5.4,7.9,10.9,8.5c6,0.6,13.3,0.6,18.7-1.8C1182.6,669.2,1182.6,668.6,1182,668.6L1182,668.6z"/>
				</g>
			</g>
			<g>
				<g>
					<path class="st0" d="M1202.5,612.4c10.9-6,21.8-5.4,31.4,2.4c7.3,5.4,4.2,13.3,8.5,19.9c1.8,3,3.6,4.8,7.3,6
						c7.9,2.4,12.7,4.8,15.7,13.3c3.6,9.1,4.2,17.5,12.1,24.2c3,3,7.3,4.2,10.9,4.2c8.5,0,14.5,1.2,22.4-1.8c1.8-0.6,1.2-3-0.6-2.4
						c-9.7,1.8-24.8,3-32.6-3.6c-4.8-4.2-6.6-10.9-8.5-16.9c-2.4-7.3-4.8-13.9-12.7-16.9c-1.8-0.6-4.2-1.2-6.6-1.8
						c-6.6-1.8-7.3-9.7-8.5-15.1c-1.2-4.2-3-7.3-6.6-9.7c-10.9-8.5-21.8-9.1-33.2-2.4C1201.3,611.8,1201.9,612.4,1202.5,612.4
						L1202.5,612.4z"/>
				</g>
			</g>
			<g>
				<g>
					<path class="st0" d="M1191.7,694.6c5.4-2.4,10.3-6,13.3-11.5c3-6.6,1.8-12.7,0.6-19.3c0-1.2-1.8-0.6-1.8,0
						c-0.6,6,1.8,10.9,0,16.9c-2.4,6.6-6.6,9.7-12.1,12.7C1190.5,694,1191.1,695.2,1191.7,694.6L1191.7,694.6z"/>
				</g>
			</g>
			<g>
				<g>
					<path class="st0" d="M1179,639c6.6,0,10.3-1.8,17.5,1.2c4.8,2.4,9.7,4.8,13.3,8.5c7.3,6.6,7.9,24.8,3,32.6
						c-0.6,1.2,1.2,3,2.4,1.8c6-7.9,3-23.6-1.8-32c-3-4.8-9.1-8.5-13.9-10.9C1192.3,636.6,1187.4,637.8,1179,639
						C1179,638.4,1179,639,1179,639L1179,639z"/>
				</g>
			</g>
			<g>
				<g>
					<path class="st0" d="M1151.8,675.8c4.8,4.8,10.9,10.3,18.1,11.5c6.6,1.2,13.3-2.4,19.3-5.4c1.2-0.6,0-2.4-1.2-1.8
						c-6,3-11.5,5.4-18.1,5.4C1163.3,685.5,1156.6,679.5,1151.8,675.8C1151.8,675.2,1151.2,675.8,1151.8,675.8L1151.8,675.8z"/>
				</g>
			</g>
			<g>
				<g>
					<path class="st0" d="M837.5,565.2c-1.2-1.8,0-3-0.6-4.2c-0.6-1.8-0.6-4.2-0.6-6c0-1.8,0-3.6,0-4.8c0-1.8,1.2-3.6,1.8-5.4
						c0-1.8-2.4-1.8-2.4-0.6c0,1.8-1.2,3.6-1.8,5.4c0,1.8,0,4.2,0,6.6C835.1,558.6,835.7,562.8,837.5,565.2
						C837.5,565.8,838.1,565.2,837.5,565.2L837.5,565.2z"/>
				</g>
			</g>
			<g>
				<g>
					<path class="st0" d="M875,555.6c0-3-0.6-6.6-1.8-9.7c-1.2-3-3-5.4-4.8-7.9c-0.6-1.2-2.4,0-1.8,1.2c1.2,2.4,3,3.6,4.2,5.4
						c1.8,3,3,7.3,3,10.3C874.4,556.2,875,556.2,875,555.6L875,555.6z"/>
				</g>
			</g>
			<g>
				<g>
					<path class="st0" d="M1284.7,552.6c-6.6-6-11.5-13.9-19.3-18.7c-9.1-6-19.9-9.7-29.6-15.1c-6.6-3.6-27.2-13.9-32.6-3
						c-0.6,1.2,1.2,2.4,1.8,1.8c9.1-11.5,32.6,5.4,41.1,9.7c7.3,3,13.3,6,19.9,10.3c6.6,4.2,10.9,10.9,16.9,16.3
						C1284.7,554.4,1285.3,553.2,1284.7,552.6L1284.7,552.6z"/>
				</g>
			</g>
			<g>
				<g>
					<path class="st0" d="M1221.3,467.3c13.9,2.4,23,14.5,20.5,28.4c-1.2,7.3,7.9,18.1-1.2,23.6c-1.2,0.6,0,2.4,1.2,1.8
						c4.2-1.8,4.8-5.4,4.8-9.7c0.6-3,0-4.2-1.2-7.3c-1.8-4.2-1.2-7.3-1.2-11.5c0-13.9-9.1-24.8-22.4-27.2
						C1220.7,465.5,1220.1,467.3,1221.3,467.3L1221.3,467.3z"/>
				</g>
			</g>
			<g>
				<g>
					<path class="st0" d="M1259.4,445c8.5,4.2,13.3,8.5,14.5,18.1c0.6,4.8,3,7.3,6.6,10.9c6,6,13.3,12.1,13.3,21.8
						c0,7.9-3,13.3-4.8,20.5c0,1.8,1.8,2.4,2.4,0.6c1.8-7.9,4.2-13.3,4.8-21.2c0-6.6-3.6-12.1-7.9-16.9c-2.4-3-6-5.4-8.5-8.5
						c-3-3-3.6-11.5-6.6-16.3C1270.2,449.2,1264.2,446.8,1259.4,445C1259.4,444.4,1258.8,445,1259.4,445L1259.4,445z"/>
				</g>
			</g>
			<g>
				<g>
					<path class="st0" d="M1304.7,464.9c12.1,6.6,1.8,18.7,10.3,26.6c6,5.4,9.7,9.1,12.1,16.3c2.4,7.3,3,13.9,0.6,21.2
						c-0.6,1.8,1.8,2.4,2.4,0.6c4.2-12.1,0-26.6-8.5-36.9c-3.6-3.6-9.1-6-7.9-12.7c0-1.2,0-3.6-0.6-4.8c-0.6-4.8-3.6-9.1-7.9-11.5
						C1304.7,463.1,1304.1,464.3,1304.7,464.9L1304.7,464.9z"/>
				</g>
			</g>
			<g>
				<g>
					<path class="st0" d="M1301.1,565.2c7.9-7.3,15.7-2.4,21.2,3c4.8,4.2,9.7,5.4,12.1,12.1c3.6,10.9-5.4,22.4-13.9,27.2
						c-1.2,0.6,0,3,1.2,2.4c10.9-4.8,19.9-20.5,14.5-32.6c-4.2-8.5-13.9-11.5-20.5-17.5c-6-5.4-11.5-0.6-15.7,3.6
						C1299.2,564.6,1300.5,565.8,1301.1,565.2L1301.1,565.2z"/>
				</g>
			</g>
			<g>
				<g>
					<path class="st0" d="M1206.8,550.1c14.5-7.3,30.2-7.9,39.9,7.3c3,4.2,3.6,11.5,3,16.3c-0.6,3.6-5.4,15.7-7.9,18.1
						c-1.2,1.2,0.6,2.4,1.2,1.2c2.4-2.4,3.6-3.6,4.8-7.3c1.2-3,3-8.5,3.6-12.1c0.6-7.3-1.2-14.5-5.4-19.9
						c-3-4.2-10.3-10.3-16.3-10.3C1220.7,543.5,1215.8,544.7,1206.8,550.1C1206.8,549.5,1206.8,550.1,1206.8,550.1L1206.8,550.1z"/>
				</g>
			</g>
			<g>
				<g>
					<path class="st0" d="M1217.1,588.8c18.7-7.9,21.2,9.1,35.1,13.3c6,1.8,12.1,3,17.5,5.4c12.7,6,7.9,25.4,1.2,33.2
						c-1.2,1.2,0.6,3,1.8,1.8c10.9-9.7,11.5-33.2-4.2-38.7c-4.2-1.2-8.5-2.4-12.7-3.6c-6.6-1.8-11.5-7.3-16.3-11.5
						C1232.2,582.8,1224.3,584.6,1217.1,588.8C1216.4,588.2,1217.1,588.8,1217.1,588.8L1217.1,588.8z"/>
				</g>
			</g>
			<g>
				<g>
					<path class="st0" d="M1247.3,567.1c11.5-6.6,29-3.6,32.6,11.5c0.6,3,0.6,8.5,3.6,10.9c2.4,2.4,5.4,3,8.5,4.2
						c7.3,1.8,9.1,7.9,10.9,13.9c1.8,6,4.2,13.9,10.3,17.5c8.5,4.8,19.3,4.2,28.4,1.2c1.8-0.6,1.2-2.4-0.6-2.4
						c-8.5,1.2-21.2,2.4-28.4-3c-4.2-3.6-5.4-9.1-7.3-14.5s-4.2-13.3-10.9-15.1c-9.7-2.4-11.5-7.9-13.9-16.3c-0.6-3-3.6-5.4-6-7.3
						c-9.7-6.6-18.1-7.3-28.4-1.2C1246.1,566.5,1246.7,567.7,1247.3,567.1L1247.3,567.1z"/>
				</g>
			</g>
			<g>
				<g>
					<path class="st0" d="M1309.5,652.9c4.8-2.4,9.1-4.8,11.5-10.3c2.4-5.4,1.8-11.5,0.6-16.9c0-1.2-1.8-0.6-1.8,0
						c-0.6,4.8,1.8,9.1,0,14.5s-5.4,8.5-10.9,10.9C1308.3,652.3,1308.9,653.5,1309.5,652.9L1309.5,652.9z"/>
				</g>
			</g>
			<g>
				<g>
					<path class="st0" d="M1333.1,526.6c12.1,6.6,1.8,18.7,10.3,26.6c6,5.4,9.7,9.1,12.1,16.3c2.4,7.3,3,13.9,0.6,21.2
						c-0.6,1.8,1.8,2.4,2.4,0.6c4.2-12.1,0-26.6-8.5-36.9c-3.6-3.6-9.1-6-7.9-12.7c0-1.2,0-3.6-0.6-4.8c-0.6-4.8-3.6-9.1-7.9-11.5
						C1332.5,524.8,1331.9,526,1333.1,526.6L1333.1,526.6z"/>
				</g>
			</g>
			<g>
				<g>
					<path class="st0" d="M1335.5,619.6c2.4-9.7,10.9-41.7,24.8-21.2c3.6,5.4,5.4,12.1,5.4,18.1c0.6,6-4.2,12.7-6,18.1
						c-0.6,1.8,2.4,3,3,0.6c2.4-7.3,7.3-14.5,5.4-22.4c-1.2-8.5-4.8-17.5-11.5-23c-3.6-2.4-10.3-0.6-12.7,2.4
						C1339.1,600.9,1336.7,610.6,1335.5,619.6C1334.9,619.6,1335.5,619.6,1335.5,619.6L1335.5,619.6z"/>
				</g>
			</g>
		</g>
	</g>
</g>
<g id="Connection_Lines">
	<path class="st7" d="M675.5,339.8"/>
	<line class="st7" x1="1396" y1="293.6" x2="774.9" y2="327.7"/>
	<line class="st7" x1="1409.6" y1="293.6" x2="1194.1" y2="325.4"/>
	<line class="st7" x1="1405.1" y1="290.7" x2="1368.5" y2="568.9"/>
	<line class="st7" x1="1409.6" y1="286.8" x2="971.7" y2="660.1"/>
	<line class="st7" x1="1514.7" y1="548.8" x2="1117.7" y2="491.1"/>
	<line class="st7" x1="1514.7" y1="548.8" x2="1442.5" y2="583.7"/>
	<line class="st7" x1="1514.7" y1="548.8" x2="592.1" y2="490.6"/>
	<line class="st7" x1="1514.7" y1="548.8" x2="1299.7" y2="831.8"/>
	<line class="st7" x1="1483.2" y1="815" x2="1368.5" y2="629.3"/>
	<line class="st7" x1="1491.5" y1="830.8" x2="1131.9" y2="492.1"/>
	<line class="st7" x1="1483.2" y1="825" x2="592.1" y2="490.6"/>
	<line class="st7" x1="1256.6" y1="1017.3" x2="1194.2" y2="864.6"/>
	<line class="st7" x1="1256.6" y1="1017.3" x2="1360.1" y2="615.2"/>
	<line class="st7" x1="1267.7" y1="1031.7" x2="604.8" y2="495.4"/>
	<line class="st7" x1="1259.2" y1="1024.1" x2="596.3" y2="632.8"/>
	<line class="st7" x1="705.7" y1="1031.7" x2="1194.2" y2="864.6"/>
	<line class="st7" x1="719.1" y1="1031.7" x2="719.1" y2="851.9"/>
	<line class="st7" x1="719.1" y1="1031.7" x2="1351.9" y2="617"/>
	<line class="st7" x1="719.1" y1="1031.7" x2="1012.9" y2="515.3"/>
	<line class="st7" x1="719.1" y1="1031.7" x2="604.8" y2="495.4"/>
	<line class="st7" x1="396.9" y1="885.4" x2="757.2" y2="694.7"/>
	<line class="st7" x1="396.9" y1="885.4" x2="398.4" y2="500.4"/>
	<line class="st7" x1="396.9" y1="885.4" x2="651.3" y2="370.6"/>
	<line class="st7" x1="889.7" y1="496.4" x2="254.9" y2="660"/>
	<line class="st7" x1="592.1" y1="837.8" x2="254.9" y2="660"/>
	<line class="st7" x1="398.4" y1="500.4" x2="254.9" y2="660"/>
	<line class="st7" x1="554.1" y1="342.2" x2="254.9" y2="375.7"/>
	<line class="st7" x1="403.6" y1="461.3" x2="254.9" y2="375.7"/>
	<line class="st7" x1="389.7" y1="460.1" x2="436.8" y2="130.8"/>
	<line class="st7" x1="519" y1="588.9" x2="432.5" y2="122.1"/>
	<line class="st7" x1="592.1" y1="837.8" x2="436.8" y2="130.8"/>
	<line class="st7" x1="982.2" y1="346.4" x2="436.8" y2="130.8"/>
	<line class="st7" x1="604.8" y1="495.4" x2="1046.6" y2="109"/>
	<line class="st7" x1="1221" y1="579.1" x2="1046.6" y2="109"/>
</g>
<g id="Brain_Labels_1_">
	<g class="st8">
		<text transform="matrix(1 0 0 1 565.082 299.6504)" class="st9 st10">Planning</text>
		<text transform="matrix(1 0 0 1 897.9082 276.377)" class="st11"><tspan x="0" y="0" class="st9 st10">Sensory</tspan><tspan x="0" y="30.2" class="st9 st10">Association</tspan></text>
		<text transform="matrix(1 0 0 1 900.0986 448.6201)" class="st9 st10">Language</text>
		<text transform="matrix(1 0 0 1 538.9922 561.0361)" class="st9 st10">Speech</text>
		<text transform="matrix(1 0 0 1 748.6582 630.1689)" class="st9 st10">Short Term Memory</text>
		<text transform="matrix(1 0 0 1 1220.9668 555.7324)" class="st9 st10">Vision</text>
		<text transform="matrix(1 0 0 1 603.4414 787.2373)" class="st9 st10">Imagination</text>
		<text transform="matrix(1 0 0 1 1010.8232 791.3818)" class="st9 st10">Motor Control</text>
		<text transform="matrix(1 0 0 1 390.3477 433.335)" class="st9 st10">Prediction</text>
	</g>
	<g>
		<path class="st12" d="M773.6,394H554.3c-16.4,0-30.2-16.9-30.2-37.2v-7.6c0-20.3,13.7-37.2,30.2-37.2h219.3
			c16.4,0,30.2,16.9,30.2,37.2v7.6C803.7,377.9,790,394,773.6,394z"/>
		<text transform="matrix(1 0 0 1 580.1035 345.3672)" class="st11"><tspan x="0" y="0" class="st13 st14">Reinforcement</tspan><tspan x="34" y="27.6" class="st13 st14">Learning</tspan></text>
		<path class="st12" d="M1198.4,398.1H979.1c-16.4,0-30.2-16.9-30.2-37.2v-7.6c0-20.3,13.7-37.2,30.2-37.2h219.3
			c16.4,0,30.2,16.9,30.2,37.2v7.6C1228.5,382,1215.5,398.1,1198.4,398.1z"/>
		<text transform="matrix(1 0 0 1 1018.0059 349.4785)" class="st11"><tspan x="0" y="0" class="st13 st14">Dense, RNN,</tspan><tspan x="-4.2" y="27.6" class="st13 st14">NEAT, WANN</tspan></text>
		<path class="st12" d="M1109.3,544.6H890c-16.4,0-30.2-16.9-30.2-37.2v-7.6c0-20.3,13.7-37.2,30.2-37.2h219.3
			c16.4,0,30.2,16.9,30.2,37.2v7.6C1139.4,527.7,1125.7,544.6,1109.3,544.6z"/>
		<text transform="matrix(1 0 0 1 918.9971 497.749)" class="st11"><tspan x="0" y="0" class="st13 st14">Word Vectors</tspan><tspan x="-30.9" y="27.6" class="st13 st14">Sentiment Analysis</tspan></text>
		<path class="st12" d="M697.9,655H478.6c-16.4,0-30.2-16.9-30.2-37.2v-7.6c0-20.3,13.7-37.2,30.2-37.2h219.3
			c16.4,0,30.2,16.9,30.2,37.2v7.6C728.1,638.1,714.4,655,697.9,655z"/>
		<text transform="matrix(1 0 0 1 517.1533 606.3389)" class="st11"><tspan x="0" y="0" class="st13 st14">Transformer</tspan><tspan x="18.5" y="27.6" class="st13 st14">Networks</tspan></text>
		<path class="st12" d="M970.1,720.3H750.8c-16.4,0-30.2-16.9-30.2-37.2v-8.5c0-20.3,13.7-37.2,30.2-37.2h219.3
			c16.4,0,30.2,16.9,30.2,37.2v7.6C1000.2,703.4,986.5,720.3,970.1,720.3z"/>
		<text transform="matrix(1 0 0 1 803.8975 671.2852)" class="st11"><tspan x="0" y="0" class="st13 st14">Recurrent</tspan><tspan x="3.9" y="27.6" class="st13 st14">Networks</tspan></text>
		<path class="st12" d="M1423.4,646.3h-219.3c-16.4,0-30.2-16.9-30.2-37.2v-7.6c0-20.3,13.7-37.2,30.2-37.2h219.3
			c16.4,0,30.2,16.9,30.2,37.2v7.6C1453.5,629.4,1439.8,646.3,1423.4,646.3z"/>
		<text transform="matrix(1 0 0 1 1233.459 597.6748)" class="st11"><tspan x="0" y="0" class="st13 st14">Convolutional</tspan><tspan x="27.7" y="27.6" class="st13 st14">Networks</tspan></text>
		<path class="st12" d="M821.7,882.4H602.4c-16.4,0-30.2-16.9-30.2-37.2v-7.6c0-20.3,13.7-37.2,30.2-37.2h219.3
			c16.4,0,30.2,16.9,30.2,37.2v7.6C852.5,866.3,838.8,882.4,821.7,882.4z"/>
		<text transform="matrix(1 0 0 1 649.3154 833.7617)" class="st11"><tspan x="0" y="0" class="st13 st14">Generative</tspan><tspan x="-34.2" y="27.6" class="st13 st14">Adversarial Nets</tspan></text>
		<path class="st12" d="M1302.2,882.4h-219.3c-16.4,0-30.2-16.9-30.2-37.2v-7.6c0-20.3,13.7-37.2,30.2-37.2h219.3
			c16.4,0,30.2,16.9,30.2,37.2v7.6C1333,865.5,1319.3,882.4,1302.2,882.4z"/>
		<text transform="matrix(1 0 0 1 1121.8594 833.7666)" class="st11"><tspan x="0" y="0" class="st13 st14">Dense, RNN,</tspan><tspan x="-4.2" y="27.6" class="st13 st14">NEAT, WANN</tspan></text>
		<path class="st12" d="M617.6,519.8H398.3c-16.4,0-30.2-16.9-30.2-37.2v-7.6c0-20.3,13.7-37.2,30.2-37.2h219.3
			c16.4,0,30.2,16.9,30.2,37.2v7.6C647.8,503.7,634.1,519.8,617.6,519.8z"/>
		<text transform="matrix(1 0 0 1 461.8066 471.124)" class="st11"><tspan x="0" y="0" class="st13 st14">Literally</tspan><tspan x="-19.7" y="27.6" class="st13 st14">Everything*</tspan></text>
	</g>
	<g>
		<path class="st15" d="M1623.4,301.8h-214.1c-16.1,0-29.4-12.1-29.4-26.6v-5.4c0-14.5,13.4-26.6,29.4-26.6h214.1
			c16.1,0,29.4,12.1,29.4,26.6v5.4C1652.9,289.7,1639.5,301.8,1623.4,301.8z"/>
		<text transform="matrix(1 0 0 1 1395.4346 283.9668)" class="st13 st16">Vehicle Automation</text>
		<path class="st15" d="M1143.3,115.6H949.9c-14.5,0-26.6-12.1-26.6-26.6v-5.4c0-14.5,12.1-26.6,26.6-26.6h193.4
			c14.5,0,26.6,12.1,26.6,26.6V89C1169.9,103.5,1157.8,115.6,1143.3,115.6z"/>
		<text transform="matrix(1 0 0 1 985.7148 95.4883)" class="st13 st16">Healthcare</text>
		<path class="st15" d="M539.4,139.6H346c-14.5,0-26.6-12.1-26.6-26.6v-5.4c0-14.5,12.1-26.6,26.6-26.6h193.4
			c14.5,0,26.6,12.1,26.6,26.6v5.4C566,127.5,553.9,139.6,539.4,139.6z"/>
		<text transform="matrix(1 0 0 1 357.4258 116.7988)" class="st13 st16">Entertainment</text>
		<path class="st15" d="M1729.4,581.6H1536c-14.5,0-26.6-12.1-26.6-26.6v-5.4c0-14.5,12.1-26.6,26.6-26.6h193.4
			c14.5,0,26.6,12.1,26.6,26.6v5.4C1756,569.5,1743.9,581.6,1729.4,581.6z"/>
		<text transform="matrix(1 0 0 1 1598.5635 561.6396)" class="st13 st16">Retail</text>
		<path class="st15" d="M237.5,686.9H44.1c-14.5,0-26.6-12.1-26.6-26.6v-5.4c0-14.5,12.1-26.6,26.6-26.6h193.4
			c14.5,0,26.6,12.1,26.6,26.6v5.4C264.1,674.8,252,686.9,237.5,686.9z"/>
		<text transform="matrix(1 0 0 1 72.3364 666.8174)" class="st13 st16">Advertising</text>
		<path class="st15" d="M235.2,403.3H41.8c-14.5,0-26.6-12.1-26.6-26.6v-5.4c0-14.5,12.1-26.6,26.6-26.6h193.4
			c14.5,0,26.6,12.1,26.6,26.6v5.4C261.8,391.2,249.7,403.3,235.2,403.3z"/>
		<text transform="matrix(1 0 0 1 79.1167 383.1416)" class="st13 st16">Academia</text>
		<path class="st15" d="M1685.9,857.8h-193.4c-14.5,0-26.6-12.1-26.6-26.6v-5.4c0-14.5,12.1-26.6,26.6-26.6h193.4
			c14.5,0,26.6,12.1,26.6,26.6v5.4C1712.5,845.7,1700.4,857.8,1685.9,857.8z"/>
		<text transform="matrix(1 0 0 1 1506.2939 834.9453)" class="st13 st16">Cybersecurity</text>
		<path class="st15" d="M390.9,927.2H197.5c-14.5,0-26.6-12.1-26.6-26.6v-5.4c0-14.5,12.1-26.6,26.6-26.6h193.4
			c14.5,0,26.6,12.1,26.6,26.6v5.4C417.5,915.2,405.4,927.2,390.9,927.2z"/>
		<text transform="matrix(1 0 0 1 247.3555 907.1152)" class="st13 st16">Finance</text>
		<path class="st15" d="M818.7,1079.2l-193.4,3c-14.5,0-26.6-11.5-27.2-26v-5.4c0-14.5,11.5-26.6,26-27.2l193.4-3
			c14.5,0,26.6,11.5,27.2,26v5.4C844.6,1066.5,833.2,1079.2,818.7,1079.2z"/>
		<text transform="matrix(0.9999 -1.496645e-02 1.496645e-02 0.9999 615.5283 1061.6851)" class="st13 st17">Law Enforcement</text>
		<path class="st15" d="M1359.6,1061.7h-193.4c-14.5,0-26.6-12.1-26.6-26.6v-5.4c0-14.5,12.1-26.6,26.6-26.6h193.4
			c14.5,0,26.6,12.1,26.6,26.6v5.4C1386.2,1049.6,1374.2,1061.7,1359.6,1061.7z"/>
		<text transform="matrix(1 0 0 1 1172.9316 1038.8652)" class="st13 st16">Transportation</text>
	</g>
</g>
</svg>
