<?xml version="1.0" encoding="utf-8"?>
<!-- Generator: Adobe Illustrator 24.1.2, SVG Export Plug-In . SVG Version: 6.00 Build 0)  -->
<svg version="1.1" xmlns="http://www.w3.org/2000/svg" xmlns:xlink="http://www.w3.org/1999/xlink" x="0px" y="0px"
	 viewBox="0 0 306 276" style="enable-background:new 0 0 306 276;" xml:space="preserve">
<style type="text/css">
	.st0{fill:#B4B6BC;}
	.st1{fill:#F0D1C5;}
	.st2{fill:#B4E6FF;}
	.st3{fill:#C9FFCF;}
	.st4{fill:#FFDFF8;}
	.st5{fill:#FFF2CD;stroke:#FFCA05;stroke-width:0.75;}
	.st6{fill:#FFB4C3;}
	.st7{fill:#0DE900;}
	.st8{fill:#FFFFFF;stroke:#000000;stroke-miterlimit:10;}
	.st9{fill:none;stroke:#000000;stroke-miterlimit:10;}
	.st10{font-family:'Bauhaus93';}
	.st11{font-size:7.6312px;}
	.st12{font-family:'EuphemiaUCAS';}
	.st13{font-size:2.9453px;}
	.st14{enable-background:new    ;}
	.st15{fill:#7AA4FF;}
</style>
<g id="Layer_1">
	<g id="Brain_1_">
		<g id="Brain">
			<path class="st0" d="M106.6,169.2c0,0-2,1.1-3.5,1.1s-1.1-0.6-3.5,0.3c-2.4,0.9-8.4,0.6-10.2-0.8c-1.8-1.3-3.3-1-5.5-1.2
				s-9.1-2.5-11.7-6.6c-1-1.6-1.8-2.9-2.7-4.7c-0.9-1.8-1.3-2.2-1.3-3.8s-1.1,0.7-2-3.8s-1.8-7-0.9-9.4c0.9-2.5,0.4-1.8,0.7-4.5
				c0.2-2.7,0.7-3.8,1.3-5.6c0.7-1.8,0.9-1.1,0.9-3.6c0-2.5,0.7-5.2,2.2-7c1.6-1.8,0.9-1.1,2-3.1s1.8-2.9,3.3-3.6
				c1.6-0.7,1.3-1.3,2.2-2.2c0.9-0.9,1.3-1.6,2.9-2c1.5-0.4,1.2-1.7,2.2-3.6c3.2-6,10.4-7.7,13.7-8.8c4.7-1.5,3.5-0.6,5.5-3.6
				c2.3-3.5,8.4-4.3,10.9-4.7s1.3,0.2,3.5-0.9s2.4-0.4,4.4-0.7c2-0.2,2.2-0.7,4-1.3c1.8-0.7,3-1.2,5.4-0.8c2.4,0.5,1,0.8,2.8,0.1
				c1.8-0.7,2.9-0.7,5.5-0.5c2.7,0.2,3.1-0.7,4.2,0.5c1.1,1.1,0.4,2,2.2,0.9s4.9-1.8,6.9-1.8c1.7,0,3.9,0.3,4.9,0.9
				c1.5,0.9-0.4,0.9,1.1,0c1.6-0.9,2.4-1.1,4-0.5c1.6,0.7,1.1-0.2,2.7,0c1.6,0.2,2-0.2,3.5,0.5s1.5-0.2,4.2,0.4
				c2.7,0.7,3.1,1.1,4.9,1.8c1.8,0.7,1.6-0.4,4,0s8.4,1.8,10,3.1c1.6,1.3,2.4,1.6,4.4,2.2c2,0.7,2,0.4,2.4,1.8
				c0.4,1.3-0.4-1.3,1.8,0s2.7,1.1,3.8,2.9s0.9,0.2,3.1,2c2.2,1.8,5.5,3.8,6.4,7c0.9,3.1,2,0.9,3.8,2.2c1.8,1.3,1.8,1.8,2.7,3.6
				s1.3,0.9,3.5,3.1s4.9,5.4,4.9,7.9s0,2,1.8,3.4c1.8,1.3,6,4.7,6.4,7.2s1.8,2.7,2.4,4.9c0.7,2.2,1.9,3.6,1.8,6.7
				c-0.1,2.8-0.2,2.5-0.7,5.6c-0.4,3.1,0,3.8-1.8,5.4c-1.8,1.6-1.1,0.7-1.5,4.3c-0.9,6.6-8.4,6.5-10.4,5.4c-4.2-2.4-7.5-2-9.5-3.6
				s-2.2-1.1-4.4,0.4c-2.2,1.6-3.1,2-4.4,1.6c-1.3-0.4-0.7-0.2-3.8,1.6s-7,4.2-9.9,3.3s-1-1.2-3.9,0.8s-5.2,3.8-7.5,2.9
				c-1.1-0.4-1.1,0.2-2.7,0.9c-2.1,1-3.1,0.9-5.8,0.3c-1.8-0.4-2-1.7-5.3-0.3c-3.3,1.3-7.9,2.9-11.5,1.1c-0.9-0.4,0.2-0.2,0.9,2.7
				c0.7,2.8,0.1,4.4-4.2,5.6c-2.4,0.7-4,0.7-5.5,2.5c-1.6,1.8-4.7,2-8,3.1s-5.1,1.8-7.3,0.9c-2.2-0.9-2.2-0.7-4.2-0.4
				c-2,0.2-2.9,0-5.1-1.3c-1.6-1-2.2-2.7-4.9-3.1c-0.4-0.1-3.3-1.2-4.9-3.4c-1.1-1.6-1.3-2.9-3.3-4.7
				C108.8,174.4,107.5,171,106.6,169.2z"/>
			<path class="st1" d="M107.4,169.1c-0.1-0.2-0.2-0.3-0.2-0.5c0,0-2,1.1-3.5,1.1s-1.1-0.6-3.5,0.3c-2.4,0.9-8.4,0.6-10.1-0.8
				c-1.8-1.3-3.3-1-5.5-1.2s-9-2.5-11.7-6.6c-1-1.5-1.8-2.9-2.6-4.7c-0.9-1.8-1.3-2.2-1.3-3.8s-1.1,0.7-2-3.8s-1.8-6.9-0.9-9.4
				s0.4-1.8,0.7-4.5c0.2-2.7,0.7-3.8,1.3-5.6c0.7-1.8,0.9-1.1,0.9-3.6c0-2.5,0.7-5.1,2.2-6.9s0.9-1.1,2-3.1s1.8-2.9,3.3-3.6
				s1.3-1.3,2.2-2.2c0.9-0.9,1.3-1.6,2.9-2c1.5-0.4,1.2-1.6,2.2-3.6c3.2-5.9,10.4-7.7,13.7-8.7c4.7-1.5,3.5-0.6,5.5-3.6
				c2.3-3.5,8.4-4.3,10.8-4.7c2.4-0.4,1.3,0.2,3.5-0.9s2.4-0.4,4.4-0.7c2-0.2,2.2-0.7,4-1.3c1.8-0.7,3-1.2,5.4-0.8
				c2.4,0.4,1,0.8,2.8,0.1c1.8-0.7,2.9-0.7,5.5-0.4c2.6,0.2,3.1-0.7,4.2,0.4c1.1,1.1,0.4,2,2.2,0.9s4.9-1.8,6.8-1.8
				c1.7,0,2.1-0.2,3.1,0.4c0.2,0.1,1,0.4,1.1,0.5c1.8,0.9,6.6,4.6,5.9,6.7c-0.7,2.1-12.9,29.7-13.4,32.5s-8.9,30-10.9,32.3
				s-19,10.1-21.7,11.5"/>
			<path class="st2" d="M219.7,110.7c-0.9-0.6-0.1-0.6-0.7-1.8c-0.9-1.8-0.3,0-2.1-1.3s-2.9,0.9-3.8-2.2c-0.9-3.1-4.2-5.1-6.4-6.9
				s-2-0.2-3.1-2s-1.5-1.6-3.8-2.9c-2.2-1.3-1.3,1.3-1.8,0c-0.4-1.3-0.4-1.1-2.4-1.8c-2-0.7-2.9-0.9-4.4-2.2
				c-1.5-1.3-7.5-2.7-9.9-3.1s-2.2,0.7-4,0s-2.2-1.1-4.9-1.8c-2.6-0.7-2.6,0.2-4.2-0.4c-1.5-0.7-2-0.2-3.5-0.4
				c-1.5-0.2-1.1,0.7-2.6,0s-2.4-0.4-4,0.4c-1.3,0.8,0,0.9-0.7,0.3c0,0-0.8,2,0.1,3.1s0.7,0.7-1.1,0.9c-1.8,0.2-2.3,0.9-3.4,2.3
				c-1.1,1.4-1.1,0.9-2.7,1.4c-1.6,0.5-4.3,2.5-5.7,4.4c-1.4,1.8-1.1,4.4-1.4,7.6c-0.2,3.2,1.6,5.8,0.7,4.1s-1.4-1.6-3.4-1.6
				s-5.2,2.1-7,4.1c-1.8,2.1-2.7,4.6-3,7.6c-0.2,3,0,4.4-0.2,5.8s-0.7,2.3-0.2,4.8c0.5,2.5,0.5,1.8-0.7,3.2c-1.1,1.4-1.6,3-2.3,5.1
				c-0.7,2.1,0.7,3.2,3,3.7s54.7,8.5,57.7,9s27.9,5.3,30.7,1.4c2.7-3.9,4.1-30.4,3.4-32.3C221.3,117.1,219.7,110.7,219.7,110.7z"/>
			<path class="st3" d="M207.7,148c0.5-6.7,9.3-28.1,12.7-35.5c0.4,0.3,2,1,2.7,1.7c2.2,2.2,4.9,5.4,4.9,7.8s0,2,1.8,3.4
				c1.8,1.3,6,4.7,6.4,7.2s1.8,2.7,2.4,4.9c0.7,2.2,1.9,3.6,1.8,6.7c-0.1,2.8-0.2,2.5-0.7,5.6c-0.4,3.1,0,3.8-1.8,5.4
				c-1.8,1.6-1.1,0.7-1.5,4.3c-0.9,6.6-8.4,6.5-10.4,5.4c-4.2-2.3-7.5-2-9.5-3.6c-1.3-1-1.4-1.4-2.3-0.9"/>
			<path class="st4" d="M106.4,169.5c0.9,1.9,2.5,5.1,4.4,6.8c2,1.8,2.2,3.2,3.3,4.8c1.5,2.2,4.5,3.3,4.9,3.4
				c2.7,0.5,3.3,2.2,4.9,3.2c2.2,1.4,3.1,1.6,5.1,1.4c2-0.2,2-0.5,4.2,0.5c2.2,0.9,4,0.2,7.4-0.9c3.3-1.1,6.5-1.4,8-3.2
				c1.6-1.8,3.2-1.8,5.6-2.5c4.3-1.2,4.9-2.8,4.2-5.7s-1.8-3.2-0.9-2.7c3.6,1.8,8.3,0.2,11.6-1.1c3.3-1.4,3.5-0.1,5.4,0.3
				c2.7,0.6,3.7,0.6,5.8-0.3c1.5-0.7,1.6-1.3,2.7-0.9c2.4,0.9,4.7-0.9,7.6-2.9c2.9-2,1-1.7,3.9-0.8s6.8-1.5,9.9-3.3
				c3.1-1.8,2.5-2,3.8-1.6c1.3,0.5,2.2,0,4.5-1.6c0.5-0.3,1-0.7,1.7-1.1v-0.1c-0.5-3-19.7-37.3-33.7-48.3c-3.9,1.4-6.5,1.9-7.2,4
				s0.7,2.8-0.7,3.5s-1.6,0.5-2.1,1.6c-0.5,1.2-0.9,2.1-0.9,2.1s-0.7,0.2-2.3,1.2c-1.6,0.9-3.2,2.5-3,4.1s1.1,2.4,1.1,2.4
				s0-1.4-2.3-0.9s-3.9,1.6-3.9,1.6s-0.2,0.2-1.8,0.9c-0.5,0.2-1.5,2.7-1.5,3.3c0,0-3.2-0.7-4.6,0.9c0,0-1.6-2.2-2.6-2.5
				c-3.1-0.9-4.8,0-6.9,1.6c-2.1,1.6-2.3,2.6-4.4,3.3c-2.1,0.7-2.5,0.2-4.1,0.5c-1.6,0.2-3.4,0.9-4.4,2.3c-0.9,1.4-2.1,2.1-2.3,3.5
				c-0.2,1.4,1.6,1.2-0.2,1.4s-2.1,0.4-4.6,0.6c-2.5,0.2-4.7,0.4-6.1,1.8c-1.4,1.4-2.6,3-3.3,3.9c-0.7,0.9-1.6,1.4-1.8,3
				c-0.2,1.6,0.9,1.9-0.5,2.3c-1.4,0.5-2.3,0.9-3,2.3c-0.7,1.4-2.5,3.5-1.6,4.7s0.7,3.1,0.7,3.1"/>
			<path class="st5" d="M158.2,179.3c-0.3,1.4-1.5,2.3-4.4,3.2c-1.1,0.3-2,0.5-2.8,0.7l0.1,0.4c0.6,2.3,1.5,3.2,3,4.9
				c1.8,2,4,2.9,5.1,3.5c0.2,0.1,5.6,4.5,7.4,7.2c1.8,2.7,9.1,10,14.2,11.8c1.9,0.5,7.2-0.3,4.2-1.9c-8.6-6.3-7.3-16.3-9.4-17.5
				c-0.4-1.2-12.3-14.6-12.3-14.6l-4.9,1.7L158.2,179.3z"/>
			<path class="st6" d="M222.8,163.4c-2.5-0.8-4.5-0.9-5.8-2c-2-1.6-2.2-1.1-4.5,0.5c-2.2,1.6-3.1,2-4.5,1.6
				c-1.3-0.5-0.7-0.2-3.8,1.6s-7.1,4.2-10,3.3s-1-1.2-3.9,0.8s-5.2,3.8-7.6,3c-1.1-0.4-1.1,0.2-2.7,0.9c-2.1,1-3.1,0.9-5.8,0.3
				c-1.9-0.4-2-1.7-5.4-0.3s-8,3-11.6,1.1c-0.9-0.5,0.2-0.2,0.9,2.7c0.2,1,0.3,1.8,0.2,2.5l0.4,0.4c1.2,0.7,0.3,0.1,0.3,0.1
				c1.5,1.4,1.7,1.1,2.6,1.8c0.9,0.7,0.4,3.1,1.3,4.5c0.9,1.5,5.5,4.7,7.4,4.4c0,0,3.4,4.7,6.5,4.2c0,0,1.6,4.4,9.4,3.5
				c0,0,3.5,1.5,5.6,1.1c0,0,4.8,1.1,6.8-3c0,0,2.3-0.7,3.7-1.4c0.8-0.4,2,0,2.9-1s1.5-0.9,2.1-1.6c0.7-0.7,0.8-0.3,1.7-1.1
				s1.7-0.5,2.5-1.4s1.6-1.1,2.1-1.8c0.6-0.7,0.9-0.3,1.3-1.1c0.4-0.8,0.9-0.8,1.3-1.5c0.5-0.7,2-2.2,2.4-3c0.3-0.8,1.2-0.9,1.5-1.9
				c0.2-1,0.7-0.7,0.9-1.6c0.2-0.9,0.9-0.6,1.1-1.7c0.2-1.1,0.8-1.4,0.9-2.2c0.1-0.8,0.8-1.9,0.6-2.5s0.7-0.6,0.3-1.8
				c-0.3-1.2,0.8-1.5,0.1-2.6s0.3-2-0.4-3.2c-0.2-0.3-0.5-0.9-0.8-1.5"/>
			<g>
				<g>
					<path class="st0" d="M72.9,142.1c-1.5-1.3-2.4-3.6-1.6-5.5s3.6-2.1,5.2-1.3c1.7,0.8,1.2,3.6,1.5,5.2c0,0.3,0.4,0.6,0.5,0.8
						c0.8,1,1.4,1.6,1.8,2.8c0.1,0.2,0.3,0.1,0.3-0.1c-0.2-0.9-0.5-1.6-1.1-2.3c-0.8-0.9-1.3-1.6-1.4-2.9c0-0.5,0-1.1-0.1-1.6
						c-0.3-1.8-1.8-2.9-3.7-2.7c-1.6,0.2-3,1-3.4,2.7C70.4,139.1,71.4,141.1,72.9,142.1L72.9,142.1L72.9,142.1z"/>
				</g>
			</g>
			<g>
				<g>
					<path class="st0" d="M68.7,134.1c2.2,1.6,2.6,5.6,0.9,7.7c-0.1,0.1,0.1,0.2,0.1,0.1C71.7,139.8,70.9,135.5,68.7,134.1
						C68.7,134,68.7,134,68.7,134.1L68.7,134.1z"/>
				</g>
			</g>
			<g>
				<g>
					<path class="st0" d="M73.2,128.5c-0.8,0.5-1.6,0.9-2.5,1c-1.3,0.1-2-0.5-2.5-1.6c-0.1-0.2-0.3,0-0.3,0.1
						c0.4,2.8,3.8,1.8,5.3,0.7C73.4,128.6,73.3,128.5,73.2,128.5L73.2,128.5z"/>
				</g>
			</g>
			<g>
				<g>
					<path class="st0" d="M69.4,143.4c-0.1,2.2-0.2,4.7,1.3,6.5c1.5,1.7,2.6,3,5.1,2.9c0.6,0,0.8-0.2,1.4-0.4c0,0,1.3,1,1.7,1.2
						c0.6,0.4,1.6,0.6,2.4,0.4c0.6-0.1,1.7-0.7,2.2,0c0.2,0.3,0.4,0.6,0.7,0.9c0.8,0.7,1.9,0.9,2.9,1.1c0.2,0,0.3-0.2,0.1-0.3
						c-1.1-0.3-2.4-0.5-3.1-1.5c-0.2-0.3-0.4-0.9-0.8-0.9c-0.8-0.1-1.6,0.4-2.4,0.4c-1.5,0.1-2-1-3.1-1.7c-0.2-0.2-0.8,0.1-1,0.2
						c-1.7,0.8-3.8-0.2-4.9-1.4C69.8,148.5,69.4,146.4,69.4,143.4L69.4,143.4L69.4,143.4z"/>
				</g>
			</g>
			<g>
				<g>
					<path class="st0" d="M94,162.8c-0.6-1.1-1.2-1.6-2.5-1.6c-1.4,0-2,1.1-3.6,0.7c-1.9-0.5-4-4.1-1.3-5.2c0.2-0.1,0.1-0.4-0.1-0.3
						c-1.9,0.7-1.9,2.9-0.6,4.4c0.8,1,1.7,1.6,3,1.5c0.6,0,1.2-0.4,1.7-0.6c1.4-0.6,2.5,0,3.2,1.2C93.9,163,94.1,162.9,94,162.8
						L94,162.8z"/>
				</g>
			</g>
			<g>
				<g>
					<path class="st0" d="M71.3,160.3c1.3,1.2,3.7,2.2,5.4,1.3c2.7-1.5,4.7-6,8.5-4.2c0.2,0.1,0.4-0.2,0.2-0.3
						c-1.8-0.8-3.9-0.1-5.3,1.1c-1.1,0.9-1.9,2.1-3.1,3C75.4,162.4,72.8,161.5,71.3,160.3C71.3,160.2,71.3,160.2,71.3,160.3
						L71.3,160.3z"/>
				</g>
			</g>
			<g>
				<g>
					<path class="st0" d="M70.7,158.3c1.3,1.2,3.1,2.7,5,2.1c0.2,0,0.1-0.3-0.1-0.3C73.8,160.7,72.1,159.4,70.7,158.3
						C70.7,158.2,70.7,158.3,70.7,158.3L70.7,158.3z"/>
				</g>
			</g>
			<g>
				<g>
					<path class="st0" d="M68.7,148.4c-0.4,0.8-0.8,1.5-0.9,2.4s-0.2,1.9,0.2,2.7c0.1,0.1,0.3,0,0.2-0.1
						C67.5,151.9,68.1,149.9,68.7,148.4C68.8,148.4,68.7,148.4,68.7,148.4L68.7,148.4z"/>
				</g>
			</g>
			<g>
				<g>
					<path class="st0" d="M69.9,125.3c1.2-1.1,2.2-1.4,3.7-1.9c1.1-0.4,2.5-0.2,3.6,0.3c0.3,0.1,0.6,0.5,0.9,0.6
						c0.6,0.2,1,0.1,1.4-0.4c1.4-1.1,3.5-1.2,5-0.2c0.2,0.1,0.4-0.2,0.2-0.3c-1.2-0.8-2.4-0.7-3.7-0.7c-1.5,0-1.7,1.9-3.6,0.7
						C75,122,71.5,123.7,69.9,125.3C69.8,125.3,69.8,125.4,69.9,125.3L69.9,125.3z"/>
				</g>
			</g>
			<g>
				<g>
					<path class="st0" d="M89.2,108.3c0,1.8-2.3,3.3-3.4,4.6c-1,1.1-1.4,2.6-1.9,3.9c-0.3,0.8-0.2,1.7-0.2,2.4c0,0.7-0.2,1.6,0,2.2
						c0.5,1.8,1.3,3.6,2.2,5.3c0.1,0.2,0.4,0,0.3-0.2c-0.9-2-2.1-4-2.1-6.3c0-2.2,0.2-4.1,1.2-6c0.7-1.4,2-2.6,3.1-3.7
						C88.9,109.9,89.3,109.2,89.2,108.3C89.2,108.2,89.2,108.2,89.2,108.3L89.2,108.3z"/>
				</g>
			</g>
			<g>
				<g>
					<path class="st0" d="M86.4,105.4c-0.4,0.4-1.2,0.9-1.3,1.6c-0.1,0.6-0.1,0.3,0,0.9c0.3,1.2,0,1.2-0.6,1.9
						c-0.3,0.4-0.2,1.1-0.2,1.6c0,1.1,0.2,1.2,0.9,2.1c0.1,0.1,0.3,0,0.2-0.2c-0.4-0.6-0.8-1.2-0.8-1.9c0-1,0.5-1.5,0.9-2.3
						c0.2-0.4,0.1-0.4,0-0.8C85.1,106.7,85.6,106.4,86.4,105.4C86.5,105.4,86.4,105.3,86.4,105.4L86.4,105.4z"/>
				</g>
			</g>
			<g>
				<g>
					<path class="st0" d="M79.6,117.4c-0.8-0.6-1.4-1.3-2.2-2c-1-0.9-1-2.4-0.3-3.5c0.1-0.2-0.1-0.3-0.3-0.1c-0.6,1-0.7,2.1-0.2,3.2
						c0.2,0.5,0.9,0.9,1.3,1.3c0.5,0.5,1,0.9,1.6,1.3C79.6,117.5,79.6,117.4,79.6,117.4L79.6,117.4z"/>
				</g>
			</g>
			<g>
				<g>
					<path class="st0" d="M73.3,122.8c-1-1.2-2.6-3-1.9-4.7c0.1-0.1-0.1-0.3-0.2-0.1C70.3,119.8,72.2,121.7,73.3,122.8
						C73.3,123,73.4,122.9,73.3,122.8L73.3,122.8z"/>
				</g>
			</g>
			<g>
				<g>
					<path class="st0" d="M80.6,126.4c-0.1,2.6,0.9,4.8,2.8,6.5c1.1,0.9,2.5,1.4,3.8,2.1c1.6,0.9,2.3,2.9,2.6,4.6
						c0.1,0.3,0.4,0.1,0.4-0.1c-0.4-2.4-1.6-4.3-3.8-5.2C83,132.8,80.5,130.3,80.6,126.4L80.6,126.4L80.6,126.4z"/>
				</g>
			</g>
			<g>
				<g>
					<path class="st0" d="M93.8,148c0-0.7,0-1.4-0.4-2c-0.6-0.9-1.5-1.3-2-2.3c-0.9-1.6-1.2-3.5-1-5.3c0.2-1.6,0-3,1-4.4
						c0.7-1,1.3-2,1.8-3.2c0.4-1.2,0.3-2.6,0.6-3.9c0.3-1.8,1.7-3,3-4c1.9-1.4,5.7-1.4,5,1.9c-0.1,0.2,0.3,0.3,0.4,0.1
						c0.6-2.6-1.7-3.8-4-3.1c-2.9,0.9-4.6,3.7-4.9,6.5c-0.1,1-0.2,1.9-0.5,2.9c-0.4,1.1-1.2,2.1-1.8,3c-0.9,1.3-0.7,3.2-0.9,4.7
						c-0.2,1.6,0.3,3.1,0.9,4.5c0.2,0.4,0.6,1.4,1.1,1.6c1.3,0.6,1.7,1.6,1.7,2.9C93.7,148.1,93.8,148.1,93.8,148L93.8,148z"/>
				</g>
			</g>
			<g>
				<g>
					<path class="st0" d="M100.3,131c-0.1-0.6-0.4-1.1-0.4-1.7c0-0.9,0.5-1.2,0.9-1.9c0.6-1,1.1-1.8,1.1-2.9c0-0.2-0.3-0.2-0.3,0
						c-0.1,1.5-0.9,2.5-1.7,3.7C99.3,129.2,100,130.1,100.3,131C100.2,131.1,100.3,131,100.3,131L100.3,131z"/>
				</g>
			</g>
			<g>
				<g>
					<path class="st0" d="M106.2,126.6c-0.9,0.3-1.8,0-2.5-0.4s-1.6-0.7-1.8-1.5c0-0.2-0.3-0.1-0.3,0c0,0.8,1,1.4,1.6,1.6
						C104.2,126.6,105.1,127.2,106.2,126.6C106.3,126.6,106.3,126.5,106.2,126.6L106.2,126.6z"/>
				</g>
			</g>
			<g>
				<g>
					<path class="st0" d="M96.7,103.5c0.6,1.6-0.7,3.2-1.6,4.5c-0.5,0.8-0.5,1.9-0.8,2.8c-0.3,1.3-1.7,1.5-2.4,2.5
						c-0.6,1-1,1.8-1.3,3c-0.4,1.6,0.1,3.7,1.1,5c0.9,1.1,2.8,2.2,4.3,1.8c0.2,0,0.1-0.3,0-0.3c-2.9,0.1-4.8-2.2-5.1-4.9
						c-0.2-1.4,0.4-2.8,1.1-4c0.5-0.8,1.2-1.2,1.9-1.8c0.5-0.4,0.6-1.1,0.8-1.6c0.3-1.1,0.5-2.1,1.1-3.1
						C96.6,106.1,97.4,105,96.7,103.5C96.8,103.3,96.6,103.4,96.7,103.5L96.7,103.5z"/>
				</g>
			</g>
			<g>
				<g>
					<path class="st0" d="M85.6,121.2c0.6-0.4,0.9-0.5,1.9-0.2c-0.1,0,0.5,0.5,0.6,0.6c0.4,0.3,0.4,0.8,0.9,1c0.1,0,0.1,0,0.1-0.1
						c0.2-0.8,0.3-1.5,0.8-2.2c0.3-0.4,0.8-0.6,1.3-0.8c0.2-0.1,0-0.3-0.1-0.2c-0.6,0.3-1.1,0.6-1.5,1.2c-0.2,0.3-0.3,0.7-0.4,1
						c-0.2,0.8-0.3,0.9-0.8,0.2C87.6,120.6,86.6,120.4,85.6,121.2C85.5,121.1,85.5,121.2,85.6,121.2L85.6,121.2z"/>
				</g>
			</g>
			<g>
				<g>
					<path class="st0" d="M86.8,138c0.9,1.9-1.6,4.1-1.8,6c-0.2,1.8,0.4,3.3,1.5,4.7c1.1,1.5,2.7,2.7,4.3,3.8
						c1.8,1.2,4.1,1.5,6.1,2.2c1.9,0.7,3.5,1.3,5.6,1c2.2-0.3,4.3-1.5,6.2-2.4c3-1.5,4.7-5.4,2.6-8.4c-0.1-0.2-0.4,0-0.3,0.2
						c1.2,2.3,1,4.4-0.7,6.4c-1.1,1.3-2.8,1.9-4.2,2.6c-2,0.9-4.1,1.6-6.2,1.2c-1.9-0.3-3.7-1.3-5.5-1.8c-3.5-1-7.3-3.4-8.8-7
						c-0.8-2,0.1-3.8,1-5.5c0.5-1.1,1-1.8,0.4-3C86.9,137.9,86.8,137.9,86.8,138L86.8,138z"/>
				</g>
			</g>
			<g>
				<g>
					<path class="st0" d="M80.1,147.8c0.9,3.1,4.9,4,7.5,2.5c0.2-0.1,0-0.4-0.2-0.3C84.9,151.3,81.2,150.8,80.1,147.8
						C80.2,147.7,80.1,147.7,80.1,147.8L80.1,147.8z"/>
				</g>
			</g>
			<g>
				<g>
					<path class="st0" d="M81.9,139.3c0,1,0.3,1.9,1.1,2.5c0.8,0.6,2.2-0.1,2.3,1.2c0,0.1,0.2,0.1,0.2,0c0.2-0.7-0.3-1.1-0.9-1.1
						c-0.5-0.1-0.9,0-1.4-0.3C82.2,141.2,82,140.1,81.9,139.3C81.9,139.2,81.9,139.2,81.9,139.3L81.9,139.3z"/>
				</g>
			</g>
			<g>
				<g>
					<path class="st0" d="M95.9,151.3c0.7-0.3,1.1-0.6,1.6-1.2c0.5-0.6,0.9-1.2,1.7-1.5c0.4-0.2,0.6-0.3,0.9-0.6
						c0.4-0.4,0-1.4,0-1.8c-0.2-1.3,2.1-1.3,2.8-1.6c0.1,0,0-0.2-0.1-0.2c-0.8,0.3-2.8,0.2-2.9,1.4c0,0.4,0,0.7,0.1,1.1
						c0.3,1.4-0.9,1.3-1.5,1.8c-1,0.8-1.4,1.9-2.6,2.4C95.8,151.3,95.8,151.4,95.9,151.3L95.9,151.3z"/>
				</g>
			</g>
			<g>
				<g>
					<path class="st0" d="M90.3,167.3c1.8,0.1,2-1.4,2.7-2.7c0.6-1.3,1.2-2.4,2.4-3.2c1.5-1,2.9-0.1,3.8,1.2c0.1,0.2,0.4,0,0.3-0.2
						c-0.9-1.3-2.3-2.4-3.9-1.5c-1,0.5-1.5,1.3-2.2,2.2C92.5,164.3,92.4,167.3,90.3,167.3C90.3,167.2,90.3,167.3,90.3,167.3
						L90.3,167.3z"/>
				</g>
			</g>
			<g>
				<g>
					<path class="st0" d="M98.2,158.9c-0.6,0.8-0.6,1.9,0.2,2.7c0.1,0.1,0.1,0,0.1-0.1C97.9,160.8,97.7,159.8,98.2,158.9
						C98.3,158.9,98.3,158.9,98.2,158.9L98.2,158.9z"/>
				</g>
			</g>
			<g>
				<g>
					<path class="st0" d="M101.3,160c-0.9-0.1-1.8-0.4-2.6-0.8c-0.7-0.3-1.7-1.3-1.2-2.2c0.1-0.1-0.1-0.3-0.2-0.2
						c-0.6,0.7,0,1.7,0.6,2.2C98.8,159.7,100.1,160.1,101.3,160C101.3,160.1,101.3,160,101.3,160L101.3,160z"/>
				</g>
			</g>
			<g>
				<g>
					<path class="st0" d="M102.1,157.1c-1.2,0.2-3.9,0.7-4.6-0.9c0-0.1-0.1-0.1-0.2-0.1c-0.9,0.4-1.4,0.1-1.9-0.6
						c-0.2-0.3-0.9-1.4-0.7-1.7c0.1-0.1-0.1-0.3-0.2-0.2c-0.8,0.7,1.1,3.3,2,3.3c0.2,0,0.8-0.5,0.9-0.3s0.3,0.4,0.5,0.5
						c1.4,0.6,2.8,0.4,4.2,0.1C102.2,157.2,102.2,157.1,102.1,157.1L102.1,157.1z"/>
				</g>
			</g>
			<g>
				<g>
					<path class="st0" d="M93.5,140.4c1.8-1.2,4.2-1.5,6.3-1.6c2.4-0.2,4.3,0.6,6,2.2c0.2,0.2,0.4-0.1,0.3-0.3
						c-1.4-1.5-3.2-2.2-5.2-2.2C98.5,138.5,95.5,138.8,93.5,140.4L93.5,140.4L93.5,140.4z"/>
				</g>
			</g>
			<g>
				<g>
					<path class="st0" d="M108.5,128.1c-0.3,0.7-0.5,1.2-0.5,2c0,0.2,0.1,0.3,0.2,0.4c0.5,1.2,0.2,1.9-0.3,3
						c-0.8,1.6-1.9,3.2-2.1,5.1c-0.3,3.2,1.5,6.1,4.9,6.1c0.3,0,0.3-0.4,0-0.4c-4.9-0.5-5.5-5.5-3.3-9.1c0.5-0.8,1.2-2.1,1.3-3.1
						c0.1-0.5,0-0.8-0.1-1.3c-0.4-1-0.3-1.7,0.1-2.6C108.7,128.1,108.6,128,108.5,128.1L108.5,128.1z"/>
				</g>
			</g>
			<g>
				<g>
					<path class="st0" d="M101.3,122.5c1.4-1.7,3-2.1,5.1-2.1c1.4,0,2.5,1.3,3.9,1.5c0.3,0.1,0.6,0,0.9,0c0.3-0.1,0.6-0.2,1-0.3
						c1.2-0.4,2.3,0.3,3.1,1c1.9,1.8,2.2,4.9,1.5,7.2c-0.1,0.2,0.3,0.3,0.4,0.1c1.2-3.3-0.6-9.6-5.1-8.7c-0.8,0.2-1.1,0.5-2.1,0.3
						c-0.6-0.1-1.2-0.5-1.7-0.8c-0.6-0.3-1.2-0.6-1.9-0.6c-2.1-0.1-3.9,0.6-5.2,2.2C101.1,122.5,101.3,122.6,101.3,122.5
						L101.3,122.5z"/>
				</g>
			</g>
			<g>
				<g>
					<path class="st0" d="M119.5,122.7c0.3,2.3-0.8,3.3-1.8,5.1c-0.4,0.6-0.8,1.1-1.1,1.8c-0.3,0.6-0.3,1.4-0.5,2
						c-0.4,1.6-2.7,2.9-3.7,4.1c-0.8,1-1.4,2.1-1.9,3.3c-0.9,2.4-0.6,5.4,1.1,7.3c0.4,0.4,0.8,0.7,1.2,0.9c0.3,0.2,1.3,0.2,1.4,0.6
						c0.3,1,0.7,1.4,1.7,1.9c0.3,0.1,0.5-0.2,0.2-0.4c-0.9-0.4-1.3-1-1.6-2.1c0-0.1-0.1-0.2-0.2-0.2c-3.9-0.3-4.4-5-3.4-8
						c0.8-2.6,2.9-4.2,4.7-6c0.5-0.6,0.8-1.1,0.9-1.8c0.1-0.4,0.5-2,0.5-1.9c0.3-0.7,0.8-1.2,1.1-1.9
						C119.3,125.7,120,124.8,119.5,122.7C119.6,122.6,119.5,122.6,119.5,122.7L119.5,122.7z"/>
				</g>
			</g>
			<g>
				<g>
					<path class="st0" d="M102.4,115.8c1.3-1,2.4-2,4.1-2.1c1.5-0.1,2.4,0.8,3.7,1.1c2.7,0.5,6.5-2.1,8.7,0.4
						c0.2,0.2,0.5-0.1,0.4-0.3c-1.8-2.6-6.2-0.5-8.6-0.6c-0.8,0-1.5-0.5-2.3-0.8s-1.6-0.2-2.4-0.2c-1.5,0.1-2.6,1.3-3.7,2.2
						C102.2,115.7,102.3,115.8,102.4,115.8L102.4,115.8z"/>
				</g>
			</g>
			<g>
				<g>
					<path class="st0" d="M116.2,143.9c2-2.7,1.7-6.3,1.6-9.5c0-1.2-0.1-2.4,0.2-3.6c0.2-0.9,0.7-1.7,1-2.5c0.7-1.6,0.9-3,0.7-4.8
						c-0.1-0.8-0.5-1.6-0.7-2.4c-0.3-1.1-0.2-2.3-0.2-3.4c0.1-2.1,1-4,2.1-5.7c0.7-1,1.6-1.9,2.7-2.6c0.9-0.5,1.9-0.4,2.9-0.5
						c0.6-0.1,1-0.4,1.5-0.8c1.2-1.2,2.2-1.9,4-1.9c0.3,0,0.3-0.5,0-0.5c-1.8,0-2.6,0.5-3.9,1.7c-1.1,1.1-2.1,1.1-3.5,1.2
						c-0.8,0.1-1.6,0.6-2.2,1.1c-2.5,1.8-3.8,5.6-4,8.6c-0.1,2.2,0.8,4.1,1,6.3c0.2,2.1-1,4-1.7,6c-0.6,1.8-0.1,4.1,0,6
						c0.1,2.6,0.1,5-1.4,7.2C116,143.9,116.1,144,116.2,143.9L116.2,143.9z"/>
				</g>
			</g>
			<g>
				<g>
					<path class="st0" d="M132.4,87.8c1.5,2.5-1.5,3.2-2.8,4.4c-1.2,1.1-1.5,2.9-2.8,3.8c-1.7,1.2-3.8,0.9-4.7,3.2
						c-1.4,3.6,1.2,9.4,5.6,8.9c0.3,0,0.3-0.4,0-0.4c-3.1-0.2-5.3-2.7-5.6-5.7c-0.1-1.2,0.2-2.3,0.8-3.3c0.8-1.3,2.1-1.4,3.4-2
						c0.6-0.3,1.3-0.6,1.6-1.2c0.9-1.6,1.6-3.1,3.3-4.1c1.6-0.9,2.5-2,1.3-3.7C132.5,87.6,132.4,87.7,132.4,87.8L132.4,87.8z"/>
				</g>
			</g>
			<g>
				<g>
					<path class="st0" d="M132.7,103.8c-0.6,0-1.1,0.3-1.5,0.7c-0.3,0.3-0.8,1-0.6,1.4c0.1,0.1,0.2,0.1,0.3,0s0.1-0.3,0.1-0.5
						c0.1-0.3,0.2-0.5,0.4-0.7c0.3-0.4,0.8-0.7,1.2-0.7C132.9,104,132.9,103.8,132.7,103.8L132.7,103.8z"/>
				</g>
			</g>
			<g>
				<g>
					<path class="st0" d="M86.5,104.8c0.8-0.6,1.6-1.2,2.5-1.6c1.1-0.4,2.4-0.3,3.6-0.3c1.3-0.1,2.5-0.9,3.6-1.5
						c1.6-0.8,3.9-0.8,5.7-0.3c2.4,0.7,2.7,2.9,2.7,5c0,0.2,0.4,0.3,0.4,0.1c0.2-1.5,0-3-1-4.2c-1.2-1.5-3.3-1.5-4.9-1.5
						c-2.4,0-3.8,1.5-6,2.1c-1.3,0.4-2.7,0.1-4.1,0.5c-1,0.3-1.8,1-2.6,1.7C86.3,104.8,86.4,104.9,86.5,104.8L86.5,104.8z"/>
				</g>
			</g>
			<g>
				<g>
					<path class="st0" d="M98.5,111.4c1.5-1.6,2.5-3.1,4.5-4.1c2.7-1.3,4.9-1.3,7.6-0.1c0.2,0.1,0.4-0.2,0.2-0.3
						c-1.6-1.1-4.6-1.6-6.5-0.7c-1.2,0.6-2.4,1.1-3.4,2s-1.7,2.2-2.6,3.2C98.3,111.3,98.5,111.5,98.5,111.4L98.5,111.4z"/>
				</g>
			</g>
			<g>
				<g>
					<path class="st0" d="M122.5,89.7c-1,3.2-4.2,3.4-7.1,3.1c-1.9-0.2-3.8,0.4-5.3,1.7c-1.7,1.4-2.3,3.7-3.8,5.3
						c-0.6,0.6-1.2,0.9-1.6,1.7c-0.4,0.8-0.3,1.9-0.3,2.7c0,0.3,0.4,0.3,0.4,0c0-1.6,0.2-2.7,1.4-3.8c0.7-0.6,1.1-1.2,1.5-1.9
						c0.8-1.1,1.2-2.4,2.2-3.4c1.2-1.1,2.7-1.8,4.3-1.9c1.2-0.1,2.5,0.1,3.8,0.2c0.7,0,1.6-0.4,2.2-0.7
						C121.7,92,122.2,91.2,122.5,89.7C122.6,89.6,122.6,89.6,122.5,89.7L122.5,89.7z"/>
				</g>
			</g>
			<g>
				<g>
					<path class="st0" d="M109.4,90.3c-0.5,0.8-0.7,1.7-0.8,2.6c-0.1,0.9,0.7,1.6,1.3,2.1c0.2,0.1,0.4-0.1,0.2-0.2
						c-0.6-0.7-1.3-1.1-1.3-2.1C108.9,91.9,109.1,91.1,109.4,90.3C109.5,90.3,109.4,90.3,109.4,90.3L109.4,90.3z"/>
				</g>
			</g>
			<g>
				<g>
					<path class="st0" d="M104.6,97.3c-0.2-0.9-0.5-1.7-1.3-2.2c-0.9-0.6-1.8-0.8-2.7-0.1c-0.2,0.1,0,0.5,0.2,0.3
						c0.9-0.6,1.7-0.4,2.6,0.1C104.1,95.8,104.4,96.6,104.6,97.3C104.5,97.4,104.6,97.4,104.6,97.3L104.6,97.3z"/>
				</g>
			</g>
			<g>
				<g>
					<path class="st0" d="M125.4,86.8c-0.9-0.2-1.3-0.5-2.3-0.5c-0.8,0-1.5,0.3-2.1,0.6c-0.5,0.2-0.4,1-1.4,0.5
						c-0.3-0.1-0.6-0.3-0.9-0.3c-1.1,0-2,0.1-3.1,0.4c-0.3,0.1-0.2,0.5,0.1,0.4c1.1-0.4,2.5-0.7,3.6-0.2c0.2,0.1,0.6,0.4,0.9,0.3
						c0.9-0.4,1.4-1.1,2.4-1.4C123.7,86.3,124.4,86.8,125.4,86.8C125.4,86.9,125.4,86.8,125.4,86.8L125.4,86.8z"/>
				</g>
			</g>
			<g>
				<g>
					<path class="st0" d="M132.2,84.7c0.2,0.4,0,0.7,0.4,1c0.7,0.5,1.4,0.9,2.3,1.1c0.9,0.2,1.5,0.2,2.1,1.1c0.3,0.4,0.4,0.7,0.7,1
						c0.2,0.2,0.5,0.3,0.7,0.4c0.9,0.4,1.7,1.2,1.2,2.3c-0.1,0.2,0.2,0.4,0.3,0.2c1-1.7-0.3-2.4-1.7-2.9c-0.5-0.2-0.8-1-1.2-1.4
						c-0.3-0.4-0.8-0.6-1.2-0.7c-0.7-0.3-1.4-0.2-2.1-0.6C133.1,85.7,132.8,85.3,132.2,84.7C132.3,84.6,132.2,84.6,132.2,84.7
						L132.2,84.7z"/>
				</g>
			</g>
			<g>
				<g>
					<path class="st0" d="M144,85.5c0,1.1,0,2.1-0.6,3c-0.7,1-1.8,1.8-2.8,2.4c-1.5,0.9-3.1,1.7-4.6,2.7c-1.7,1.2-3.4,4.1-1.4,5.8
						c0.2,0.2,0.5-0.1,0.3-0.3c-2-1.7,0.2-4.3,1.7-5.3c1.2-0.9,2.4-1.5,3.8-2.2c1-0.5,2.5-1.5,3.2-2.4c0.9-1.3,0.9-2.1,0.8-3.6
						C144.3,85.4,144,85.4,144,85.5L144,85.5z"/>
				</g>
			</g>
			<g>
				<g>
					<path class="st0" d="M126.1,99.3c0.2,1,1.5,1.9,2.5,1.6c0.6-0.2,1.1-0.6,1.6-1c1.2-1,2.7-1.2,4.1-0.6c0.2,0.1,0.3-0.2,0.2-0.4
						c-0.9-0.7-2.1-0.5-3.1-0.2c-0.4,0.1-0.9,0.4-1.2,0.6c-1,0.9-3.3,2.2-3.9-0.1C126.3,99.1,126.1,99.2,126.1,99.3L126.1,99.3z"/>
				</g>
			</g>
			<g>
				<g>
					<path class="st0" d="M150.1,86.3c-0.3,0.1-1.2,0.3-1.4,0.5c-0.5,0.5-0.8,1.2-1.3,1.8c-0.8,1-2.2,0-3.2,0
						c-0.6,0-1.1,0.3-1.6,0.7c-0.2,0.2,0.1,0.5,0.3,0.3c1.5-1.2,2.9,0.2,4.5-0.4c0.4-0.2,0.7-0.9,0.9-1.2c0.5-0.8,1-1.1,1.9-1.5
						C150.3,86.5,150.2,86.3,150.1,86.3L150.1,86.3z"/>
				</g>
			</g>
			<g>
				<g>
					<path class="st0" d="M140.2,93.3c-1,0.6-1.3,1.9-0.7,2.9c0.7,1.2,2.5,2.3,3.7,2.8c0.2,0.1,0.4-0.3,0.2-0.4
						c-0.8-0.4-1.5-0.8-2.2-1.2c-1.2-0.9-2.7-2.7-0.9-4C140.4,93.4,140.3,93.3,140.2,93.3L140.2,93.3z"/>
				</g>
			</g>
			<g>
				<g>
					<path class="st0" d="M159.4,85.7c-0.6,2-1.8,2.1-3.6,2.6c-0.6,0.2-1.5,0.7-2,1.1c-0.4,0.4-0.7,0.7-1.1,1.2
						c-0.8,1-1.6,1.2-2.8,1.4c-1.3,0.2-2.4,1.3-3.5,2c-2.2,1.6-2.6,3.5-3,6.1c-0.2,1.3-0.2,2.6-0.2,3.9c0,1.5-0.1,2.7,0.5,4
						c0.1,0.2,0.5,0.1,0.4-0.1c-0.8-2.7-0.5-6-0.1-8.8c0.3-1.7,0.7-3,1.9-4.2c1.1-1.1,2.9-2.5,4.6-2.7c0.8-0.1,1.3-0.2,1.8-0.7
						c0.5-0.4,0.9-1.2,1.4-1.7c0.5-0.6,1-0.4,1.5-0.9c0.8-0.7,2.2-0.8,3.2-1.3C159.1,87.4,159.3,86.5,159.4,85.7L159.4,85.7
						L159.4,85.7z"/>
				</g>
			</g>
			<g>
				<g>
					<path class="st0" d="M146.2,111.9c-0.6-1.6-1.9-2.8-2.6-4.4c-0.1-0.2-0.3-0.1-0.3,0.1c0.2,0.8,0.6,1.5,1.1,2.1
						c0.6,0.7,1.1,1.5,1.5,2.3C146,112.1,146.2,112.1,146.2,111.9L146.2,111.9z"/>
				</g>
			</g>
			<g>
				<g>
					<path class="st0" d="M131.2,134c-1.3-3-1.9-5.7-1.1-8.9c0.6-2.3,0.4-4.7,0.4-7c0-2.9,1.9-5.6,3.8-7.7c1-1.1,2.1-1.9,3.4-2.6
						c2-1.1,3.6-0.8,5.4,0.3c0.3,0.2,0.5-0.3,0.2-0.4c-1.2-0.7-2.3-1.2-3.7-1c-1.2,0.1-2.6,1-3.5,1.7c-2.2,1.5-4.2,4-5.2,6.5
						c-1.3,3.4-0.4,6.8-1.1,10.2C129.1,128.3,129.6,131.1,131.2,134C131.2,134.1,131.2,134.1,131.2,134L131.2,134z"/>
				</g>
			</g>
			<g>
				<g>
					<path class="st0" d="M129.8,131.2c-1.3,2.5-3.4,5-3.1,8c0.3,2.6,2.9,2.2,4.8,1.7c1.6-0.4,3.2-0.8,4.8-1
						c1.5-0.2,2.8-0.6,3.9-1.6c2-1.7,2.4-4.9,2.4-7.3c0-0.3-0.5-0.3-0.5,0c-0.1,2.1-0.4,4.1-1.5,5.9c-1.6,2.6-4.7,2.3-7.2,2.9
						c-2.3,0.6-6.2,2.5-6.4-1.4C126.9,135.8,128.8,133.4,129.8,131.2C130,131.1,129.9,131.1,129.8,131.2L129.8,131.2z"/>
				</g>
			</g>
			<g>
				<g>
					<path class="st0" d="M139.8,128.8c1.1,1.7,2.7,1.8,4.4,2.6c1.6,0.8,2.4,2.7,4.2,3.2c0.2,0,0.3-0.2,0.1-0.3
						c-1.4-0.8-2.5-2-3.8-3c-0.5-0.4-1.1-0.5-1.7-0.7C141.8,130.3,140.6,129.7,139.8,128.8C139.8,128.7,139.7,128.8,139.8,128.8
						L139.8,128.8z"/>
				</g>
			</g>
			<g>
				<g>
					<path class="st0" d="M134.4,124c1.3,0.6,2.5,1,4,0.6c1.6-0.4,3-1.5,3.8-2.9c0.1-0.2-0.2-0.4-0.3-0.2c-1.6,2.7-4.5,3.5-7.4,2.4
						C134.4,123.9,134.3,124,134.4,124L134.4,124z"/>
				</g>
			</g>
			<g>
				<g>
					<path class="st0" d="M139.2,117.5c0.5-0.3,1-0.7,1.7-0.8c0.8-0.1,1.5,0.4,2.1,0.8c0.1,0.1,0.3-0.1,0.2-0.2
						c-0.6-0.6-1.2-0.9-2-0.9C140.3,116.4,139.7,116.9,139.2,117.5C139.1,117.4,139.1,117.5,139.2,117.5L139.2,117.5z"/>
				</g>
			</g>
			<g>
				<g>
					<path class="st0" d="M139.2,111.4c1.6,0.1,2.6,1.1,3.3,2.4c0.5,0.9,0.8,2.4,0.2,3.3c-0.1,0.2,0.1,0.4,0.3,0.2
						c0.8-0.9,0.3-2.6-0.1-3.6C142.1,112.4,140.8,111.3,139.2,111.4C139.1,111.3,139.1,111.3,139.2,111.4L139.2,111.4z"/>
				</g>
			</g>
			<g>
				<g>
					<path class="st0" d="M142.9,117.3c2.7-0.4,5.3,1.3,6.6,3.5c0.3,0.5,0.7,0.8,1.2,1.1c1.2,0.8,1.9,1.7,2.8,2.8
						c1.1,1.5,0.8,3.8,1.1,5.6s1.1,2.7,2.5,3.7c0.2,0.1,0.4-0.2,0.3-0.3c-1.2-1-2-1.9-2.4-3.5c-0.3-1.1-0.3-2.4-0.4-3.6
						c-0.1-0.5-0.1-1.3-0.4-1.7c-0.6-0.7-1.2-2.2-2-2.6c-1.2-0.7-2.1-1.2-2.9-2.4c-0.4-0.6-0.9-1-1.5-1.4c-1.6-1-3.1-1.7-5-1.4
						C142.7,117.1,142.7,117.3,142.9,117.3L142.9,117.3z"/>
				</g>
			</g>
			<g>
				<g>
					<path class="st0" d="M163.1,117.7c-1-0.6-1.9-1.5-3.1-1c-0.1,0.1-1.1,0.8-1,0.7c-1.1,0.7-1.1-0.1-1.7-0.3
						c-0.5-0.1-0.9,0.1-1.3,0.3c-2.5,1.3-4.1,4.7-2.6,7.2c0.1,0.2,0.5,0,0.4-0.2c-0.8-1.6-0.5-2.5,0-4c0.5-1.4,2.3-3.5,4-2.6
						c0.5,0.3,1,0.1,1.4-0.1c0.1-0.1,1.1-0.8,1-0.7c0.8-0.6,2.1,0.5,2.8,0.9C163.1,118.1,163.3,117.8,163.1,117.7L163.1,117.7z"/>
				</g>
			</g>
			<g>
				<g>
					<path class="st0" d="M156.7,117.5c-1.6-2.1-2.1-4.2-2.3-6.9c-0.2-2.4-0.5-4.7,0-7.1c0.5-2.3,2.2-4,4.2-5
						c2.5-1.3,4.8-1.1,7.4-0.5c1.7,0.4,3.5,0.8,5.3,0.5c2.3-0.4,4.5-1,6.9-0.8c2.3,0.2,4.5-0.1,6.7-0.2c2.9-0.2,4.1,1.3,4.6,4
						c0.1,0.3,0.5,0.2,0.5-0.1c-0.3-1.5-0.7-2.9-2.1-3.8c-1.9-1.3-5.2-0.2-7.3-0.1c-1.4,0.1-2.8-0.2-4.2-0.2c-1.2,0-2.4,0.3-3.5,0.6
						c-3.3,0.7-5.9-0.2-9.1-0.6c-4.3-0.5-8.5,2.1-9.7,6.2c-0.8,2.6-0.2,5.7,0,8.4c0.2,2.3,0.9,4.1,2.4,5.9
						C156.6,117.9,156.8,117.7,156.7,117.5L156.7,117.5z"/>
				</g>
			</g>
			<g>
				<g>
					<path class="st0" d="M157.6,87.9c-0.2-0.6-0.6-1-0.8-1.6s0.4-1.1,0.6-1.6c0-0.1-0.2-0.3-0.3-0.1c-0.2,0.5-0.6,0.9-0.7,1.4
						c-0.1,0.7,0.6,1.4,0.9,2C157.4,88.1,157.7,88.1,157.6,87.9L157.6,87.9z"/>
				</g>
			</g>
			<g>
				<g>
					<path class="st0" d="M162.6,84.1c1.6,0.6,2.2,1.4,2.7,3c0.2,0.6,0.6,0.9,1.1,1.2c1,0.7,2.2,0.8,3.1,1.6c1.1,0.9,1.3,3,0.5,4
						c-0.2,0.2,0.2,0.4,0.4,0.2c1.4-1.9,0-4.3-1.8-5.3c-0.6-0.4-1.4-0.4-2.1-0.8c-0.9-0.5-0.9-1.4-1.1-2.2c-0.3-1-1.8-1.6-2.7-1.9
						C162.6,83.9,162.5,84,162.6,84.1L162.6,84.1z"/>
				</g>
			</g>
			<g>
				<g>
					<path class="st0" d="M178.4,93.1c-0.9-0.8-1.8-1.2-3-1.2c-1.9-0.1-2.7,1.8-4.4,2c-1.2,0.2-2.5-0.1-3.6,0.8
						c-0.7,0.6-1.8,1.7-1.7,2.7c0,0.2,0.4,0.3,0.4,0c-0.2-1.3,1.7-2.6,2.7-2.9s2.1-0.1,3.1-0.4c0.7-0.2,1.3-1,1.9-1.4
						C175.2,91.7,177,92.3,178.4,93.1C178.4,93.3,178.4,93.2,178.4,93.1L178.4,93.1z"/>
				</g>
			</g>
			<g>
				<g>
					<path class="st0" d="M180.6,89.9c0,0.5,0,0.9-0.6,1.2c-0.4,0.2-0.9,0.4-1.3,0.6c-0.8,0.3-1.5-0.1-2.2,0.6
						c-0.1,0.1,0,0.3,0.2,0.2c0.6-0.4,1.1-0.2,1.7-0.4c0.5-0.1,0.9-0.4,1.3-0.5c0.9-0.4,1.1-0.7,1.1-1.6
						C180.8,89.7,180.6,89.7,180.6,89.9L180.6,89.9z"/>
				</g>
			</g>
			<g>
				<g>
					<path class="st0" d="M178.3,93.7c0.4,0.1,0.8,0.1,1.2,0.1c0.7,0,1.3,0.6,1.7,1c0.8,0.8,0.9,1.9,1.4,2.8c0.1,0.2,0.4,0,0.3-0.1
						c-0.4-1-0.7-2.1-1.6-2.9c-0.3-0.3-0.7-0.6-1.1-0.8C179.7,93.6,179.1,93.7,178.3,93.7C178.3,93.6,178.3,93.7,178.3,93.7
						L178.3,93.7z"/>
				</g>
			</g>
			<g>
				<g>
					<path class="st0" d="M183,87.7c-0.5,0.4-1,0.7-1.7,0.7c-0.8,0.1-1.2-0.4-1.6-0.9c-0.4-0.5-0.9-0.8-1.6-0.8
						c-0.2,0-0.2,0.4,0,0.4c1.3,0.1,1.5,1.4,2.6,1.6C181.6,88.8,182.5,88.3,183,87.7C183.2,87.7,183.1,87.6,183,87.7L183,87.7z"/>
				</g>
			</g>
			<g>
				<g>
					<path class="st0" d="M181.6,92c1.5-0.2,2.8-0.2,4.2,0.4c0.8,0.4,1.2,1.4,1.9,2c0.2,0.2,0.9,0.2,1.2,0.2c1.7-0.3,3-0.5,4.6,0.3
						c0.2,0.1,0.4-0.2,0.2-0.3c-0.7-0.3-1.4-0.6-2.2-0.7c-1.6-0.2-3.2,1-4.4-0.5c-1.4-1.8-3.4-1.9-5.6-1.6
						C181.4,91.8,181.4,92,181.6,92L181.6,92z"/>
				</g>
			</g>
			<g>
				<g>
					<path class="st0" d="M195.2,102.1c-0.2-0.5-0.4-1.1-0.5-1.6c-0.7-2,1.5-2,2.4-2c0.5,0,1.1-0.1,1.5-0.4c0.4-0.4,0.8-0.9,0.8-1.5
						c0-1.1-1-2-0.8-3.1c0-0.3-0.4-0.3-0.4,0c-0.1,1.1,0.7,1.6,0.9,2.6c0.3,2.3-2.1,1.9-3.4,2.2c-2,0.4-0.9,2.5-0.5,3.7
						C195.1,102.2,195.2,102.2,195.2,102.1L195.2,102.1z"/>
				</g>
			</g>
			<g>
				<g>
					<path class="st0" d="M202.3,101.7c-0.1-0.6,0-1.2-0.2-1.8c-0.1-0.5-0.6-0.9-0.8-1.4c-0.4-0.7-1.3-1.4-2.1-1.4
						c-0.2,0-0.2,0.3,0,0.4c1.1,0.1,1.7,1.1,2.3,1.9c0.5,0.7,0.4,1.5,0.7,2.4C202.2,101.8,202.3,101.8,202.3,101.7L202.3,101.7z"/>
				</g>
			</g>
			<g>
				<g>
					<path class="st0" d="M199.5,112.4c0.6-1.4,0.6-3.3-0.1-4.7c-0.3-0.7-0.7-1.2-1.2-1.7c-0.9-0.9-1.6-1.9-2.2-3.1
						c-1.4-2.6-4.5-3.5-6.7-1.4c-2.1,2-1.7,6.1-1.9,8.7c-0.3,2.5-0.2,5-0.5,7.6c-0.3,2.7,1,5.4,0.3,8c-0.1,0.3,0.4,0.4,0.5,0.1
						c0.4-1.3,0.2-2.5,0-3.8c-0.4-2.2-0.3-4.1-0.1-6.3c0.2-3.4,0.4-6.7,0.7-10c0.1-1.4,0.4-2.9,1.4-4c1.7-2,4.4-1,5.8,0.8
						c0.9,1.2,1.3,2.6,2.5,3.6C199.7,107.7,200,110.3,199.5,112.4C199.4,112.5,199.5,112.5,199.5,112.4L199.5,112.4z"/>
				</g>
			</g>
			<g>
				<g>
					<path class="st0" d="M162.2,109.8c3.6,0.1,6.1,2.9,7.2,6c0.5,1.4,0.5,3,0.5,4.4c0,0.7-0.4,1.3-0.4,2c0,0.8-0.1,1.4-0.4,2.1
						c-0.1,0.2,0.2,0.3,0.3,0.1c0.7-1.1,0.8-2.9,0.9-4.2c0.1-1.5-0.2-3.7-0.8-5.1C168.2,112.2,165.7,109.7,162.2,109.8
						C162.1,109.7,162.1,109.8,162.2,109.8L162.2,109.8z"/>
				</g>
			</g>
			<g>
				<g>
					<path class="st0" d="M171.5,102c1.3-0.7,2.5-0.4,3.1,0.9c0.2,0.4,0.4,0.8,0.8,1c0.4,0.2,0.8,0.4,1.3,0.4s1.4,0,1.8,0.2
						c0.7,0.3,1.1,1.1,1.5,1.7c0.1,0.2,0.4,0,0.3-0.2c-0.4-1-1-1.6-2-2c-1.3-0.5-2.5,0.3-3.4-1.3C174,101.3,173,101,171.5,102
						C171.4,101.9,171.4,102,171.5,102L171.5,102z"/>
				</g>
			</g>
			<g>
				<g>
					<path class="st0" d="M183.6,107.1c-0.2,1.1-0.2,2.2-0.6,3.3c-0.6,1.4-1.9,2.1-3.3,2.5c-1.8,0.5-3.8,0.9-5.3,2.2
						c-1.3,1.1-1.9,3-2.2,4.7c-0.1,0.6-2.1,2.2-2.6,2.8c-0.4,0.5-0.7,1-0.8,1.6c0,0.2,0.4,0.3,0.4,0.1c0.4-2,2.7-2.5,3.4-4.4
						c0.4-1,0.5-2,1-3c0.8-1.6,2.1-2.3,3.8-2.9c1.6-0.5,3.4-0.9,4.7-2c1.5-1.2,1.5-3.1,1.7-4.8C183.9,107,183.6,107,183.6,107.1
						L183.6,107.1z"/>
				</g>
			</g>
			<g>
				<g>
					<path class="st0" d="M186.4,111.5c-0.4-1.5-2.6-1.4-3.4-0.3c-0.1,0.1,0.1,0.3,0.2,0.2C184.1,110.8,185.7,110,186.4,111.5
						C186.3,111.6,186.4,111.6,186.4,111.5L186.4,111.5z"/>
				</g>
			</g>
			<g>
				<g>
					<path class="st0" d="M162.8,123.1c-1,1.1-1.1,2.8-1,4.2c0.1,1.2,1.1,2,2.2,2.4c0.2,0.1,0.3-0.3,0.1-0.4
						c-1.3-0.5-1.9-1.3-2.1-2.7C161.9,125.4,162.1,124.1,162.8,123.1C162.9,123.1,162.8,123.1,162.8,123.1L162.8,123.1z"/>
				</g>
			</g>
			<g>
				<g>
					<path class="st0" d="M170.4,124.6c-2.1-0.1-5.1,0.4-6,2.7c-0.7,1.7-1,3.8,0.9,4.8c0.3,0.1,0.5-0.3,0.2-0.4
						c-1.8-1-1.4-3.1-0.7-4.7c0.9-1.8,3.8-2.3,5.5-2.3C170.5,124.7,170.5,124.6,170.4,124.6L170.4,124.6z"/>
				</g>
			</g>
			<g>
				<g>
					<path class="st0" d="M164.4,131.3c-1.3-0.6-1.8-0.6-3.2-0.4c-1.2,0.2-1.7,1.7-2.8,2.1c-1.7,0.6-3.7,2.3-2.3,4.2
						c0.1-0.1,0.2-0.2,0.3-0.3c-0.8-0.9-2.1-1.3-3.3-0.8c-0.8,0.3-2.1,0.9-2.3,1.9c0,0.2,0.3,0.2,0.4,0.1c0.8-1.8,3.6-2,4.8-0.8
						c0.2,0.2,0.5-0.1,0.3-0.3c-1.7-2.4,1.5-3.2,2.9-3.9c0.1-0.1,0.3-0.1,0.4-0.3c0.8-1.9,2.9-2.1,4.5-1.3
						C164.4,131.6,164.5,131.4,164.4,131.3L164.4,131.3z"/>
				</g>
			</g>
			<g>
				<g>
					<path class="st0" d="M140.3,137.9c1.5-1.1,3-2.1,4.8-2.7c2.5-0.8,5.5,0,5.9,2.9c0,0.2,0.4,0.2,0.4-0.1c0-2.4-2-3.1-4-3.4
						c-2.6-0.4-5.3,1.6-7.2,3.1C140,137.7,140.2,137.9,140.3,137.9L140.3,137.9z"/>
				</g>
			</g>
			<g>
				<g>
					<path class="st0" d="M167.2,129.5c1.1-0.2,2.1-0.5,3.2-0.2c1,0.3,2.1,1,2.9,1.6c1,0.7,2.2,1.4,2.6,2.6c0.3,0.7,0,1.7,0,2.5
						c0,0.3,0.4,0.3,0.5,0c0-1,0.2-2-0.2-3c-0.3-1-1.5-1.5-2.3-2.1c-1.1-0.8-2.3-1.5-3.5-1.9c-1.1-0.4-2.2,0-3.3,0.3
						C167.1,129.4,167.1,129.5,167.2,129.5L167.2,129.5z"/>
				</g>
			</g>
			<g>
				<g>
					<path class="st0" d="M174.5,127.8c1.9,0.3,2.6-1,3.9-2c0.8-0.7,1.5-1.8,1.9-2.8c0.7-2.1,2.9-3,5-2.9c0.3,0,0.3-0.4,0-0.4
						c-2.1-0.1-3.7,0.6-5,2.4c-0.4,0.5-0.5,1.2-0.8,1.8c-0.4,0.8-1,1.5-1.6,2.1C176.8,127,176.2,128,174.5,127.8
						C174.4,127.6,174.4,127.7,174.5,127.8L174.5,127.8z"/>
				</g>
			</g>
			<g>
				<g>
					<path class="st0" d="M175.2,132.4c2.1-1.4,3.6-3.7,6-4.6c0.9-0.4,1.8-0.4,2.7-0.8c1-0.4,2.1-1.1,3.3-0.9
						c1.8,0.3,0.9,3.9,0.7,4.8c-0.3,1.3-1,2.5-1.7,3.7c-1.6,2.6-4,4.9-7,5.8c-2.4,0.7-5.3,0.4-7.8,0.5c-2.4,0.1-4.6,0.1-6.9,1
						c-2,0.8-3.6,2.5-5.5,3.5c-1,0.6-2.2,0.6-3.3,1.1c-0.9,0.4-1.6,1-2.3,1.7c-0.2,0.2,0.1,0.6,0.4,0.4c1.9-2.1,4.9-2.3,7.2-3.9
						c1.4-1,2.6-1.9,4.2-2.6c1.6-0.6,3.3-0.7,5-0.7c2.8,0,5.9,0,8.7-0.5c2.6-0.5,4.8-2.2,6.4-4.2c1.7-1.9,2.9-4.3,3.4-6.8
						c0.3-1.4,0.4-3.6-1.2-4.2c-0.7-0.3-1.6,0.1-2.2,0.3c-1.2,0.4-2.3,0.8-3.5,1.2c-2.7,0.9-4.2,3.4-6.5,4.9
						C174.9,132.3,175.1,132.5,175.2,132.4L175.2,132.4z"/>
				</g>
			</g>
			<g>
				<g>
					<path class="st0" d="M147.1,138.6c-1,0.9-1.6,1.2-1.5,2.6c0.1,1.2,1.1,2.1,1.9,2.8c1,0.8,2.3,1.3,3.4,2
						c1.3,0.8,2.1,1.5,3.6,1.4c0.3,0,0.3-0.5,0-0.5c-2-0.1-3.4-1.5-5.1-2.4c-0.8-0.5-1.6-0.8-2.3-1.4c-0.7-0.6-1.1-1.4-1.2-2.3
						c-0.1-0.7,0.9-1.6,1.4-2.1C147.2,138.6,147.1,138.5,147.1,138.6L147.1,138.6z"/>
				</g>
			</g>
			<g>
				<g>
					<path class="st0" d="M138.7,144.3c0.7-0.2,1.3-0.4,2-0.7c0.9-0.3,2-0.1,2.9-0.1c1.4,0,3.7-0.3,4.8,0.9c0.2,0.2,0.4-0.1,0.3-0.3
						c-0.7-0.8-2.4-1-3.5-1c-1.2,0-2.4,0.1-3.6,0.2C140.7,143.3,139.7,144,138.7,144.3L138.7,144.3L138.7,144.3z"/>
				</g>
			</g>
			<g>
				<g>
					<path class="st0" d="M152.1,152.5c0.7,0.3,1.6-0.1,1.8-0.8c0.1-0.4,0.2-1.1,0.1-1.5c-0.1-0.3-0.7-1.5-0.3-1.8
						c0.2-0.2-0.1-0.4-0.3-0.3c-0.5,0.4-0.1,0.8,0,1.3c0,0.2,0.2,0.5,0.3,0.7c0.1,0.3,0,0.4,0,0.8c0,0.9-0.6,1.8-1.5,1.5
						C152,152.3,152,152.4,152.1,152.5L152.1,152.5z"/>
				</g>
			</g>
			<g>
				<g>
					<path class="st0" d="M154.9,153.2c-0.4-0.8-0.8-1.6-0.8-2.6c0-0.2-0.2-0.2-0.2,0c0,1,0.5,1.8,0.9,2.7
						C154.9,153.4,155,153.3,154.9,153.2L154.9,153.2z"/>
				</g>
			</g>
			<g>
				<g>
					<path class="st0" d="M161.1,133.8c-0.7,1.8-0.1,3.2,1.1,4.6c0.8,0.9,1.7,1.4,2.6,2.3c0.6,0.6,1.3,0.9,2.1,1
						c0.2,0,0.3-0.4,0.1-0.4c-0.9-0.1-1.5-0.6-2.2-1.2c-0.5-0.5-1.2-0.8-1.8-1.2C161.5,137.6,160.6,135.7,161.1,133.8
						C161.2,133.8,161.1,133.7,161.1,133.8L161.1,133.8z"/>
				</g>
			</g>
			<g>
				<g>
					<path class="st0" d="M137.8,140c-2.4,1.4-3.6,3.7-2.9,6.5c0,0.2,0.3,0.1,0.3,0c0-0.8,0-0.3-0.2-1.3c-0.1-0.8,0.3-1.8,0.6-2.5
						c0.5-1.1,1.3-1.8,2.3-2.4C138.1,140.2,138,140,137.8,140L137.8,140z"/>
				</g>
			</g>
			<g>
				<g>
					<path class="st0" d="M138.1,144.5c-2.6,0.9-3.9,3.8-3.8,6.4c0,0.2,0.3,0.2,0.3,0c0.1-1.2,0.1-2.7,0.8-3.7
						c0.6-0.9,1.6-2.1,2.7-2.5C138.2,144.6,138.2,144.4,138.1,144.5L138.1,144.5z"/>
				</g>
			</g>
			<g>
				<g>
					<path class="st0" d="M138.1,148.8c-1.1,0.3-2.1,0.6-3.1,1.3c-1.1,0.7-1.3,2.1-1.9,3.2c-1.4,3.1-4.9,4.1-6.3,7.1
						c-0.9,1.9-0.3,4,1,5.5c1.8,2.2,4.8,1.2,7.1,0.5c0.3-0.1,0.2-0.6-0.1-0.5c-2.7,0.8-5.2,1.8-7.1-1c-1.5-2.2-0.5-5,1.4-6.6
						c1.6-1.3,3.1-2.4,4.2-4.2c0.6-1.1,0.8-2.4,1.6-3.4s2.1-1.4,3.2-1.7C138.2,148.9,138.2,148.8,138.1,148.8L138.1,148.8z"/>
				</g>
			</g>
			<g>
				<g>
					<path class="st0" d="M124.6,154c1.9-1.5,2.1-3.6,2.3-5.9c0.2-2,0.9-3.6,2.3-5.2c1.4-1.6,4.3-3.1,6-1.1c0.2,0.2,0.5-0.1,0.3-0.3
						c-2-2.4-5.5-0.4-7,1.6c-1.1,1.4-1.7,2.8-1.9,4.6C126.4,150.1,126.5,152.3,124.6,154C124.4,153.9,124.5,154,124.6,154L124.6,154
						z"/>
				</g>
			</g>
			<g>
				<g>
					<path class="st0" d="M106.6,169.2c0-1.6-0.2-3.2-0.2-4.9c0-2.1,1.3-3.4,3.1-4.3c0.7-0.4,1.1-1.7,1.4-2.4
						c0.3-0.8,0.5-1.5,0.9-2.3s1.2-1.2,1.8-1.8c0.3-0.3,0.5-1,0.6-1.2c0.3-0.7,0.7-1.2,1.3-1.7c1.5-1.3,3.1-1.7,5-2
						c1.5-0.3,3.1,0,4.6-0.6c1-0.4,1.8-1.1,2.4-2c0.2-0.3-0.3-0.5-0.4-0.3c-1.4,2-3.3,2.1-5.6,2.1c-0.6,0-1.3,0.4-1.9,0.4
						c-0.7,0.1-1.4,0.4-2,0.7c-2.7,1-3.4,3.6-5.4,5.4c-0.8,0.8-1.1,2.1-1.5,3.2c-0.6,1.7-1.6,2.2-2.8,3.2
						C105.4,162.8,106.5,166.5,106.6,169.2C106.3,169.4,106.6,169.4,106.6,169.2L106.6,169.2z"/>
				</g>
			</g>
			<g>
				<g>
					<path class="st0" d="M116.2,169.2c-0.9-1.4-0.2-2.8,1.1-3.7c0.2-0.1,0.4-0.4,0.6-0.6c0.2-0.4,0.2-0.5,0.2-1
						c0-1.2,0.1-2.1,1.3-2.8c2.4-1.4,6.5,0.3,7.7,2.5c0.1,0.2,0.3,0,0.3-0.1c-0.5-2.8-5.5-3.8-7.8-2.9c-0.7,0.3-1.2,0.7-1.6,1.3
						c-0.8,1.2,0.5,2.4-1.1,3.5C115.4,166.4,115.1,167.8,116.2,169.2C116.1,169.3,116.2,169.2,116.2,169.2L116.2,169.2z"/>
				</g>
			</g>
			<g>
				<g>
					<path class="st0" d="M111.1,166.6c-1,1.9,0,3.8,1.3,5.3c1.5,1.8,3.8,2.1,6,2.2c0.3,0,0.3-0.5,0-0.5c-1.7,0-3.3-0.2-4.8-1.1
						C111.9,171.3,110.4,168.7,111.1,166.6C111.2,166.6,111.2,166.5,111.1,166.6L111.1,166.6z"/>
				</g>
			</g>
			<g>
				<g>
					<path class="st0" d="M127.8,184.9c-1.7-0.1-3.4-0.1-4.9-1c-1.1-0.6-1.9-1.8-2.9-2.6c-2.2-1.7-2.5-5-1.3-7.4
						c0.1-0.2-0.2-0.4-0.3-0.2c-1.6,2.2-0.9,5.3,0.7,7.3c0.4,0.6,1.1,0.9,1.6,1.3c0.6,0.5,0.9,1.1,1.6,1.6c1.7,1.2,3.6,1.2,5.5,1.1
						C127.8,185,127.8,184.9,127.8,184.9L127.8,184.9z"/>
				</g>
			</g>
			<g>
				<g>
					<path class="st0" d="M117.4,178.8c-0.4,0.6-1.7,0.4-2.2,0.3c-1.1-0.1-2-0.8-2.7-1.5c-0.2-0.2-0.5,0.1-0.3,0.3
						c1,0.9,1.9,1.5,3.3,1.6c0.6,0,1.8,0.1,2.1-0.6C117.5,178.8,117.4,178.7,117.4,178.8L117.4,178.8z"/>
				</g>
			</g>
			<g>
				<g>
					<path class="st0" d="M120.1,182.5c0,0.6,0,1.1,0.2,1.6s0.9,1,1.3,1.3c0.2,0.1,0.3-0.1,0.2-0.2c-0.3-0.4-0.7-0.6-1.1-1
						c-0.4-0.5-0.4-1.1-0.4-1.7C120.3,182.4,120.1,182.4,120.1,182.5L120.1,182.5z"/>
				</g>
			</g>
			<g>
				<g>
					<path class="st0" d="M119.7,170.9c-0.8,0.9-0.3,2.3,0.3,3.1c0.8,1.2,2.3,1.3,3.7,1.3c0.2,0,0.2-0.4,0-0.4
						c-1.2,0-2.2-0.1-3.2-0.8c-0.8-0.6-1.4-2.2-0.7-3.1C119.9,170.9,119.8,170.8,119.7,170.9L119.7,170.9z"/>
				</g>
			</g>
			<g>
				<g>
					<path class="st0" d="M147.9,175.9c-1.4,1.5-2.1,0.2-3.4,0.4c-0.9,0.1-1.6,0.5-2.4,1c-1.3,0.8-2.5,0.5-3.9,0.4
						c-0.9-0.1-1.6,0.3-2.4,0.7c-2.3,1.2-5.9,1.8-8.5,1c-2.2-0.7-5-1.6-5.2-4.3c0-0.4-0.6-0.4-0.6,0c0.2,4.9,7.5,5.5,11,4.8
						c1.7-0.3,3.1-1.2,4.8-1.7c1.3-0.4,2.7,0.5,4-0.1c0.6-0.3,1.2-0.7,1.8-1.1c1.2-0.7,1.9-0.2,3,0c0.9,0.1,1.3-0.3,1.8-0.9
						C148.2,176,148,175.8,147.9,175.9L147.9,175.9z"/>
				</g>
			</g>
			<g>
				<g>
					<path class="st0" d="M118.5,168.8c2.4-1.1,3.1,1.8,5.2,1.9c1.6,0.1,3-1,3.9-2.2c0.2-0.2-0.2-0.5-0.4-0.3
						c-0.7,0.9-1.4,1.5-2.5,1.9c-1.6,0.5-2.2-0.4-3.3-1.1C120.5,168.4,119.4,168.3,118.5,168.8L118.5,168.8L118.5,168.8z"/>
				</g>
			</g>
			<g>
				<g>
					<path class="st0" d="M128.7,173.7c-0.5-0.4-1.1-0.8-1.5-1.3c-0.9-1-0.6-2.2-0.2-3.3c0.1-0.2-0.2-0.3-0.3-0.1
						c-0.5,0.8-0.8,1.8-0.3,2.7c0.5,1,1.3,1.5,2.3,2.2C128.6,173.9,128.7,173.8,128.7,173.7L128.7,173.7z"/>
				</g>
			</g>
			<g>
				<g>
					<path class="st0" d="M132.8,172.2c-0.5-1.6-1-3.2,0.3-4.7c1.1-1.3,3.2-1.5,4.7-1c1.4,0.5,3.2,0.3,4.6,0.9
						c1.2,0.5,2.3,1.3,3.5,2c0.6,0.4,1.3,0.4,1.9,0.4c1.5-0.1,2.4,0.4,3.5,1.5c0.6,0.6,1.2,1.2,2,1.6c1.1,0.6,2.5,0.8,3.7,1.3
						c0.3,0.1,0.5-0.2,0.2-0.4c-1.4-0.9-3.2-0.9-4.6-2c-0.9-0.7-1.6-1.6-2.6-2.2c-1.2-0.7-2.6,0-3.8-0.6c-1.3-0.6-2.6-2.1-4.1-2.3
						c-1.7-0.2-3.4-0.6-5.1-0.9c-0.9-0.1-2.2,0-3,0.5c-2.4,1.4-2.1,3.6-1.3,5.9C132.6,172.4,132.8,172.4,132.8,172.2L132.8,172.2z"
						/>
				</g>
			</g>
			<g>
				<g>
					<path class="st0" d="M145,185.2c0.7-0.9,2.4-1.4,3.4-1.4c1.1,0,2.1,0,3.1-0.5c0.2-0.1,0-0.4-0.1-0.3c-1.4,0.3-2.8,0.2-4.2,0.6
						C146.4,183.8,145.4,184.5,145,185.2C144.9,185.2,145,185.2,145,185.2L145,185.2z"/>
				</g>
			</g>
			<g>
				<g>
					<path class="st0" d="M143.5,184c0.7-0.3,1.3-0.6,2.1-0.6s1.5,0.4,2.2,0.5c1.2,0.1,2.3,0.3,3.4-0.2c0.2-0.1,0.1-0.4-0.1-0.3
						c-1.3,0.4-2.6,0.1-3.9,0c-0.9,0-1.5-0.3-2.4-0.1C144.3,183.4,143.9,183.8,143.5,184C143.4,183.9,143.4,184.1,143.5,184
						L143.5,184z"/>
				</g>
			</g>
			<g>
				<g>
					<path class="st0" d="M140.3,161.4c1.1-1,2-2.2,3.2-3c1.5-1,4.4-1.3,5.9-0.3c1.2,0.7,1.6,1.7,3.1,1.9c1.9,0.4,3.4-0.3,5,1.1
						c0.2,0.2,0.6-0.1,0.4-0.4c-1.3-1.2-2.6-1.2-4.3-1.2c-1.5,0-2.4-0.6-3.5-1.6c-0.4-0.3-1-0.7-1.5-0.8c-1.7-0.2-3.3,0.1-4.8,0.7
						C142.3,158.5,141.4,160.2,140.3,161.4C140.2,161.4,140.2,161.4,140.3,161.4L140.3,161.4z"/>
				</g>
			</g>
			<g>
				<g>
					<path class="st0" d="M147.3,153c-0.2,1.7,0.6,4,2.2,4.9c0.2,0.1,0.3-0.1,0.2-0.2c-1.3-1.2-2.3-2.9-2.2-4.7
						C147.4,152.9,147.3,152.9,147.3,153L147.3,153z"/>
				</g>
			</g>
			<g>
				<g>
					<path class="st0" d="M146.8,149.6c2.1,3.2-2.3,5.9-5,3.9c-0.2-0.1-0.3,0.1-0.2,0.3c1.1,1.2,3.2,1,4.5,0.2
						c0.8-0.4,1.2-1.2,1.5-2.1c0.3-1,0-1.6-0.6-2.5C146.9,149.4,146.7,149.5,146.8,149.6L146.8,149.6z"/>
				</g>
			</g>
			<g>
				<g>
					<path class="st0" d="M139.6,154.7c0.7,0.2,1.5,0.6,2.2,0.4c0.8-0.2,1.6,0,2.3-0.5c0.2-0.1,0-0.4-0.2-0.3
						c-1.3,0.6-3,0.5-4.2,0.1C139.4,154.4,139.4,154.6,139.6,154.7L139.6,154.7z"/>
				</g>
			</g>
			<g>
				<g>
					<path class="st0" d="M138.7,158.5c0.9,0.3,1.7,0.5,2.7,0.5c0.6,0,1.2-0.4,1.7-0.6c0.2-0.1,0-0.3-0.1-0.3
						c-0.5,0.2-0.9,0.4-1.4,0.6C140.7,159,139.6,158.6,138.7,158.5C138.7,158.4,138.7,158.5,138.7,158.5L138.7,158.5z"/>
				</g>
			</g>
			<g>
				<g>
					<path class="st0" d="M158.8,170.7c0.2-1.2,1.3-2,1.2-3.2c0-0.4-0.3-0.8-0.5-1.2c-0.5-0.8-0.9-1.5-1.2-2.5
						c-1.5-5.2,4.1-8.6,8-10.4c2.2-1,4.4-2.1,6.9-2.4c2.3-0.3,4.6,0.1,6.9-0.2c1.6-0.2,3.1-1,4.7-1.3c2.2-0.4,4.4-0.2,6.6-0.8
						c0.3-0.1,0.2-0.5-0.1-0.5c-2.2,0.5-4.4,0.5-6.6,0.8c-0.8,0.1-1.7,0.4-2.5,0.8c-1.4,0.6-3,0.7-4.5,0.7c-2.2-0.1-4.4,0-6.5,0.4
						s-4.2,1.8-6.2,2.7c-2.9,1.3-6.8,4.1-7.2,7.6c-0.2,1.8,0.1,3.6,1.2,5.1c0.4,0.5,0.9,1.2,0.7,1.9c-0.3,1-0.2,0.2-0.6,0.9
						c-0.3,0.5-0.4,1.2-0.4,1.8C158.7,170.8,158.8,170.8,158.8,170.7L158.8,170.7z"/>
				</g>
			</g>
			<g>
				<g>
					<path class="st0" d="M162.3,170.7c-0.4-0.6-0.5-1.3-0.9-1.9c-0.2-0.3-0.5-0.4-0.7-0.7s-0.3-0.6-0.6-0.8c-0.1-0.1-0.4,0-0.3,0.2
						c0.2,0.3,0.3,0.5,0.5,0.8s0.4,0.4,0.6,0.6c0.5,0.5,0.7,1.3,1.1,1.9C162.2,171,162.4,170.8,162.3,170.7L162.3,170.7z"/>
				</g>
			</g>
			<g>
				<g>
					<path class="st0" d="M168.6,157.1c-0.8,1.4-0.2,2.5,0.7,3.7c1,1.5,2.4,3,3.8,4.1c1,0.7,2.3,1,3.2,1.8c0.6,0.5,1,1.3,1.5,1.9
						c0.6,0.7,1.4,1.2,2.1,1.8c0.7,0.6,1.3,1.3,2,1.8c0.2,0.2,0.5-0.2,0.3-0.4c-1.2-0.9-2.2-2-3.3-2.9c-1-0.8-1.5-1.9-2.5-2.8
						c-0.3-0.3-0.7-0.5-1.1-0.6c-1.3-0.5-2.2-1.2-3.2-2.1c-1.4-1.3-4.5-4-3.3-6.2C168.8,157.1,168.6,157,168.6,157.1L168.6,157.1z"
						/>
				</g>
			</g>
			<g>
				<g>
					<path class="st0" d="M176.3,166.2c1.5,1.9-1,3.8-2.5,4.5c-1,0.5-1.9,0.8-2.7,1.6c-0.2,0.2,0.1,0.5,0.3,0.3
						c0.8-0.7,1.7-1.1,2.6-1.5c0.9-0.4,1.6-1,2.2-1.7c1-1.1,1.2-2.2,0.2-3.3C176.4,165.9,176.2,166.1,176.3,166.2L176.3,166.2z"/>
				</g>
			</g>
			<g>
				<g>
					<path class="st0" d="M162.1,162.3c1.1,1.1,2.3,1.4,3.9,1.4c1.2,0.1,2.4-0.1,3.6,0c1.2,0.2,2.3,0.8,3.3,1.5
						c0.2,0.1,0.4-0.2,0.2-0.3c-1-0.8-2.6-1.6-4-1.6C166.8,163.3,164.2,163.8,162.1,162.3C162.2,162.1,162.1,162.2,162.1,162.3
						L162.1,162.3z"/>
				</g>
			</g>
			<g>
				<g>
					<path class="st0" d="M200.5,148.4c-0.8,1.2-2.2,1.4-3.6,1.4c-0.8,0-1.1-0.4-1.7-0.8c-1.3-0.8-2.6-1-4-0.6
						c-0.3,0.1-0.2,0.6,0.1,0.5c1.4-0.4,3.3-0.3,4.3,1c0.3,0.3,1,0.2,1.3,0.2C198.3,150.1,199.8,149.7,200.5,148.4
						C200.6,148.4,200.5,148.4,200.5,148.4L200.5,148.4z"/>
				</g>
			</g>
			<g>
				<g>
					<path class="st0" d="M187.4,142.8c1.1,0.3,1.9,0.7,2.5,1.8c0.6,1.2,1.1,2.2,0.6,3.6c-0.1,0.2,0.2,0.3,0.3,0.1
						c0.7-1.2,0.2-2.6-0.5-3.7C189.6,143.4,188.8,142.9,187.4,142.8C187.3,142.7,187.3,142.8,187.4,142.8L187.4,142.8z"/>
				</g>
			</g>
			<g>
				<g>
					<path class="st0" d="M203.1,130.9c-1.1-0.1-1.5,0.9-1.5,1.9c-0.2,2.7,1.7,6-1.2,7.9c-1.7,1.2-4.2,0.5-5.9,1.8
						c-1.6,1.3-3.4,3.3-3.6,5.5c0,0.2,0.3,0.3,0.4,0.1c0.6-2.3,2.4-4.9,4.6-5.7c1.7-0.6,3.5-0.5,5.1-1.5c1.3-0.9,1.6-2.8,1.4-4.2
						C202.3,135.5,200.7,131.1,203.1,130.9C203.2,131,203.2,130.9,203.1,130.9L203.1,130.9z"/>
				</g>
			</g>
			<g>
				<g>
					<path class="st0" d="M195.4,138c1.9-0.7,2.1,2.8,1.1,3.7c-0.2,0.2,0.1,0.4,0.2,0.2c1.3-1.1,0.6-5-1.5-4.1
						C195.2,137.9,195.3,138.1,195.4,138L195.4,138z"/>
				</g>
			</g>
			<g>
				<g>
					<path class="st0" d="M196.9,131.7c1.9,0,3.7,0.5,4.6,2.4c0.1,0.2,0.4,0,0.3-0.2c-0.4-0.9-1-1.4-1.8-1.9c-0.9-0.6-2-0.5-3.1-0.5
						C196.7,131.5,196.7,131.7,196.9,131.7L196.9,131.7z"/>
				</g>
			</g>
			<g>
				<g>
					<path class="st0" d="M186,152.3c-0.6,0.6-0.7,1.2-0.8,2c-0.1,1.2,1,1.9,1.2,3c0.5,1.9-0.6,3.8-1.6,5.3
						c-0.5,0.8-0.6,1.7-0.2,2.5c0.1,0.2,0.3,0,0.3-0.1c-0.4-1.7,0.6-2.1,1.1-3.4c0.4-1,0.8-2,0.9-3.1c0.1-2.1-2.6-4.1-0.8-6
						C186.3,152.4,186.1,152.2,186,152.3L186,152.3z"/>
				</g>
			</g>
			<g>
				<g>
					<path class="st0" d="M169.6,153.4c1.1,1.4,2.1,3,3.9,3.4c0.2,0,0.7-0.1,0.9-0.1c1.2-0.1,1.3,0.6,1.6,1.3
						c0.2,0.5,0.7,1.1,1.3,1.3c0.9,0.3,2.3,0.1,2.9,1c0.3,0.5,0.7,0.8,1.3,0.8c0.7,0,1.3-0.5,1.8-0.8c0.7-0.4,1.5-0.6,2.1-1.1
						c0.2-0.2-0.1-0.5-0.3-0.4c-1.1,0.8-3.9,2.4-4.8,1c-0.6-1-2.4-0.5-3.3-1.2c-0.8-0.6-0.9-2.3-2.1-2.3c-1.4,0-2.2,0.1-3.3-0.9
						c-0.7-0.6-1.3-1.5-1.9-2.2C169.7,153,169.5,153.2,169.6,153.4L169.6,153.4z"/>
				</g>
			</g>
			<g>
				<g>
					<path class="st0" d="M194,135c-0.7-1.3-1.1-3-2.6-3.6c-1.1-0.4-2.6-0.8-3.7,0c-0.2,0.2,0.1,0.5,0.3,0.3c1-0.8,2.6-0.2,3.6,0.2
						c1.1,0.5,1.6,2.2,2.1,3.2C193.8,135.4,194.1,135.2,194,135L194,135z"/>
				</g>
			</g>
			<g>
				<g>
					<path class="st0" d="M192.5,128c-0.6,0.2-1.1,0.6-1.3,1.2c-0.3,0.7-0.4,1.1-0.1,1.8c0.1,0.2,0.3,0,0.3-0.2
						c-0.1-0.2-0.2-0.4-0.2-0.7s0.1-0.5,0.2-0.7c0.2-0.6,0.6-1,1.2-1.2C192.7,128.2,192.7,128,192.5,128L192.5,128z"/>
				</g>
			</g>
			<g>
				<g>
					<path class="st0" d="M194.1,130.1c-1.3-2.8-2.1-5.4-1.1-8.5c1-2.8,3.3-4.6,6-5.7c1.7-0.7,3.5-1.1,5-2.3c1.4-1.1,1.4-3,1.8-4.7
						c0.3-1.3,0.8-2.4,2.1-2.9c2.1-0.8,4,1.2,5,2.7c1.7,2.5,1,5.9-0.1,8.5c-0.9,2-2.1,3.6-2.4,5.9c-0.1,1.1,0.1,2.3,0.3,3.4
						c0.4,2-0.2,3.5-1,5.3c-0.1,0.2,0.2,0.4,0.3,0.2c2-2.7,0.9-5.3,0.9-8.3c0-1.9,0.9-3.5,1.8-5.1c0.7-1.4,1.3-2.8,1.5-4.4
						c0.4-2.2,0-4.7-1.5-6.5c-1.3-1.5-3.8-3.2-5.8-1.6c-1.7,1.3-1.5,3.7-2.1,5.7c-0.9,3-5.5,3.4-7.9,4.7c-2.2,1.2-3.6,3.2-4.3,5.5
						C191.7,124.9,192.7,127.6,194.1,130.1C194,130.2,194.2,130.2,194.1,130.1L194.1,130.1z"/>
				</g>
			</g>
			<g>
				<g>
					<path class="st0" d="M205.9,123.3c-1.1,0.9-1.8,0.9-2,2.4c-0.2,1.3,0.1,2.6,0.6,3.7c0.7,1.5,2,2.7,3.1,3.9
						c0.6,0.7,1.3,1.1,1.8,1.9c0.4,0.6,0.6,1.1,1.2,1.5c0.2,0.1,0.4,0,0.3-0.2c-1.1-1.8-2.5-3.1-4-4.7c-1.2-1.2-2.1-2.5-2.6-4.2
						C203.8,125.9,204.6,124.5,205.9,123.3C206,123.3,205.9,123.2,205.9,123.3L205.9,123.3z"/>
				</g>
			</g>
			<g>
				<g>
					<path class="st0" d="M197.7,126.9c1.9-1.1,4.5-1.2,5.8,0.9c0.1,0.2,0.5,0,0.4-0.2c-0.6-1-1.6-1.5-2.7-1.8
						C199.9,125.5,198.8,126.1,197.7,126.9C197.6,126.8,197.7,126.9,197.7,126.9L197.7,126.9z"/>
				</g>
			</g>
			<g>
				<g>
					<path class="st0" d="M200.8,156.1c-0.5,1.7-1.1,3-2.8,3.9c-1.2,0.6-2.4,1-3.3,2c-1.3,1.4-2.2,3.8-2.4,5.7c0,0.3,0.4,0.3,0.5,0
						c0.2-1.4,0.8-2.4,1.3-3.7c0.7-1.6,1.6-2.5,3.2-3.3c1-0.5,2-0.8,2.7-1.8c0.7-0.9,0.9-1.8,1.2-2.8
						C201.1,156,200.9,155.9,200.8,156.1L200.8,156.1z"/>
				</g>
			</g>
			<g>
				<g>
					<path class="st0" d="M197.3,167.3c1.8-2.1,3.9-4.3,6.9-4c0.3,0,0.3-0.4,0-0.4C201.1,162.5,198.9,165,197.3,167.3
						C197.2,167.3,197.3,167.3,197.3,167.3L197.3,167.3z"/>
				</g>
			</g>
			<g>
				<g>
					<path class="st0" d="M201.7,163.7c-0.4-1.9-0.4-3.5-0.2-5.4c0.1-1.1,0.7-1.9,1.6-2.4c0.1-0.1,0.3-0.3,0.4-0.4
						c0.3-1.1-0.7-1.7,0-3c0.6-1.2,2.2-2.2,3.2-3c0.6-0.5,1-1.1,1.3-1.8c0.2-0.5,0.1-1.2,0.2-1.7c0.2-0.8,0.8-1.6,1.3-2.3
						c0.6-0.8,0.6-1.8,0.6-2.7c0-0.6-0.1-1.2-0.1-1.8c0-1.3,0.4-1.8,1.2-2.7c0.2-0.2-0.1-0.5-0.3-0.3c-0.9,0.9-1.3,1.2-1.4,2.5
						c-0.1,1.6,0.5,3.3-0.4,4.7c-0.7,1.1-1.5,2-1.5,3.4c0,1.8-2,2.8-3.2,3.9c-0.7,0.6-1.6,1.4-1.7,2.4c-0.1,1.2,0.6,1.6-0.5,2.7
						c-1.9,2-1.4,5.3-0.9,7.8C201.5,163.9,201.8,163.9,201.7,163.7L201.7,163.7z"/>
				</g>
			</g>
			<g>
				<g>
					<path class="st0" d="M214,127c2.4,0.4,4,2.4,4,4.9c0,0.1-0.3,1.2-0.2,1.4c0.5,1,1.2,2.9-0.2,3.7c-0.2,0.1,0,0.4,0.2,0.3
						c0.8-0.4,0.9-1.1,0.9-1.9c0.1-0.6-0.1-1-0.3-1.5c-0.3-0.6-0.2-1.3-0.1-1.9c0.3-2.5-1.8-4.8-4.2-5.2
						C213.9,126.6,213.8,126.9,214,127L214,127z"/>
				</g>
			</g>
			<g>
				<g>
					<path class="st0" d="M203.7,98.3c0.8,0.6,1.5,0.6,2.2,1.5c0.3,0.3,0.5,1.8,0.8,2.3c0.3,0.6,0.4,0.7,1.1,0.9
						c2.2,0.9,1.6,1.7,1.5,3.1c0,0.2,0.2,0.2,0.3,0c0.4-1.6,0-2.9-1.7-3.5c-1.5-0.6-1-2.1-1.7-3.1c-0.7-0.9-1.4-0.8-2.3-1.4
						C203.7,98.1,203.7,98.2,203.7,98.3L203.7,98.3z"/>
				</g>
			</g>
			<g>
				<g>
					<path class="st0" d="M213.6,106.7c0,0.5,0.1,1,0.1,1.5c0,0.8-0.3,1.6-0.4,2.4c0,0.2,0.2,0.3,0.3,0.1c0.2-0.6,0.3-1.2,0.4-1.9
						c0.1-0.7-0.2-1.4-0.3-2.1C213.7,106.6,213.6,106.6,213.6,106.7L213.6,106.7z"/>
				</g>
			</g>
			<g>
				<g>
					<path class="st0" d="M213.8,110.8c0.7-0.7,2,0.5,2.4,1c0.7,0.7,0.4,2.2,0.5,3.1c0.2,1.3,1.6,1.5,2.3,2.5
						c1.5,2.1,2.1,4.2,0.9,6.6c-0.9,1.8-1.9,3.3-2.5,5.2c-0.1,0.3,0.3,0.4,0.4,0.1c0.5-1.5,1.2-2.9,1.9-4.3c0.6-1.1,1.1-1.9,1.3-3.3
						c0.3-1.8-0.9-4.1-2.3-5.3c-0.2-0.2-0.5-0.3-0.7-0.4c-1-0.6-1-1.8-1-2.8c0-0.8-0.2-1.4-0.8-1.9c-0.7-0.6-1.8-1.5-2.7-0.8
						C213.4,110.7,213.6,110.9,213.8,110.8L213.8,110.8z"/>
				</g>
			</g>
			<g>
				<g>
					<path class="st0" d="M198.9,117c0.3-0.7,0.6-1.4,0.7-2.1c0.1-0.9-0.3-1.7-0.4-2.5c0-0.2-0.3-0.2-0.3,0c0,0.6,0.2,1.1,0.4,1.6
						c0.3,1-0.1,2-0.5,2.9C198.7,117,198.9,117.1,198.9,117L198.9,117z"/>
				</g>
			</g>
			<g>
				<g>
					<path class="st0" d="M199.4,125.8c0.5,0.7,0.8,1.5,1,2.3s-0.3,1.5-0.6,2.2c-0.1,0.2,0.2,0.3,0.3,0.1c0.2-0.6,0.8-1.4,0.7-2.1
						c-0.2-1-0.5-1.8-1.1-2.7C199.5,125.5,199.3,125.6,199.4,125.8L199.4,125.8z"/>
				</g>
			</g>
			<g>
				<g>
					<path class="st0" d="M201.8,139.8c0.9-2,2.4-3,4.5-3.6c0.2-0.1,0.1-0.5-0.1-0.4c-2.1,0.7-3.7,1.8-4.6,3.9
						C201.5,139.8,201.7,139.9,201.8,139.8L201.8,139.8z"/>
				</g>
			</g>
			<g>
				<g>
					<path class="st0" d="M205.4,127.3c0.1-0.7,0.6-1.4,1.3-1.7c0.6-0.2,1.1-0.2,1.6-0.1c0.2,0,0.2-0.2,0.1-0.3
						c-0.6-0.3-1.5-0.1-2.1,0.2c-0.7,0.3-1.1,1.2-1.1,1.9C205.2,127.4,205.4,127.4,205.4,127.3L205.4,127.3z"/>
				</g>
			</g>
			<g>
				<g>
					<path class="st0" d="M203.4,145.4c2.7-1,5,0.4,6.5,2.7c0.1,0.2,0.5,0,0.4-0.2C208.6,145.5,206.1,144.1,203.4,145.4
						C203.3,145.4,203.3,145.5,203.4,145.4L203.4,145.4z"/>
				</g>
			</g>
			<g>
				<g>
					<path class="st0" d="M208.3,158.2c-0.7,0.3-1.5,0.2-2.2,0.2c-1.1-0.1-1.8-0.2-2.4-1.3c-0.1-0.1-0.2,0-0.2,0.1
						c0.1,0.9,0.9,1.3,1.8,1.4c1,0.1,2.2,0.1,3.1-0.3C208.4,158.3,208.4,158.2,208.3,158.2L208.3,158.2z"/>
				</g>
			</g>
			<g>
				<g>
					<path class="st0" d="M211.7,148.9c1.8-1,3.6-0.9,5.2,0.4c1.2,0.9,0.7,2.2,1.4,3.3c0.3,0.5,0.6,0.8,1.2,1
						c1.3,0.4,2.1,0.8,2.6,2.2c0.6,1.5,0.7,2.9,2,4c0.5,0.5,1.2,0.7,1.8,0.7c1.4,0,2.4,0.2,3.7-0.3c0.3-0.1,0.2-0.5-0.1-0.4
						c-1.6,0.3-4.1,0.5-5.4-0.6c-0.8-0.7-1.1-1.8-1.4-2.8c-0.4-1.2-0.8-2.3-2.1-2.8c-0.3-0.1-0.7-0.2-1.1-0.3
						c-1.1-0.3-1.2-1.6-1.4-2.5c-0.2-0.7-0.5-1.2-1.1-1.6c-1.8-1.4-3.6-1.5-5.5-0.4C211.5,148.8,211.6,148.9,211.7,148.9
						L211.7,148.9z"/>
				</g>
			</g>
			<g>
				<g>
					<path class="st0" d="M209.9,162.5c0.9-0.4,1.7-1,2.2-1.9c0.5-1.1,0.3-2.1,0.1-3.2c0-0.2-0.3-0.1-0.3,0c-0.1,1,0.3,1.8,0,2.8
						c-0.4,1.1-1.1,1.6-2,2.1C209.7,162.4,209.8,162.6,209.9,162.5L209.9,162.5z"/>
				</g>
			</g>
			<g>
				<g>
					<path class="st0" d="M207.8,153.3c1.1,0,1.7-0.3,2.9,0.2c0.8,0.4,1.6,0.8,2.2,1.4c1.2,1.1,1.3,4.1,0.5,5.4
						c-0.1,0.2,0.2,0.5,0.4,0.3c1-1.3,0.5-3.9-0.3-5.3c-0.5-0.8-1.5-1.4-2.3-1.8C210,152.9,209.2,153.1,207.8,153.3
						C207.8,153.2,207.8,153.3,207.8,153.3L207.8,153.3z"/>
				</g>
			</g>
			<g>
				<g>
					<path class="st0" d="M203.3,159.4c0.8,0.8,1.8,1.7,3,1.9c1.1,0.2,2.2-0.4,3.2-0.9c0.2-0.1,0-0.4-0.2-0.3c-1,0.5-1.9,0.9-3,0.9
						C205.2,161,204.1,160,203.3,159.4C203.3,159.3,203.2,159.4,203.3,159.4L203.3,159.4z"/>
				</g>
			</g>
			<g>
				<g>
					<path class="st0" d="M151.3,141.1c-0.2-0.3,0-0.5-0.1-0.7c-0.1-0.3-0.1-0.7-0.1-1s0-0.6,0-0.8c0-0.3,0.2-0.6,0.3-0.9
						c0-0.3-0.4-0.3-0.4-0.1c0,0.3-0.2,0.6-0.3,0.9c0,0.3,0,0.7,0,1.1C150.9,140,151,140.7,151.3,141.1
						C151.3,141.2,151.4,141.1,151.3,141.1L151.3,141.1z"/>
				</g>
			</g>
			<g>
				<g>
					<path class="st0" d="M157.5,139.5c0-0.5-0.1-1.1-0.3-1.6s-0.5-0.9-0.8-1.3c-0.1-0.2-0.4,0-0.3,0.2c0.2,0.4,0.5,0.6,0.7,0.9
						c0.3,0.5,0.5,1.2,0.5,1.7C157.4,139.6,157.5,139.6,157.5,139.5L157.5,139.5z"/>
				</g>
			</g>
			<g>
				<g>
					<path class="st0" d="M225.3,139c-1.1-1-1.9-2.3-3.2-3.1c-1.5-1-3.3-1.6-4.9-2.5c-1.1-0.6-4.5-2.3-5.4-0.5
						c-0.1,0.2,0.2,0.4,0.3,0.3c1.5-1.9,5.4,0.9,6.8,1.6c1.2,0.5,2.2,1,3.3,1.7s1.8,1.8,2.8,2.7C225.3,139.3,225.4,139.1,225.3,139
						L225.3,139z"/>
				</g>
			</g>
			<g>
				<g>
					<path class="st0" d="M214.8,124.9c2.3,0.4,3.8,2.4,3.4,4.7c-0.2,1.2,1.3,3-0.2,3.9c-0.2,0.1,0,0.4,0.2,0.3
						c0.7-0.3,0.8-0.9,0.8-1.6c0.1-0.5,0-0.7-0.2-1.2c-0.3-0.7-0.2-1.2-0.2-1.9c0-2.3-1.5-4.1-3.7-4.5
						C214.7,124.6,214.6,124.9,214.8,124.9L214.8,124.9z"/>
				</g>
			</g>
			<g>
				<g>
					<path class="st0" d="M221.1,121.2c1.4,0.7,2.2,1.4,2.4,3c0.1,0.8,0.5,1.2,1.1,1.8c1,1,2.2,2,2.2,3.6c0,1.3-0.5,2.2-0.8,3.4
						c0,0.3,0.3,0.4,0.4,0.1c0.3-1.3,0.7-2.2,0.8-3.5c0-1.1-0.6-2-1.3-2.8c-0.4-0.5-1-0.9-1.4-1.4c-0.5-0.5-0.6-1.9-1.1-2.7
						C222.9,121.9,221.9,121.5,221.1,121.2C221.1,121.1,221,121.2,221.1,121.2L221.1,121.2z"/>
				</g>
			</g>
			<g>
				<g>
					<path class="st0" d="M228.6,124.5c2,1.1,0.3,3.1,1.7,4.4c1,0.9,1.6,1.5,2,2.7s0.5,2.3,0.1,3.5c-0.1,0.3,0.3,0.4,0.4,0.1
						c0.7-2,0-4.4-1.4-6.1c-0.6-0.6-1.5-1-1.3-2.1c0-0.2,0-0.6-0.1-0.8c-0.1-0.8-0.6-1.5-1.3-1.9
						C228.6,124.2,228.5,124.4,228.6,124.5L228.6,124.5z"/>
				</g>
			</g>
			<g>
				<g>
					<path class="st0" d="M228,141.1c1.3-1.2,2.6-0.4,3.5,0.5c0.8,0.7,1.6,0.9,2,2c0.6,1.8-0.9,3.7-2.3,4.5c-0.2,0.1,0,0.5,0.2,0.4
						c1.8-0.8,3.3-3.4,2.4-5.4c-0.7-1.4-2.3-1.9-3.4-2.9c-1-0.9-1.9-0.1-2.6,0.6C227.7,141,227.9,141.2,228,141.1L228,141.1z"/>
				</g>
			</g>
			<g>
				<g>
					<path class="st0" d="M212.4,138.6c2.4-1.2,5-1.3,6.6,1.2c0.5,0.7,0.6,1.9,0.5,2.7c-0.1,0.6-0.9,2.6-1.3,3
						c-0.2,0.2,0.1,0.4,0.2,0.2c0.4-0.4,0.6-0.6,0.8-1.2c0.2-0.5,0.5-1.4,0.6-2c0.1-1.2-0.2-2.4-0.9-3.3c-0.5-0.7-1.7-1.7-2.7-1.7
						C214.7,137.5,213.9,137.7,212.4,138.6C212.4,138.5,212.4,138.6,212.4,138.6L212.4,138.6z"/>
				</g>
			</g>
			<g>
				<g>
					<path class="st0" d="M214.1,145c3.1-1.3,3.5,1.5,5.8,2.2c1,0.3,2,0.5,2.9,0.9c2.1,1,1.3,4.2,0.2,5.5c-0.2,0.2,0.1,0.5,0.3,0.3
						c1.8-1.6,1.9-5.5-0.7-6.4c-0.7-0.2-1.4-0.4-2.1-0.6c-1.1-0.3-1.9-1.2-2.7-1.9C216.6,144,215.3,144.3,214.1,145
						C214,144.9,214.1,145,214.1,145L214.1,145z"/>
				</g>
			</g>
			<g>
				<g>
					<path class="st0" d="M219.1,141.4c1.9-1.1,4.8-0.6,5.4,1.9c0.1,0.5,0.1,1.4,0.6,1.8c0.4,0.4,0.9,0.5,1.4,0.7
						c1.2,0.3,1.5,1.3,1.8,2.3s0.7,2.3,1.7,2.9c1.4,0.8,3.2,0.7,4.7,0.2c0.3-0.1,0.2-0.4-0.1-0.4c-1.4,0.2-3.5,0.4-4.7-0.5
						c-0.7-0.6-0.9-1.5-1.2-2.4s-0.7-2.2-1.8-2.5c-1.6-0.4-1.9-1.3-2.3-2.7c-0.1-0.5-0.6-0.9-1-1.2c-1.6-1.1-3-1.2-4.7-0.2
						C218.9,141.3,219,141.5,219.1,141.4L219.1,141.4z"/>
				</g>
			</g>
			<g>
				<g>
					<path class="st0" d="M229.4,155.6c0.8-0.4,1.5-0.8,1.9-1.7s0.3-1.9,0.1-2.8c0-0.2-0.3-0.1-0.3,0c-0.1,0.8,0.3,1.5,0,2.4
						s-0.9,1.4-1.8,1.8C229.2,155.5,229.3,155.7,229.4,155.6L229.4,155.6z"/>
				</g>
			</g>
			<g>
				<g>
					<path class="st0" d="M233.3,134.7c2,1.1,0.3,3.1,1.7,4.4c1,0.9,1.6,1.5,2,2.7s0.5,2.3,0.1,3.5c-0.1,0.3,0.3,0.4,0.4,0.1
						c0.7-2,0-4.4-1.4-6.1c-0.6-0.6-1.5-1-1.3-2.1c0-0.2,0-0.6-0.1-0.8c-0.1-0.8-0.6-1.5-1.3-1.9
						C233.2,134.4,233.1,134.6,233.3,134.7L233.3,134.7z"/>
				</g>
			</g>
			<g>
				<g>
					<path class="st0" d="M233.7,150.1c0.4-1.6,1.8-6.9,4.1-3.5c0.6,0.9,0.9,2,0.9,3c0.1,1-0.7,2.1-1,3c-0.1,0.3,0.4,0.5,0.5,0.1
						c0.4-1.2,1.2-2.4,0.9-3.7c-0.2-1.4-0.8-2.9-1.9-3.8c-0.6-0.4-1.7-0.1-2.1,0.4C234.3,147,233.9,148.6,233.7,150.1
						C233.6,150.1,233.7,150.1,233.7,150.1L233.7,150.1z"/>
				</g>
			</g>
		</g>
		<rect x="-177.1" y="210.6" class="st7" width="47.7" height="23.5"/>
	</g>
</g>
<g id="Connection_Lines">
	<path class="st8" d="M124.5,103.8"/>
	<line class="st9" x1="243.7" y1="96.2" x2="140.9" y2="101.8"/>
	<line class="st9" x1="246" y1="96.2" x2="210.3" y2="101.4"/>
	<line class="st9" x1="245.2" y1="95.7" x2="239.2" y2="141.7"/>
	<line class="st9" x1="246" y1="95" x2="173.5" y2="156.8"/>
	<line class="st9" x1="263.3" y1="138.4" x2="197.7" y2="128.8"/>
	<line class="st9" x1="263.3" y1="138.4" x2="251.4" y2="144.2"/>
	<line class="st9" x1="263.3" y1="138.4" x2="110.7" y2="128.8"/>
	<line class="st9" x1="263.3" y1="138.4" x2="227.8" y2="185.2"/>
	<line class="st9" x1="258.1" y1="182.4" x2="239.2" y2="151.7"/>
	<line class="st9" x1="259.5" y1="185" x2="200" y2="129"/>
	<line class="st9" x1="258.1" y1="184.1" x2="110.7" y2="128.8"/>
	<line class="st9" x1="220.6" y1="215.9" x2="210.3" y2="190.6"/>
	<line class="st9" x1="220.6" y1="215.9" x2="237.8" y2="149.4"/>
	<line class="st9" x1="222.5" y1="218.3" x2="112.8" y2="129.5"/>
	<line class="st9" x1="221.1" y1="217" x2="111.4" y2="152.3"/>
	<line class="st9" x1="129.5" y1="218.3" x2="210.3" y2="190.6"/>
	<line class="st9" x1="131.7" y1="218.3" x2="131.7" y2="188.5"/>
	<line class="st9" x1="131.7" y1="218.3" x2="236.4" y2="149.7"/>
	<line class="st9" x1="131.7" y1="218.3" x2="180.3" y2="132.8"/>
	<line class="st9" x1="131.7" y1="218.3" x2="112.8" y2="129.5"/>
	<line class="st9" x1="78.4" y1="194.1" x2="138" y2="162.5"/>
	<line class="st9" x1="78.4" y1="194.1" x2="78.6" y2="130.4"/>
	<line class="st9" x1="78.4" y1="194.1" x2="120.5" y2="108.9"/>
	<line class="st9" x1="159.9" y1="129.7" x2="54.9" y2="156.8"/>
	<line class="st9" x1="110.7" y1="186.2" x2="54.9" y2="156.8"/>
	<line class="st9" x1="78.6" y1="130.4" x2="54.9" y2="156.8"/>
	<line class="st9" x1="104.4" y1="104.2" x2="54.9" y2="109.7"/>
	<line class="st9" x1="79.5" y1="123.9" x2="54.9" y2="109.7"/>
	<line class="st9" x1="77.2" y1="123.7" x2="85" y2="69.2"/>
	<line class="st9" x1="98.6" y1="145" x2="84.3" y2="67.8"/>
	<line class="st9" x1="110.7" y1="186.2" x2="85" y2="69.2"/>
	<line class="st9" x1="175.2" y1="104.9" x2="85" y2="69.2"/>
	<line class="st9" x1="112.8" y1="129.5" x2="185.9" y2="65.6"/>
	<line class="st9" x1="214.7" y1="143.4" x2="185.9" y2="65.6"/>
</g>
<g id="Brain_Labels_1_">
	<g id="Brain_Labels">
		<g>
			<text transform="matrix(1 0 0 1 106.2172 97.1517)" class="st10 st11">Planning</text>
			<path class="st7" d="M138.6,109.6h-32c-2.4,0-4.4-2-4.4-4.4v-0.9c0-2.4,2-4.4,4.4-4.4h32c2.4,0,4.4,2,4.4,4.4v0.9
				C143,107.7,141,109.6,138.6,109.6z"/>
			<text transform="matrix(1 0 0 1 106.2172 105.6039)" class="st12 st13">Reinforcement Learning</text>
		</g>
		<g>
			<text transform="matrix(1 0 0 1 154.725 97.7205)" class="st10 st11">Sensory Association</text>
			<path class="st7" d="M209.4,109.6h-32c-2.4,0-4.4-2-4.4-4.4v-0.9c0-2.4,2-4.4,4.4-4.4h32c2.4,0,4.4,2,4.4,4.4v0.9
				C213.8,107.7,211.9,109.6,209.4,109.6z"/>
			<text transform="matrix(1 0 0 1 179.1946 105.5796)" class="st12 st13">Dense, NEAT, WANN</text>
		</g>
		<g>
			<text transform="matrix(1 0 0 1 161.6531 121.802)" class="st10 st11">Language</text>
			<path class="st7" d="M194.1,133.4h-32c-2.4,0-4.4-2-4.4-4.4v-0.9c0-2.4,2-4.4,4.4-4.4h32c2.4,0,4.4,2,4.4,4.4v0.9
				C198.5,131.4,196.5,133.4,194.1,133.4z"/>
			<text transform="matrix(1 0 0 1 168.6711 127.6365)" class="st14"><tspan x="0" y="0" class="st12 st13">Word Vectors</tspan><tspan x="-3.5" y="3.5" class="st12 st13">Sentiment Analysis</tspan></text>
		</g>
		<g>
			<text transform="matrix(1 0 0 1 101.7418 141.2134)" class="st10 st11">Speech</text>
			<path class="st7" d="M126.1,153.7h-32c-2.4,0-4.4-2-4.4-4.4v-0.9c0-2.4,2-4.4,4.4-4.4h32c2.4,0,4.4,2,4.4,4.4v0.9
				C130.5,151.7,128.5,153.7,126.1,153.7z"/>
			<text transform="matrix(1 0 0 1 94.7556 149.6655)" class="st12 st13">Transformer Networks</text>
		</g>
		<g>
			<text transform="matrix(1 0 0 1 136.5938 151.8436)" class="st10 st11">Short Term Memory</text>
			<path class="st7" d="M170.1,164.4h-32c-2.4,0-4.4-2-4.4-4.4v-1c0-2.4,2-4.4,4.4-4.4h32c2.4,0,4.4,2,4.4,4.4v0.9
				C174.5,162.4,172.5,164.4,170.1,164.4z"/>
			<text transform="matrix(1 0 0 1 140.5634 160.2957)" class="st12 st13">Recurrent Networks</text>
		</g>
		<g>
			<text transform="matrix(1 0 0 1 214.748 139.526)" class="st10 st11">Vision</text>
			<path class="st7" d="M247.6,151.5h-32c-2.4,0-4.4-2-4.4-4.4v-0.9c0-2.4,2-4.4,4.4-4.4h32c2.4,0,4.4,2,4.4,4.4v0.9
				C252,149.5,250,151.5,247.6,151.5z"/>
			<text transform="matrix(1 0 0 1 213.3925 147.4206)" class="st12 st13">(Deep) Convolutional Nets</text>
		</g>
		<g>
			<text transform="matrix(1 0 0 1 112.5646 177.8334)" class="st10 st11">Imagination</text>
			<path class="st7" d="M146.1,190.3h-32c-2.4,0-4.4-2-4.4-4.4V185c0-2.4,2-4.4,4.4-4.4h32c2.4,0,4.4,2,4.4,4.4v0.9
				C150.6,188.4,148.6,190.3,146.1,190.3z"/>
			<text transform="matrix(1 0 0 1 115.993 186.285)" class="st12 st13">Generative Networks</text>
		</g>
		<g>
			<text transform="matrix(1 0 0 1 191.9893 178.7832)" class="st10 st11">Motor Control</text>
			<path class="st7" d="M225.5,191.3h-32c-2.4,0-4.4-2-4.4-4.4V186c0-2.4,2-4.4,4.4-4.4h32c2.4,0,4.4,2,4.4,4.4v0.9
				C230,189.3,228,191.3,225.5,191.3z"/>
			<text transform="matrix(1 0 0 1 195.3255 187.2351)" class="st12 st13">Dense, NEAT, WANN</text>
		</g>
		<g>
			<text transform="matrix(1 0 0 1 77.3037 119.2729)" class="st10 st11">Prediction</text>
			<path class="st7" d="M111.3,131.6h-32c-2.4,0-4.4-2-4.4-4.4v-0.9c0-2.4,2-4.4,4.4-4.4h32c2.4,0,4.4,2,4.4,4.4v0.9
				C115.7,129.7,113.7,131.6,111.3,131.6z"/>
			<text transform="matrix(1 0 0 1 82.3976 127.5637)" class="st12 st13">Literally Everything*</text>
		</g>
		<rect x="-177.1" y="210.6" class="st7" width="47.7" height="23.5"/>
	</g>
	<g id="External_Lables">
		<g>
			<path class="st15" d="M278.9,97.5h-32c-2.4,0-4.4-2-4.4-4.4v-0.9c0-2.4,2-4.4,4.4-4.4h32c2.4,0,4.4,2,4.4,4.4v0.9
				C283.3,95.5,281.3,97.5,278.9,97.5z"/>
			<text transform="matrix(1 0 0 1 248.7584 93.5167)" class="st12 st13">Self Driving Vehicles</text>
		</g>
		<g>
			<path class="st15" d="M201.9,66.7h-32c-2.4,0-4.4-2-4.4-4.4v-0.9c0-2.4,2-4.4,4.4-4.4h32c2.4,0,4.4,2,4.4,4.4v0.9
				C206.3,64.7,204.3,66.7,201.9,66.7z"/>
			<text transform="matrix(1 0 0 1 178.5616 62.6531)" class="st12 st13">Healthcare</text>
		</g>
		<g>
			<path class="st15" d="M101,70.4H69c-2.4,0-4.4-2-4.4-4.4v-0.9c0-2.4,2-4.4,4.4-4.4h32c2.4,0,4.4,2,4.4,4.4V66
				C105.4,68.4,103.4,70.4,101,70.4z"/>
			<text transform="matrix(1 0 0 1 75.569 66.4023)" class="st12 st13">Entertainment</text>
		</g>
		<g>
			<path class="st15" d="M299.3,143.8h-32c-2.4,0-4.4-2-4.4-4.4v-0.9c0-2.4,2-4.4,4.4-4.4h32c2.4,0,4.4,2,4.4,4.4v0.9
				C303.7,141.8,301.7,143.8,299.3,143.8z"/>
			<text transform="matrix(1 0 0 1 279.5543 139.7883)" class="st12 st13">Retail</text>
		</g>
		<g>
			<path class="st15" d="M51.4,161.2h-32c-2.4,0-4.4-2-4.4-4.4v-0.9c0-2.4,2-4.4,4.4-4.4h32c2.4,0,4.4,2,4.4,4.4v0.9
				C55.8,159.2,53.8,161.2,51.4,161.2z"/>
			<text transform="matrix(1 0 0 1 28.0285 157.1923)" class="st12 st13">Advertising</text>
		</g>
		<g>
			<path class="st15" d="M51.4,114.3h-32c-2.4,0-4.4-2-4.4-4.4V109c0-2.4,2-4.4,4.4-4.4h32c2.4,0,4.4,2,4.4,4.4v0.9
				C55.8,112.3,53.8,114.3,51.4,114.3z"/>
			<text transform="matrix(1 0 0 1 28.7766 110.2524)" class="st12 st13">Academia</text>
		</g>
		<g>
			<path class="st15" d="M293.7,190.3h-32c-2.4,0-4.4-2-4.4-4.4V185c0-2.4,2-4.4,4.4-4.4h32c2.4,0,4.4,2,4.4,4.4v0.9
				C298.1,188.3,296.1,190.3,293.7,190.3z"/>
			<text transform="matrix(1 0 0 1 268.5132 186.2065)" class="st12 st13">Cybersecurity</text>
		</g>
		<g>
			<path class="st15" d="M77.5,201h-32c-2.4,0-4.4-2-4.4-4.4v-0.9c0-2.4,2-4.4,4.4-4.4h32c2.4,0,4.4,2,4.4,4.4v0.9
				C81.9,199,79.9,201,77.5,201z"/>
			<text transform="matrix(1 0 0 1 56.2724 196.9554)" class="st12 st13">Finance</text>
		</g>
		<rect x="-177.1" y="210.6" class="st7" width="47.7" height="23.5"/>
		<rect x="-177.1" y="210.6" class="st7" width="47.7" height="23.5"/>
		<g>
			<path class="st15" d="M146.7,226.1l-32,0.5c-2.4,0-4.4-1.9-4.5-4.3v-0.9c0-2.4,1.9-4.4,4.3-4.5l32-0.5c2.4,0,4.4,1.9,4.5,4.3v0.9
				C151,224.1,149.1,226.1,146.7,226.1z"/>
			<text transform="matrix(0.9999 -1.496663e-02 1.496663e-02 0.9999 118.7828 222.5319)" class="st12 st13">Law Enforcement</text>
		</g>
		<g>
			<path class="st15" d="M236.6,225.6h-32c-2.4,0-4.4-2-4.4-4.4v-0.9c0-2.4,2-4.4,4.4-4.4h32c2.4,0,4.4,2,4.4,4.4v0.9
				C241,223.6,239,225.6,236.6,225.6z"/>
			<text transform="matrix(1 0 0 1 210.5953 221.5678)" class="st12 st13">Transportation</text>
		</g>
	</g>
</g>
</svg>
